<svg width="876" height="48" viewBox="0 0 876 48" fill="none" xmlns="http://www.w3.org/2000/svg">
<path d="M68.1489 7.32804C79.3552 -0.675751 90.5615 -0.675751 101.768 7.32804C112.974 15.3318 124.18 15.3318 135.387 7.32804C146.593 -0.675751 157.799 -0.675751 169.005 7.32804C180.212 15.3318 191.418 15.3318 202.624 7.32804C213.83 -0.675751 225.037 -0.675751 236.243 7.32804C247.449 15.3318 258.655 15.3318 269.862 7.32804C281.068 -0.675751 292.274 -0.675751 303.481 7.32804C314.687 15.3318 325.893 15.3318 337.099 7.32804C348.306 -0.675751 359.512 -0.675751 370.718 7.32804C381.924 15.3318 393.131 15.3318 404.337 7.32804C415.543 -0.675751 426.749 -0.675751 437.956 7.32804C449.162 15.3318 460.368 15.3318 471.574 7.32804C482.781 -0.675751 493.987 -0.675751 505.193 7.32804C516.4 15.3318 527.606 15.3318 538.812 7.32804C550.018 -0.675751 561.225 -0.675751 572.431 7.32804C583.637 15.3318 594.843 15.3318 606.05 7.32804C617.256 -0.675751 628.462 -0.675751 639.668 7.32804C650.875 15.3318 662.081 15.3318 673.287 7.32804C684.494 -0.675751 695.7 -0.675751 706.906 7.32804C718.112 15.3318 729.319 15.3318 740.525 7.32804C751.731 -0.675751 762.937 -0.675751 774.144 7.32804C785.35 15.3318 796.556 15.3318 807.762 7.32804C818.969 -0.675751 830.175 -0.675751 841.381 7.32804C852.588 15.3318 863.794 15.3318 875 7.32804" stroke="#CCE1E4" stroke-width="2" stroke-linecap="round"/>
<path d="M1.07812 40.3437C12.2844 32.3399 23.4907 32.3399 34.6969 40.3437C45.9032 48.3474 57.1095 48.3474 68.3157 40.3437C79.522 32.3399 90.7283 32.3399 101.935 40.3437C113.141 48.3474 124.347 48.3474 135.553 40.3437C146.76 32.3399 157.966 32.3399 169.172 40.3437C180.378 48.3474 191.585 48.3474 202.791 40.3437C213.997 32.3399 225.203 32.3399 236.41 40.3437C247.616 48.3474 258.822 48.3474 270.029 40.3437C281.235 32.3399 292.441 32.3399 303.647 40.3437C314.854 48.3474 326.06 48.3474 337.266 40.3437C348.472 32.3399 359.679 32.3399 370.885 40.3437C382.091 48.3474 393.297 48.3474 404.504 40.3437C415.71 32.3399 426.916 32.3399 438.122 40.3437C449.329 48.3474 460.535 48.3474 471.741 40.3437C482.948 32.3399 494.154 32.3399 505.36 40.3437C516.566 48.3474 527.773 48.3474 538.979 40.3437C550.185 32.3399 561.391 32.3399 572.598 40.3437C583.804 48.3474 595.01 48.3474 606.216 40.3437C617.423 32.3399 628.629 32.3399 639.835 40.3437C651.042 48.3474 662.248 48.3474 673.454 40.3437C684.66 32.3399 695.867 32.3399 707.073 40.3437C718.279 48.3474 729.485 48.3474 740.692 40.3437C751.898 32.3399 763.104 32.3399 774.31 40.3437C785.517 48.3474 796.723 48.3474 807.929 40.3437" stroke="#CCE1E4" stroke-width="2" stroke-linecap="round"/>
</svg>
