<svg width="113" height="113" viewBox="0 0 113 113" fill="none" xmlns="http://www.w3.org/2000/svg">
<path d="M92.5936 6.8076C92.8191 6.19817 93.681 6.19817 93.9065 6.8076L95.6907 11.6292C95.7616 11.8208 95.9127 11.9719 96.1043 12.0428L100.926 13.827C101.535 14.0525 101.535 14.9144 100.926 15.1399L96.1043 16.9241C95.9127 16.995 95.7616 17.1461 95.6907 17.3377L93.9065 22.1593C93.681 22.7687 92.8191 22.7687 92.5936 22.1593L90.8094 17.3377C90.7385 17.1461 90.5874 16.995 90.3958 16.9241L85.5742 15.1399C84.9648 14.9144 84.9648 14.0525 85.5742 13.827L90.3958 12.0428C90.5874 11.9719 90.7385 11.8208 90.8094 11.6292L92.5936 6.8076Z" fill="white"/>
<path d="M102.393 21.5078C102.619 20.8984 103.481 20.8984 103.706 21.5078L104.923 24.7966C104.994 24.9882 105.145 25.1393 105.337 25.2102L108.626 26.4271C109.235 26.6527 109.235 27.5146 108.626 27.7401L105.337 28.9571C105.145 29.028 104.994 29.1791 104.923 29.3707L103.706 32.6595C103.481 33.2689 102.619 33.2689 102.393 32.6595L101.176 29.3707C101.106 29.1791 100.955 29.028 100.763 28.9571L97.4741 27.7401C96.8647 27.5146 96.8647 26.6527 97.4741 26.4271L100.763 25.2102C100.955 25.1393 101.106 24.9882 101.176 24.7966L102.393 21.5078Z" fill="white"/>
<rect x="43.2" y="24.6333" width="26.6" height="15.4" rx="4.9" fill="white" stroke="#4A3636" stroke-width="1.4"/>
<rect x="27.0999" y="28.1333" width="8.4" height="4.9" rx="0.7" fill="white" stroke="#4A3636" stroke-width="1.4"/>
<rect x="22.2" y="30.9334" width="68.6" height="43.4" rx="4.9" fill="white" stroke="#4A3636" stroke-width="1.4"/>
<line x1="22.2" y1="39.3334" x2="91.5" y2="39.3334" stroke="#4A3636" stroke-width="1.4"/>
<line x1="22.2" y1="65.9335" x2="91.5" y2="65.9335" stroke="#4A3636" stroke-width="1.4"/>
<circle cx="85.2001" cy="35.1334" r="1.4" fill="#4A3636"/>
<circle cx="56.5" cy="54.0334" r="16.1" fill="white" stroke="#4A3636" stroke-width="1.4"/>
<circle cx="56.4999" cy="54.0336" r="11.9" stroke="#4A3636" stroke-width="1.4"/>
<rect x="66.378" y="59.1084" width="38.3444" height="38.3444" rx="2.1" fill="white" stroke="#4A3636" stroke-width="1.4"/>
<path d="M66.7424 80.4097L76.1201 71.6182C77.2226 70.5846 78.9464 70.6124 80.015 71.681L96.1959 87.8618" stroke="#4A3636" stroke-width="1.4" stroke-linecap="round"/>
<path d="M86.2595 77.9048L90.6116 73.8088C91.7363 72.7502 93.5057 72.8023 94.5662 73.9252L104.712 84.6681" stroke="#4A3636" stroke-width="1.4" stroke-linecap="round"/>
<circle cx="97.2606" cy="66.5702" r="2.48403" fill="#4A3636"/>
</svg>
