<svg width="48" height="48" viewBox="0 0 48 48" fill="none" xmlns="http://www.w3.org/2000/svg">
<path d="M36 24.0001C36 25.1001 36.9 26.0001 38 26.0001H42C43.1 26.0001 44 25.1001 44 24.0001C44 22.9001 43.1 22.0001 42 22.0001H38C36.9 22.0001 36 22.9001 36 24.0001ZM33.18 33.6401C33.023 33.8449 32.9086 34.0792 32.8436 34.329C32.7786 34.5788 32.7643 34.8391 32.8016 35.0945C32.8389 35.3499 32.927 35.5953 33.0607 35.8161C33.1944 36.0369 33.371 36.2286 33.58 36.3801C34.64 37.1601 35.76 38.0001 36.82 38.8001C37.7 39.4601 38.94 39.2801 39.58 38.4001C39.58 38.3801 39.6 38.3801 39.6 38.3601C39.757 38.1534 39.8713 37.9175 39.9363 37.6662C40.0012 37.4149 40.0155 37.1531 39.9783 36.8963C39.941 36.6394 39.8531 36.3925 39.7194 36.1699C39.5858 35.9474 39.4092 35.7537 39.2 35.6001C38.14 34.8001 37.02 33.9601 35.98 33.1801C35.77 33.0248 35.5314 32.9126 35.278 32.8496C35.0245 32.7867 34.7611 32.7744 34.5029 32.8135C34.2447 32.8525 33.9967 32.942 33.7731 33.077C33.5495 33.212 33.3548 33.3897 33.2 33.6001C33.2 33.6201 33.18 33.6401 33.18 33.6401ZM39.62 9.62006C39.62 9.60006 39.6 9.60006 39.6 9.58006C39.446 9.37126 39.2522 9.1951 39.0296 9.06179C38.8071 8.92848 38.5603 8.84068 38.3036 8.80347C38.0468 8.76626 37.7853 8.78039 37.534 8.84503C37.2828 8.90968 37.0469 9.02355 36.84 9.18006C35.78 9.98006 34.64 10.8201 33.6 11.6201C32.72 12.2801 32.56 13.5201 33.22 14.3801C33.22 14.4001 33.24 14.4001 33.24 14.4201C33.9 15.3001 35.12 15.4801 36 14.8201C37.06 14.0401 38.18 13.1801 39.24 12.3801C40.1 11.7401 40.26 10.5001 39.62 9.62006ZM16 18.0001H8C5.8 18.0001 4 19.8001 4 22.0001V26.0001C4 28.2001 5.8 30.0001 8 30.0001H10V36.0001C10 37.1001 10.9 38.0001 12 38.0001C13.1 38.0001 14 37.1001 14 36.0001V30.0001H16L26 36.0001V12.0001L16 18.0001ZM31 24.0001C31 21.3401 29.84 18.9401 28 17.3001V30.6801C29.84 29.0601 31 26.6601 31 24.0001Z" fill="#9ED0E0"/>
</svg>
