<svg width="24" height="24" viewBox="0 0 24 24" fill="none" xmlns="http://www.w3.org/2000/svg">
<path d="M7.79997 2H16.2C19.4 2 22 4.6 22 7.8V16.2C22 17.7383 21.3889 19.2135 20.3012 20.3012C19.2135 21.3889 17.7382 22 16.2 22H7.79997C4.59997 22 1.99997 19.4 1.99997 16.2V7.8C1.99997 6.26175 2.61104 4.78649 3.69875 3.69878C4.78646 2.61107 6.26171 2 7.79997 2ZM7.59997 4C6.64519 4 5.72952 4.37929 5.05439 5.05442C4.37925 5.72955 3.99997 6.64522 3.99997 7.6V16.4C3.99997 18.39 5.60997 20 7.59997 20H16.4C17.3548 20 18.2704 19.6207 18.9456 18.9456C19.6207 18.2705 20 17.3548 20 16.4V7.6C20 5.61 18.39 4 16.4 4H7.59997ZM17.25 5.5C17.5815 5.5 17.8994 5.6317 18.1339 5.86612C18.3683 6.10054 18.5 6.41848 18.5 6.75C18.5 7.08152 18.3683 7.39946 18.1339 7.63388C17.8994 7.8683 17.5815 8 17.25 8C16.9185 8 16.6005 7.8683 16.3661 7.63388C16.1317 7.39946 16 7.08152 16 6.75C16 6.41848 16.1317 6.10054 16.3661 5.86612C16.6005 5.6317 16.9185 5.5 17.25 5.5ZM12 7C13.3261 7 14.5978 7.52678 15.5355 8.46447C16.4732 9.40215 17 10.6739 17 12C17 13.3261 16.4732 14.5979 15.5355 15.5355C14.5978 16.4732 13.3261 17 12 17C10.6739 17 9.40212 16.4732 8.46444 15.5355C7.52675 14.5979 6.99997 13.3261 6.99997 12C6.99997 10.6739 7.52675 9.40215 8.46444 8.46447C9.40212 7.52678 10.6739 7 12 7ZM12 9C11.2043 9 10.4413 9.31607 9.87865 9.87868C9.31604 10.4413 8.99997 11.2044 8.99997 12C8.99997 12.7957 9.31604 13.5587 9.87865 14.1213C10.4413 14.6839 11.2043 15 12 15C12.7956 15 13.5587 14.6839 14.1213 14.1213C14.6839 13.5587 15 12.7957 15 12C15 11.2044 14.6839 10.4413 14.1213 9.87868C13.5587 9.31607 12.7956 9 12 9Z" fill="#9ED0E0"/>
</svg>
