<svg width="101" height="220" viewBox="0 0 101 220" fill="none" xmlns="http://www.w3.org/2000/svg">
<path d="M72.6127 11.3362C74.9224 12.1915 77.6966 10.3935 78.8086 7.32172C79.9199 4.24994 78.9493 1.06709 76.6395 0.212503C74.3291 -0.641343 71.5556 1.15521 70.4436 4.22773C69.3323 7.2995 70.303 10.4824 72.6134 11.3362H72.6127Z" fill="#CCE1E4"/>
<path d="M63.8352 16.2356C66.2519 16.0238 67.9873 13.2482 67.7126 10.0335C67.4372 6.82031 65.2557 4.38689 62.839 4.5972C60.423 4.80974 58.6876 7.58603 58.9623 10.8C59.2378 14.0132 61.4193 16.4466 63.8352 16.2356Z" fill="#CCE1E4"/>
<path d="M82.6545 16.1268C84.7753 17.3872 87.8227 16.1216 89.4621 13.3016C91.1008 10.4794 90.7104 7.17289 88.5889 5.91323C86.4682 4.65431 83.42 5.92063 81.7813 8.74062C80.1426 11.5621 80.5338 14.8686 82.6545 16.1275V16.1268Z" fill="#CCE1E4"/>
<path d="M94.0133 19.4696C92.6383 17.4501 89.3931 17.2939 86.7647 19.1223C84.1356 20.9514 83.1196 24.0706 84.4938 26.0908C85.8688 28.1102 89.114 28.2665 91.7424 26.4381C94.3708 24.6097 95.3876 21.4905 94.0133 19.4703V19.4696Z" fill="#CCE1E4"/>
<path d="M79.8935 19.8509C79.6312 18.0166 78.5185 16.343 76.7406 15.4951C74.9627 14.6471 72.9775 14.8426 71.4105 15.8039C69.6781 16.8665 68.5704 18.2551 67.0782 18.8616C65.5868 19.4681 61.4083 17.6611 58.807 22.4369C56.9698 25.8101 58.6561 30.0741 62.1006 31.7174C64.7187 32.966 66.7903 32.8267 68.3119 33.5517C69.8326 34.2767 71.0435 35.9829 73.6617 37.2315C77.1061 38.8747 81.434 37.4803 82.842 33.902C84.8353 28.8359 80.7982 26.7247 80.3132 25.1747C79.8283 23.6255 80.1843 21.8778 79.8942 19.8509H79.8935Z" fill="#CCE1E4"/>
<path d="M77.9004 72.6186C80.2102 73.4739 82.9843 71.6759 84.0963 68.6041C85.2076 65.5324 84.237 62.3495 81.9273 61.4949C79.6168 60.6411 76.8434 62.4376 75.7313 65.5101C74.6201 68.5819 75.5907 71.7648 77.9012 72.6186H77.9004Z" fill="#CCE1E4"/>
<path d="M69.123 77.518C71.5396 77.3062 73.2751 74.5306 73.0004 71.3159C72.7249 68.1027 70.5434 65.6693 68.1267 65.8796C65.7107 66.0921 63.9753 68.8684 64.25 72.0824C64.5255 75.2956 66.707 77.729 69.123 77.518Z" fill="#CCE1E4"/>
<path d="M87.9422 77.4092C90.063 78.6696 93.1104 77.404 94.7498 74.584C96.3885 71.7618 95.9981 68.4553 93.8766 67.1956C91.7559 65.9367 88.7078 67.203 87.069 70.023C85.4303 72.8445 85.8215 76.151 87.9422 77.4099V77.4092Z" fill="#CCE1E4"/>
<path d="M99.301 80.752C97.926 78.7325 94.6808 78.5763 92.0525 80.4047C89.4233 82.2338 88.4073 85.353 89.7815 87.3732C91.1565 89.3926 94.4017 89.5489 97.0301 87.7205C99.6585 85.8921 100.675 82.7729 99.301 80.7527V80.752Z" fill="#CCE1E4"/>
<path d="M85.1812 81.1333C84.9189 79.299 83.8062 77.6254 82.0283 76.7775C80.2504 75.9295 78.2652 76.1251 76.6983 77.0863C74.9658 78.149 73.8582 79.5375 72.366 80.144C70.8745 80.7505 66.696 78.9436 64.0947 83.7193C62.2575 87.0925 63.9438 91.3565 67.3883 92.9998C70.0064 94.2484 72.0781 94.1091 73.5996 94.8341C75.1203 95.5591 76.3313 97.2653 78.9494 98.5139C82.3938 100.157 86.7218 98.7627 88.1297 95.1844C90.123 90.1184 86.0859 88.0071 85.601 86.4571C85.116 84.9079 85.472 83.1602 85.1819 81.1333H85.1812Z" fill="#CCE1E4"/>
<path d="M14.8909 132.138C17.2006 132.993 19.9748 131.195 21.0868 128.123C22.1981 125.051 21.2275 121.869 18.9177 121.014C16.6073 120.16 13.8338 121.957 12.7218 125.029C11.6105 128.101 12.5812 131.284 14.8916 132.138H14.8909Z" fill="#CCE1E4"/>
<path d="M6.11344 137.037C8.53012 136.825 10.2655 134.05 9.99083 130.835C9.71539 127.622 7.53385 125.188 5.11717 125.399C2.70122 125.611 0.965803 128.388 1.24051 131.602C1.51595 134.815 3.69749 137.248 6.11344 137.037Z" fill="#CCE1E4"/>
<path d="M24.9327 136.928C27.0535 138.189 30.1009 136.923 31.7403 134.103C33.379 131.281 32.9886 127.974 30.8671 126.715C28.7464 125.456 25.6982 126.722 24.0595 129.542C22.4208 132.364 22.812 135.67 24.9327 136.929V136.928Z" fill="#CCE1E4"/>
<path d="M36.2915 140.271C34.9165 138.252 31.6713 138.095 29.0429 139.924C26.4138 141.753 25.3978 144.872 26.772 146.892C28.147 148.912 31.3922 149.068 34.0206 147.24C36.649 145.411 37.6658 142.292 36.2915 140.272V140.271Z" fill="#CCE1E4"/>
<path d="M22.1717 140.653C21.9094 138.818 20.7967 137.145 19.0188 136.297C17.2409 135.449 15.2557 135.644 13.6887 136.605C11.9563 137.668 10.8486 139.057 9.35643 139.663C7.86496 140.27 3.68649 138.463 1.0852 143.238C-0.752036 146.612 0.934296 150.876 4.37875 152.519C6.99689 153.768 9.06854 153.628 10.59 154.353C12.1108 155.078 13.3217 156.784 15.9399 158.033C19.3843 159.676 23.7122 158.282 25.1202 154.704C27.1135 149.638 23.0764 147.526 22.5914 145.976C22.1065 144.427 22.4625 142.679 22.1724 140.653H22.1717Z" fill="#CCE1E4"/>
<path d="M20.1786 193.42C22.4884 194.275 25.2625 192.477 26.3745 189.406C27.4858 186.334 26.5152 183.151 24.2055 182.296C21.895 181.443 19.1216 183.239 18.0095 186.312C16.8983 189.383 17.8689 192.566 20.1794 193.42H20.1786Z" fill="#CCE1E4"/>
<path d="M11.4012 198.319C13.8178 198.108 15.5533 195.332 15.2786 192.117C15.0031 188.904 12.8216 186.471 10.4049 186.681C7.98894 186.894 6.25352 189.67 6.52823 192.884C6.80367 196.097 8.98521 198.531 11.4012 198.319Z" fill="#CCE1E4"/>
<path d="M30.2204 198.211C32.3412 199.471 35.3886 198.206 37.028 195.386C38.6667 192.563 38.2763 189.257 36.1548 187.997C34.0341 186.738 30.9859 188.005 29.3472 190.825C27.7085 193.646 28.0997 196.953 30.2204 198.212V198.211Z" fill="#CCE1E4"/>
<path d="M41.5792 201.554C40.2042 199.534 36.959 199.378 34.3306 201.206C31.7015 203.035 30.6855 206.155 32.0597 208.175C33.4347 210.194 36.6799 210.35 39.3083 208.522C41.9367 206.694 42.9535 203.575 41.5792 201.554V201.554Z" fill="#CCE1E4"/>
<path d="M27.4594 201.935C27.1971 200.101 26.0844 198.427 24.3065 197.579C22.5286 196.731 20.5434 196.927 18.9765 197.888C17.244 198.95 16.1364 200.339 14.6442 200.945C13.1527 201.552 8.97421 199.745 6.37292 204.521C4.53568 207.894 6.22202 212.158 9.66647 213.801C12.2846 215.05 14.3563 214.911 15.8778 215.636C17.3985 216.361 18.6095 218.067 21.2276 219.315C24.672 220.959 29 219.564 30.4079 215.986C32.4012 210.92 28.3641 208.809 27.8792 207.259C27.3942 205.709 27.7502 203.962 27.4601 201.935H27.4594Z" fill="#CCE1E4"/>
</svg>
