<svg width="180" height="180" viewBox="0 0 180 180" fill="none" xmlns="http://www.w3.org/2000/svg">
<circle cx="90" cy="90" r="90" fill="#CE2073"/>
<path d="M43.8013 100H36.2755V79.4161C36.2755 78.5854 36.2921 77.4723 36.3253 76.0768C36.3586 74.6481 36.4084 73.4021 36.4749 72.3388C36.3087 72.5382 35.9432 72.9037 35.3784 73.4353C34.8468 73.9337 34.3484 74.3822 33.8832 74.781L29.7963 78.0704L26.158 73.535L37.6212 64.4142H43.8013V100ZM78.4035 82.2071C78.4035 86.0282 77.9882 89.301 77.1575 92.0256C76.3601 94.7502 75.0477 96.8435 73.2202 98.3054C71.3927 99.7674 68.9672 100.498 65.9435 100.498C61.6573 100.498 58.5174 98.8869 56.5238 95.6639C54.5302 92.4409 53.5334 87.9553 53.5334 82.2071C53.5334 78.3861 53.9321 75.1132 54.7295 72.3886C55.527 69.6308 56.8394 67.5209 58.6669 66.059C60.4944 64.597 62.9199 63.866 65.9435 63.866C70.1966 63.866 73.3365 65.4775 75.3633 68.7005C77.3901 71.9235 78.4035 76.4257 78.4035 82.2071ZM61.0094 82.2071C61.0094 86.2608 61.3583 89.3176 62.056 91.3777C62.7538 93.4045 64.0496 94.4179 65.9435 94.4179C67.8042 94.4179 69.1001 93.4045 69.8311 91.3777C70.5621 89.3509 70.9275 86.294 70.9275 82.2071C70.9275 78.1535 70.5621 75.0966 69.8311 73.0366C69.1001 70.9765 67.8042 69.9465 65.9435 69.9465C64.0496 69.9465 62.7538 70.9765 62.056 73.0366C61.3583 75.0966 61.0094 78.1535 61.0094 82.2071ZM106.925 82.2071C106.925 86.0282 106.51 89.301 105.679 92.0256C104.882 94.7502 103.569 96.8435 101.742 98.3054C99.9144 99.7674 97.4889 100.498 94.4653 100.498C90.179 100.498 87.0391 98.8869 85.0455 95.6639C83.0519 92.4409 82.0551 87.9553 82.0551 82.2071C82.0551 78.3861 82.4538 75.1132 83.2513 72.3886C84.0487 69.6308 85.3612 67.5209 87.1886 66.059C89.0161 64.597 91.4416 63.866 94.4653 63.866C98.7183 63.866 101.858 65.4775 103.885 68.7005C105.912 71.9235 106.925 76.4257 106.925 82.2071ZM89.5311 82.2071C89.5311 86.2608 89.88 89.3176 90.5777 91.3777C91.2755 93.4045 92.5713 94.4179 94.4653 94.4179C96.326 94.4179 97.6218 93.4045 98.3528 91.3777C99.0838 89.3509 99.4493 86.294 99.4493 82.2071C99.4493 78.1535 99.0838 75.0966 98.3528 73.0366C97.6218 70.9765 96.326 69.9465 94.4653 69.9465C92.5713 69.9465 91.2755 70.9765 90.5777 73.0366C89.88 75.0966 89.5311 78.1535 89.5311 82.2071ZM114.895 99.056H122.047V100.8H114.895V99.056ZM114.079 87.984H119.759V89.68H114.079V87.984ZM114.511 86.32L116.671 86.736C116.212 87.5147 115.684 88.272 115.087 89.008C114.5 89.7333 113.828 90.432 113.071 91.104C112.324 91.7653 111.471 92.3787 110.511 92.944C110.415 92.784 110.287 92.6133 110.127 92.432C109.967 92.24 109.801 92.0533 109.631 91.872C109.46 91.6907 109.3 91.5467 109.151 91.44C110.036 90.9707 110.82 90.4533 111.503 89.888C112.196 89.3227 112.793 88.736 113.295 88.128C113.796 87.5093 114.201 86.9067 114.511 86.32ZM119.151 87.984H119.503L119.823 87.888L121.151 88.576C120.681 89.824 120.073 90.9653 119.327 92C118.591 93.024 117.743 93.9467 116.783 94.768C115.833 95.5893 114.804 96.304 113.695 96.912C112.585 97.52 111.433 98.0267 110.239 98.432C110.164 98.2507 110.063 98.0533 109.935 97.84C109.807 97.6267 109.673 97.4187 109.535 97.216C109.396 97.0133 109.257 96.8427 109.119 96.704C110.228 96.3947 111.3 95.9733 112.335 95.44C113.38 94.896 114.345 94.2613 115.231 93.536C116.127 92.8107 116.911 92.0107 117.583 91.136C118.255 90.2507 118.777 89.3067 119.151 88.304V87.984ZM111.983 91.488L113.423 90.256C113.796 90.512 114.185 90.8 114.591 91.12C115.007 91.44 115.396 91.7653 115.759 92.096C116.132 92.416 116.436 92.72 116.671 93.008L115.119 94.384C114.916 94.1067 114.639 93.7973 114.287 93.456C113.935 93.104 113.556 92.7573 113.151 92.416C112.745 92.0747 112.356 91.7653 111.983 91.488ZM121.167 94.192H123.151V101.44H121.167V94.192ZM115.711 94.192H122.127V95.92H115.711V101.424H113.775V95.6L115.247 94.192H115.711ZM131.151 88.192H139.919V89.696H131.151V88.192ZM131.567 90.336H139.583V91.776H131.567V90.336ZM130.831 92.464H140.223V94.032H130.831V92.464ZM137.295 86.384L139.215 86.832C138.991 87.1947 138.777 87.5413 138.575 87.872C138.372 88.2027 138.185 88.4853 138.015 88.72L136.527 88.288C136.665 88.0107 136.804 87.6907 136.943 87.328C137.092 86.9653 137.209 86.6507 137.295 86.384ZM132.159 86.944L133.679 86.432C133.86 86.7093 134.036 87.0133 134.207 87.344C134.388 87.6747 134.516 87.9627 134.591 88.208L132.991 88.784C132.927 88.5387 132.815 88.24 132.655 87.888C132.495 87.536 132.329 87.2213 132.159 86.944ZM138.687 94.32L140.143 95.344C139.791 95.7173 139.412 96.0853 139.007 96.448C138.612 96.8107 138.26 97.12 137.951 97.376L136.719 96.448C136.921 96.2667 137.145 96.0533 137.391 95.808C137.636 95.5627 137.871 95.312 138.095 95.056C138.329 94.7893 138.527 94.544 138.687 94.32ZM131.151 95.248L132.447 94.384C132.735 94.672 133.033 95.0027 133.343 95.376C133.652 95.7387 133.887 96.0587 134.047 96.336L132.671 97.296C132.521 97.008 132.303 96.672 132.015 96.288C131.727 95.8933 131.439 95.5467 131.151 95.248ZM130.207 98.848C130.697 98.6347 131.273 98.3627 131.935 98.032C132.596 97.7013 133.273 97.3547 133.967 96.992L134.463 98.544C133.897 98.8747 133.316 99.2107 132.719 99.552C132.121 99.8827 131.567 100.187 131.055 100.464L130.207 98.848ZM134.607 89.216H136.463V99.536C136.463 99.9627 136.415 100.299 136.319 100.544C136.233 100.8 136.057 100.997 135.791 101.136C135.524 101.285 135.199 101.376 134.815 101.408C134.441 101.451 134.004 101.472 133.503 101.472C133.471 101.216 133.407 100.923 133.311 100.592C133.215 100.261 133.108 99.984 132.991 99.76C133.268 99.7707 133.54 99.7813 133.807 99.792C134.084 99.792 134.265 99.792 134.351 99.792C134.457 99.792 134.527 99.7707 134.559 99.728C134.591 99.6853 134.607 99.616 134.607 99.52V89.216ZM136.351 94.32C136.596 95.0347 136.911 95.7067 137.295 96.336C137.679 96.9653 138.143 97.52 138.687 98C139.231 98.48 139.844 98.8587 140.527 99.136C140.399 99.2533 140.255 99.408 140.095 99.6C139.945 99.7813 139.796 99.968 139.647 100.16C139.508 100.352 139.396 100.528 139.311 100.688C138.617 100.315 137.999 99.824 137.455 99.216C136.921 98.5973 136.457 97.8987 136.063 97.12C135.679 96.3413 135.359 95.504 135.103 94.608L136.351 94.32ZM125.503 89.728H130.799V91.504H125.503V89.728ZM127.455 86.4H129.183V101.424H127.455V86.4ZM127.423 90.944L128.479 91.296C128.372 91.936 128.233 92.5973 128.063 93.28C127.892 93.952 127.7 94.6187 127.487 95.28C127.273 95.9307 127.039 96.5387 126.783 97.104C126.537 97.6693 126.271 98.1547 125.983 98.56C125.897 98.3147 125.764 98.0267 125.583 97.696C125.412 97.3653 125.257 97.0933 125.119 96.88C125.375 96.528 125.62 96.1173 125.855 95.648C126.089 95.1787 126.308 94.6773 126.511 94.144C126.713 93.6107 126.889 93.072 127.039 92.528C127.199 91.9733 127.327 91.4453 127.423 90.944ZM129.103 92.096C129.188 92.2027 129.321 92.3947 129.503 92.672C129.695 92.9387 129.897 93.232 130.111 93.552C130.324 93.8613 130.516 94.1547 130.687 94.432C130.868 94.6987 130.991 94.8853 131.055 94.992L130.063 96.368C129.967 96.144 129.844 95.872 129.695 95.552C129.545 95.232 129.38 94.9013 129.199 94.56C129.028 94.2187 128.863 93.8987 128.703 93.6C128.553 93.3013 128.42 93.056 128.303 92.864L129.103 92.096Z" fill="#FFEE56"/>
<path d="M147.951 88.816C148.441 88.88 148.991 88.928 149.599 88.96C150.217 88.9813 150.841 88.992 151.471 88.992C152.111 88.9813 152.724 88.96 153.311 88.928C153.897 88.8853 154.404 88.8427 154.831 88.8V90.864C154.34 90.9067 153.801 90.944 153.215 90.976C152.628 90.9973 152.025 91.008 151.407 91.008C150.788 91.008 150.18 90.9973 149.583 90.976C148.996 90.944 148.452 90.9067 147.951 90.864V88.816ZM149.231 95.648C149.167 95.9147 149.119 96.1547 149.087 96.368C149.055 96.5707 149.039 96.7787 149.039 96.992C149.039 97.1627 149.081 97.3227 149.167 97.472C149.252 97.6107 149.38 97.7333 149.551 97.84C149.732 97.936 149.961 98.0107 150.239 98.064C150.527 98.1067 150.873 98.128 151.279 98.128C151.993 98.128 152.665 98.096 153.295 98.032C153.924 97.9573 154.591 97.8507 155.295 97.712L155.327 99.872C154.815 99.968 154.223 100.043 153.551 100.096C152.889 100.149 152.105 100.176 151.199 100.176C149.823 100.176 148.799 99.9467 148.127 99.488C147.455 99.0187 147.119 98.3733 147.119 97.552C147.119 97.2427 147.14 96.9227 147.183 96.592C147.236 96.2507 147.305 95.8773 147.391 95.472L149.231 95.648ZM145.487 87.744C145.444 87.8507 145.396 88 145.343 88.192C145.289 88.384 145.236 88.5707 145.183 88.752C145.14 88.9333 145.108 89.072 145.087 89.168C145.055 89.392 145.001 89.6853 144.927 90.048C144.863 90.4 144.793 90.8 144.719 91.248C144.655 91.6853 144.591 92.1333 144.527 92.592C144.463 93.0507 144.409 93.4933 144.367 93.92C144.335 94.3467 144.319 94.72 144.319 95.04C144.319 95.1893 144.319 95.36 144.319 95.552C144.329 95.744 144.351 95.92 144.383 96.08C144.457 95.8987 144.537 95.7173 144.623 95.536C144.708 95.3547 144.793 95.1733 144.879 94.992C144.964 94.8 145.039 94.6187 145.103 94.448L146.095 95.232C145.945 95.6693 145.791 96.1387 145.631 96.64C145.481 97.1413 145.343 97.616 145.215 98.064C145.097 98.5013 145.007 98.864 144.943 99.152C144.921 99.2693 144.9 99.4027 144.879 99.552C144.868 99.7013 144.863 99.8187 144.863 99.904C144.863 99.9893 144.863 100.091 144.863 100.208C144.873 100.336 144.884 100.453 144.895 100.56L143.039 100.688C142.879 100.133 142.735 99.3973 142.607 98.48C142.479 97.552 142.415 96.544 142.415 95.456C142.415 94.8587 142.441 94.2507 142.495 93.632C142.548 93.0133 142.612 92.4213 142.687 91.856C142.761 91.28 142.831 90.7573 142.895 90.288C142.969 89.8187 143.033 89.4293 143.087 89.12C143.108 88.896 143.135 88.6453 143.167 88.368C143.209 88.08 143.236 87.808 143.247 87.552L145.487 87.744Z" fill="white"/>
<path d="M49.296 116.408C49.296 116.792 49.432 117.12 49.704 117.392C49.976 117.648 50.296 117.776 50.664 117.776C51.048 117.776 51.376 117.648 51.648 117.392C51.92 117.12 52.056 116.792 52.056 116.408C52.056 116.024 51.92 115.696 51.648 115.424C51.376 115.152 51.048 115.016 50.664 115.016C50.296 115.016 49.976 115.152 49.704 115.424C49.432 115.696 49.296 116.024 49.296 116.408ZM47.808 116.408C47.808 115.88 47.936 115.4 48.192 114.968C48.464 114.52 48.816 114.168 49.248 113.912C49.68 113.656 50.152 113.528 50.664 113.528C51.192 113.528 51.672 113.656 52.104 113.912C52.552 114.168 52.904 114.52 53.16 114.968C53.416 115.4 53.544 115.88 53.544 116.408C53.544 116.92 53.416 117.392 53.16 117.824C52.904 118.256 52.552 118.608 52.104 118.88C51.672 119.136 51.192 119.264 50.664 119.264C50.152 119.264 49.68 119.136 49.248 118.88C48.816 118.608 48.464 118.256 48.192 117.824C47.936 117.392 47.808 116.92 47.808 116.408ZM50.712 118.304C50.6 118.528 50.504 118.8 50.424 119.12C50.344 119.424 50.264 119.704 50.184 119.96C50.056 120.552 49.888 121.216 49.68 121.952C49.472 122.672 49.224 123.424 48.936 124.208C48.648 124.992 48.304 125.768 47.904 126.536C47.52 127.304 47.08 128.024 46.584 128.696C45.864 129.656 45.024 130.552 44.064 131.384C43.104 132.216 42.032 132.968 40.848 133.64C39.664 134.312 38.36 134.88 36.936 135.344L34.32 132.464C35.92 132.08 37.296 131.608 38.448 131.048C39.6 130.488 40.6 129.848 41.448 129.128C42.312 128.408 43.072 127.64 43.728 126.824C44.256 126.152 44.704 125.424 45.072 124.64C45.456 123.856 45.768 123.072 46.008 122.288C46.264 121.488 46.44 120.744 46.536 120.056C46.296 120.056 45.896 120.056 45.336 120.056C44.792 120.056 44.144 120.056 43.392 120.056C42.656 120.056 41.88 120.056 41.064 120.056C40.264 120.056 39.488 120.056 38.736 120.056C37.984 120.056 37.304 120.056 36.696 120.056C36.104 120.056 35.664 120.056 35.376 120.056C34.816 120.056 34.272 120.064 33.744 120.08C33.232 120.096 32.824 120.12 32.52 120.152V116.768C32.76 116.8 33.048 116.832 33.384 116.864C33.736 116.896 34.088 116.92 34.44 116.936C34.808 116.952 35.12 116.96 35.376 116.96C35.632 116.96 35.992 116.96 36.456 116.96C36.936 116.96 37.488 116.96 38.112 116.96C38.736 116.96 39.384 116.96 40.056 116.96C40.744 116.96 41.424 116.96 42.096 116.96C42.784 116.96 43.424 116.96 44.016 116.96C44.608 116.96 45.12 116.96 45.552 116.96C45.984 116.96 46.296 116.96 46.488 116.96C46.728 116.96 47.016 116.952 47.352 116.936C47.704 116.92 48.04 116.864 48.36 116.768L50.712 118.304ZM58.68 133.04C58.824 132.736 58.912 132.472 58.944 132.248C58.976 132.024 58.992 131.768 58.992 131.48C58.992 131.176 58.992 130.712 58.992 130.088C58.992 129.464 58.992 128.744 58.992 127.928C58.992 127.096 58.992 126.224 58.992 125.312C58.992 124.4 58.992 123.504 58.992 122.624C58.992 121.744 58.992 120.944 58.992 120.224C58.992 119.504 58.992 118.92 58.992 118.472C58.992 118.168 58.976 117.848 58.944 117.512C58.928 117.176 58.896 116.856 58.848 116.552C58.816 116.232 58.776 115.96 58.728 115.736H62.496C62.432 116.2 62.376 116.656 62.328 117.104C62.28 117.552 62.256 118.008 62.256 118.472C62.256 118.856 62.256 119.336 62.256 119.912C62.256 120.472 62.256 121.096 62.256 121.784C62.256 122.472 62.256 123.184 62.256 123.92C62.256 124.656 62.256 125.384 62.256 126.104C62.256 126.824 62.256 127.504 62.256 128.144C62.256 128.784 62.256 129.344 62.256 129.824C62.256 130.304 62.256 130.68 62.256 130.952C63.232 130.664 64.272 130.272 65.376 129.776C66.496 129.264 67.616 128.664 68.736 127.976C69.872 127.272 70.936 126.504 71.928 125.672C72.936 124.84 73.824 123.952 74.592 123.008L76.296 125.72C74.664 127.688 72.64 129.392 70.224 130.832C67.824 132.256 65.208 133.432 62.376 134.36C62.216 134.424 62.008 134.504 61.752 134.6C61.496 134.696 61.232 134.832 60.96 135.008L58.68 133.04ZM96.576 114.368C96.784 114.656 97 115 97.224 115.4C97.464 115.8 97.696 116.2 97.92 116.6C98.144 117 98.328 117.352 98.472 117.656L96.552 118.496C96.296 118 95.992 117.44 95.64 116.816C95.304 116.176 94.976 115.624 94.656 115.16L96.576 114.368ZM99.408 113.288C99.616 113.592 99.84 113.952 100.08 114.368C100.32 114.768 100.552 115.168 100.776 115.568C101.016 115.952 101.208 116.28 101.352 116.552L99.432 117.368C99.192 116.872 98.888 116.312 98.52 115.688C98.168 115.064 97.832 114.528 97.512 114.08L99.408 113.288ZM84.432 131.264C84.432 130.928 84.432 130.448 84.432 129.824C84.432 129.184 84.432 128.464 84.432 127.664C84.432 126.864 84.432 126.024 84.432 125.144C84.432 124.248 84.432 123.368 84.432 122.504C84.432 121.64 84.432 120.84 84.432 120.104C84.432 119.368 84.432 118.76 84.432 118.28C84.432 118.008 84.424 117.704 84.408 117.368C84.392 117.032 84.368 116.696 84.336 116.36C84.32 116.024 84.288 115.744 84.24 115.52H87.816C87.752 115.872 87.696 116.32 87.648 116.864C87.616 117.392 87.6 117.864 87.6 118.28C87.6 118.744 87.6 119.312 87.6 119.984C87.6 120.64 87.6 121.352 87.6 122.12C87.6 122.872 87.6 123.648 87.6 124.448C87.6 125.232 87.6 126 87.6 126.752C87.6 127.488 87.6 128.168 87.6 128.792C87.6 129.416 87.6 129.96 87.6 130.424C87.6 130.904 87.672 131.296 87.816 131.6C87.96 131.904 88.248 132.12 88.68 132.248C89.128 132.376 89.784 132.44 90.648 132.44C91.496 132.44 92.344 132.408 93.192 132.344C94.056 132.28 94.912 132.184 95.76 132.056C96.624 131.928 97.448 131.792 98.232 131.648L98.136 134.888C97.48 134.984 96.736 135.072 95.904 135.152C95.072 135.232 94.208 135.296 93.312 135.344C92.416 135.392 91.536 135.416 90.672 135.416C89.312 135.416 88.216 135.328 87.384 135.152C86.552 134.992 85.92 134.744 85.488 134.408C85.072 134.072 84.792 133.64 84.648 133.112C84.504 132.584 84.432 131.968 84.432 131.264ZM99.528 120.728C99.432 120.888 99.304 121.096 99.144 121.352C99 121.592 98.872 121.816 98.76 122.024C98.488 122.52 98.16 123.08 97.776 123.704C97.392 124.328 96.976 124.968 96.528 125.624C96.08 126.28 95.616 126.904 95.136 127.496C94.672 128.088 94.224 128.592 93.792 129.008L91.152 127.448C91.68 126.984 92.192 126.456 92.688 125.864C93.2 125.256 93.656 124.664 94.056 124.088C94.456 123.512 94.76 123.016 94.968 122.6C94.76 122.632 94.376 122.712 93.816 122.84C93.256 122.952 92.576 123.088 91.776 123.248C90.992 123.408 90.128 123.584 89.184 123.776C88.24 123.952 87.288 124.136 86.328 124.328C85.368 124.52 84.44 124.712 83.544 124.904C82.648 125.08 81.84 125.248 81.12 125.408C80.4 125.552 79.824 125.672 79.392 125.768L78.792 122.624C79.272 122.56 79.88 122.472 80.616 122.36C81.368 122.232 82.208 122.088 83.136 121.928C84.08 121.768 85.056 121.592 86.064 121.4C87.072 121.192 88.064 121 89.04 120.824C90.032 120.632 90.96 120.448 91.824 120.272C92.704 120.096 93.464 119.944 94.104 119.816C94.744 119.672 95.216 119.568 95.52 119.504C95.872 119.408 96.192 119.32 96.48 119.24C96.768 119.16 97.016 119.056 97.224 118.928L99.528 120.728ZM107.784 115.76C108.2 116.048 108.688 116.4 109.248 116.816C109.808 117.232 110.384 117.688 110.976 118.184C111.584 118.664 112.152 119.136 112.68 119.6C113.208 120.064 113.64 120.48 113.976 120.848L111.528 123.344C111.224 123.008 110.824 122.608 110.328 122.144C109.832 121.68 109.296 121.2 108.72 120.704C108.144 120.208 107.576 119.736 107.016 119.288C106.456 118.84 105.96 118.464 105.528 118.16L107.784 115.76ZM104.784 131.744C106.032 131.568 107.208 131.32 108.312 131C109.416 130.68 110.44 130.312 111.384 129.896C112.328 129.48 113.192 129.048 113.976 128.6C115.336 127.784 116.584 126.856 117.72 125.816C118.856 124.776 119.848 123.696 120.696 122.576C121.544 121.44 122.216 120.336 122.712 119.264L124.584 122.648C123.976 123.72 123.224 124.792 122.328 125.864C121.448 126.936 120.448 127.96 119.328 128.936C118.208 129.896 117 130.76 115.704 131.528C114.888 132.024 114.008 132.496 113.064 132.944C112.12 133.376 111.12 133.76 110.064 134.096C109.024 134.448 107.936 134.72 106.8 134.912L104.784 131.744ZM133.536 131.696C133.536 131.392 133.536 130.896 133.536 130.208C133.536 129.504 133.536 128.696 133.536 127.784C133.536 126.856 133.536 125.888 133.536 124.88C133.536 123.872 133.536 122.904 133.536 121.976C133.536 121.032 133.536 120.2 133.536 119.48C133.536 118.76 133.536 118.232 133.536 117.896C133.536 117.48 133.512 117 133.464 116.456C133.432 115.912 133.376 115.432 133.296 115.016H137.04C136.992 115.432 136.944 115.896 136.896 116.408C136.848 116.904 136.824 117.4 136.824 117.896C136.824 118.344 136.824 118.952 136.824 119.72C136.824 120.488 136.824 121.344 136.824 122.288C136.824 123.216 136.824 124.168 136.824 125.144C136.824 126.104 136.824 127.032 136.824 127.928C136.824 128.824 136.824 129.608 136.824 130.28C136.824 130.936 136.824 131.408 136.824 131.696C136.824 131.92 136.832 132.24 136.848 132.656C136.864 133.056 136.896 133.472 136.944 133.904C136.992 134.336 137.024 134.72 137.04 135.056H133.296C133.36 134.576 133.416 134.016 133.464 133.376C133.512 132.736 133.536 132.176 133.536 131.696ZM136.104 121.232C136.904 121.44 137.8 121.712 138.792 122.048C139.784 122.368 140.784 122.712 141.792 123.08C142.8 123.448 143.744 123.816 144.624 124.184C145.52 124.536 146.264 124.864 146.856 125.168L145.488 128.48C144.816 128.128 144.072 127.776 143.256 127.424C142.44 127.056 141.608 126.704 140.76 126.368C139.928 126.032 139.104 125.72 138.288 125.432C137.488 125.144 136.76 124.888 136.104 124.664V121.232Z" fill="white"/>
<path d="M43.824 38.088H45.76V42.808C45.76 43.5013 45.7387 44.264 45.696 45.096C45.664 45.9173 45.5893 46.7653 45.472 47.64C45.3547 48.504 45.184 49.3467 44.96 50.168C44.736 50.9787 44.4373 51.72 44.064 52.392C43.9467 52.2853 43.776 52.168 43.552 52.04C43.3387 51.912 43.12 51.7893 42.896 51.672C42.6827 51.5653 42.496 51.4853 42.336 51.432C42.6773 50.8133 42.944 50.1413 43.136 49.416C43.3387 48.68 43.488 47.928 43.584 47.16C43.68 46.3813 43.744 45.624 43.776 44.888C43.808 44.1413 43.824 43.4533 43.824 42.824V38.088ZM45.264 38.088H56.4V42.408H45.264V40.776H54.464V39.704H45.264V38.088ZM49.648 43.512H51.536V49.656C51.536 49.976 51.5893 50.184 51.696 50.28C51.8027 50.3653 52.0533 50.408 52.448 50.408C52.512 50.408 52.6187 50.408 52.768 50.408C52.9173 50.408 53.088 50.408 53.28 50.408C53.472 50.408 53.664 50.408 53.856 50.408C54.048 50.408 54.224 50.408 54.384 50.408C54.544 50.408 54.6667 50.408 54.752 50.408C54.9653 50.408 55.1253 50.3707 55.232 50.296C55.3493 50.2213 55.4293 50.0827 55.472 49.88C55.5253 49.6667 55.568 49.3573 55.6 48.952C55.8133 49.0907 56.08 49.2293 56.4 49.368C56.7307 49.496 57.0293 49.592 57.296 49.656C57.232 50.2853 57.1147 50.7813 56.944 51.144C56.7733 51.5067 56.528 51.7573 56.208 51.896C55.888 52.0453 55.4613 52.12 54.928 52.12C54.8427 52.12 54.704 52.12 54.512 52.12C54.3307 52.12 54.1227 52.12 53.888 52.12C53.664 52.12 53.44 52.12 53.216 52.12C52.992 52.12 52.7893 52.12 52.608 52.12C52.4373 52.12 52.304 52.12 52.208 52.12C51.536 52.12 51.0133 52.0453 50.64 51.896C50.2667 51.7573 50.0053 51.5067 49.856 51.144C49.7173 50.792 49.648 50.3013 49.648 49.672V43.512ZM53.296 42.12L54.816 43.352C54.08 43.608 53.2587 43.8373 52.352 44.04C51.4453 44.2427 50.5173 44.4187 49.568 44.568C48.6187 44.7067 47.6907 44.824 46.784 44.92C46.7413 44.7387 46.672 44.5093 46.576 44.232C46.48 43.9547 46.384 43.7307 46.288 43.56C46.9173 43.496 47.5573 43.4107 48.208 43.304C48.8693 43.1973 49.5093 43.0853 50.128 42.968C50.7573 42.84 51.3387 42.7067 51.872 42.568C52.416 42.4187 52.8907 42.2693 53.296 42.12ZM46.192 45.864L55.664 44.488L55.952 46.024L46.496 47.432L46.192 45.864ZM45.84 48.424L56.72 46.84L57.008 48.36L46.128 50.008L45.84 48.424ZM62.992 39.16H73.248V40.696H62.992V39.16ZM66.992 39.912L69.2 40.04C69.0507 40.4667 68.8747 40.8827 68.672 41.288C68.48 41.6933 68.3093 42.0453 68.16 42.344L66.608 42.072C66.6933 41.7413 66.7733 41.3787 66.848 40.984C66.9227 40.5787 66.9707 40.2213 66.992 39.912ZM69.696 37.4L71.632 37.816C71.4187 38.1573 71.2053 38.488 70.992 38.808C70.7787 39.128 70.5867 39.4053 70.416 39.64L68.8 39.256C68.9067 39.0747 69.0133 38.8773 69.12 38.664C69.2373 38.44 69.344 38.2213 69.44 38.008C69.5467 37.784 69.632 37.5813 69.696 37.4ZM64.496 37.976L66 37.416C66.2133 37.6613 66.4213 37.9387 66.624 38.248C66.8373 38.5573 66.9813 38.8347 67.056 39.08L65.456 39.704C65.3813 39.4693 65.2533 39.1867 65.072 38.856C64.8907 38.5253 64.6987 38.232 64.496 37.976ZM62.432 43.64V49.544H60.56V45.416H58.704V43.64H62.432ZM62.432 48.712C62.7627 49.2347 63.2267 49.6187 63.824 49.864C64.4213 50.1093 65.136 50.248 65.968 50.28C66.4373 50.3013 66.992 50.3173 67.632 50.328C68.2827 50.328 68.9653 50.3227 69.68 50.312C70.3947 50.3013 71.0933 50.28 71.776 50.248C72.4693 50.216 73.0827 50.1787 73.616 50.136C73.552 50.2853 73.4773 50.4773 73.392 50.712C73.3067 50.9467 73.2267 51.1867 73.152 51.432C73.088 51.6773 73.04 51.896 73.008 52.088C72.528 52.12 71.9787 52.1413 71.36 52.152C70.7413 52.1733 70.1067 52.184 69.456 52.184C68.8053 52.1947 68.176 52.1947 67.568 52.184C66.96 52.1733 66.416 52.1573 65.936 52.136C64.9547 52.0933 64.1173 51.9387 63.424 51.672C62.7307 51.416 62.1173 50.9787 61.584 50.36C61.232 50.6587 60.8693 50.968 60.496 51.288C60.1333 51.608 59.7333 51.9387 59.296 52.28L58.352 50.28C58.7253 50.056 59.1147 49.8107 59.52 49.544C59.9253 49.2773 60.3147 49 60.688 48.712H62.432ZM58.72 38.936L60.144 37.784C60.4747 37.9973 60.8107 38.248 61.152 38.536C61.4933 38.8133 61.8133 39.1013 62.112 39.4C62.4107 39.688 62.6507 39.9547 62.832 40.2L61.312 41.48C61.152 41.224 60.928 40.9467 60.64 40.648C60.3627 40.3493 60.0533 40.0507 59.712 39.752C59.3707 39.4427 59.04 39.1707 58.72 38.936ZM65.904 45.048V45.896H70.256V45.048H65.904ZM65.904 47.176V48.008H70.256V47.176H65.904ZM65.904 42.936V43.768H70.256V42.936H65.904ZM64.096 41.544H72.16V49.4H64.096V41.544ZM86.176 37.816C86.3147 38.008 86.464 38.2373 86.624 38.504C86.784 38.7707 86.9333 39.0373 87.072 39.304C87.2213 39.5707 87.3493 39.8053 87.456 40.008L86.16 40.568C86 40.2373 85.8027 39.864 85.568 39.448C85.344 39.0213 85.1253 38.6533 84.912 38.344L86.176 37.816ZM88.064 37.096C88.2133 37.2987 88.368 37.5387 88.528 37.816C88.688 38.0827 88.8427 38.3493 88.992 38.616C89.152 38.872 89.2747 39.0907 89.36 39.272L88.096 39.832C87.9253 39.4907 87.7227 39.112 87.488 38.696C87.2533 38.28 87.024 37.9227 86.8 37.624L88.064 37.096ZM79.584 39.864C79.5413 39.6293 79.4933 39.416 79.44 39.224C79.3867 39.032 79.328 38.84 79.264 38.648L81.52 38.28C81.5413 38.44 81.5627 38.6373 81.584 38.872C81.616 39.1067 81.6533 39.32 81.696 39.512C81.7173 39.672 81.7653 39.9547 81.84 40.36C81.9147 40.7653 82.0053 41.256 82.112 41.832C82.2187 42.408 82.336 43.0267 82.464 43.688C82.6027 44.3493 82.736 45.0213 82.864 45.704C82.992 46.3867 83.1147 47.032 83.232 47.64C83.36 48.248 83.4667 48.7867 83.552 49.256C83.648 49.7253 83.7173 50.072 83.76 50.296C83.8133 50.5307 83.8773 50.7867 83.952 51.064C84.0267 51.3413 84.1013 51.608 84.176 51.864L81.872 52.28C81.8293 51.9813 81.792 51.6933 81.76 51.416C81.7387 51.1493 81.7013 50.8987 81.648 50.664C81.616 50.4507 81.5573 50.12 81.472 49.672C81.3973 49.224 81.3013 48.7013 81.184 48.104C81.0667 47.5067 80.944 46.8773 80.816 46.216C80.688 45.544 80.56 44.872 80.432 44.2C80.304 43.528 80.1813 42.8987 80.064 42.312C79.9573 41.7253 79.8613 41.2187 79.776 40.792C79.6907 40.3547 79.6267 40.0453 79.584 39.864ZM75.216 41.896C75.472 41.8747 75.7227 41.8587 75.968 41.848C76.2133 41.8267 76.4587 41.8053 76.704 41.784C76.9387 41.752 77.2693 41.7093 77.696 41.656C78.1227 41.592 78.6133 41.5173 79.168 41.432C79.7227 41.3467 80.2933 41.2613 80.88 41.176C81.4773 41.08 82.0533 40.9893 82.608 40.904C83.1627 40.808 83.6533 40.7227 84.08 40.648C84.5173 40.5733 84.8587 40.5147 85.104 40.472C85.36 40.4187 85.6267 40.3653 85.904 40.312C86.1813 40.248 86.416 40.184 86.608 40.12L86.992 42.232C86.8213 42.2427 86.592 42.2693 86.304 42.312C86.016 42.3547 85.7547 42.392 85.52 42.424C85.232 42.4667 84.8533 42.5253 84.384 42.6C83.9253 42.664 83.4133 42.744 82.848 42.84C82.2827 42.9253 81.7067 43.016 81.12 43.112C80.5333 43.208 79.9733 43.2987 79.44 43.384C78.9067 43.4693 78.4373 43.5493 78.032 43.624C77.6267 43.688 77.3227 43.736 77.12 43.768C76.864 43.8213 76.624 43.8747 76.4 43.928C76.176 43.9707 75.9253 44.0293 75.648 44.104L75.216 41.896ZM75.232 46.6C75.4453 46.5893 75.712 46.568 76.032 46.536C76.3627 46.4933 76.6507 46.456 76.896 46.424C77.184 46.3813 77.568 46.3227 78.048 46.248C78.528 46.1733 79.0667 46.088 79.664 45.992C80.272 45.896 80.896 45.7947 81.536 45.688C82.176 45.5813 82.8 45.48 83.408 45.384C84.016 45.2773 84.5707 45.1813 85.072 45.096C85.5733 45.0107 85.9787 44.9413 86.288 44.888C86.5973 44.824 86.8907 44.76 87.168 44.696C87.456 44.632 87.7067 44.568 87.92 44.504L88.352 46.616C88.1387 46.6267 87.8773 46.6587 87.568 46.712C87.2693 46.7547 86.9653 46.8027 86.656 46.856C86.3147 46.9093 85.888 46.9787 85.376 47.064C84.864 47.1387 84.2987 47.2293 83.68 47.336C83.072 47.432 82.448 47.5333 81.808 47.64C81.168 47.736 80.5547 47.8373 79.968 47.944C79.3813 48.04 78.8533 48.1307 78.384 48.216C77.9147 48.2907 77.5467 48.3547 77.28 48.408C76.9387 48.472 76.6293 48.5307 76.352 48.584C76.0853 48.6267 75.8613 48.6747 75.68 48.728L75.232 46.6ZM104.224 40.344C104.149 40.4933 104.08 40.6747 104.016 40.888C103.963 41.0907 103.915 41.2827 103.872 41.464C103.787 41.848 103.675 42.2853 103.536 42.776C103.397 43.2667 103.232 43.7733 103.04 44.296C102.848 44.8187 102.619 45.336 102.352 45.848C102.096 46.36 101.803 46.84 101.472 47.288C100.992 47.9173 100.432 48.5147 99.792 49.08C99.152 49.6347 98.4373 50.136 97.648 50.584C96.8587 51.0213 95.9893 51.3947 95.04 51.704L93.296 49.8C94.352 49.544 95.264 49.2293 96.032 48.856C96.8107 48.472 97.488 48.0453 98.064 47.576C98.64 47.096 99.1413 46.584 99.568 46.04C99.92 45.592 100.219 45.1067 100.464 44.584C100.72 44.0613 100.928 43.5333 101.088 43C101.259 42.4667 101.376 41.976 101.44 41.528C101.28 41.528 101.013 41.528 100.64 41.528C100.277 41.528 99.8453 41.528 99.344 41.528C98.8533 41.528 98.336 41.528 97.792 41.528C97.2587 41.528 96.7413 41.528 96.24 41.528C95.7387 41.528 95.2853 41.528 94.88 41.528C94.4853 41.528 94.1867 41.528 93.984 41.528C93.6213 41.528 93.264 41.5333 92.912 41.544C92.5707 41.5547 92.2933 41.5707 92.08 41.592V39.336C92.2507 39.3467 92.448 39.3627 92.672 39.384C92.896 39.4053 93.1307 39.4267 93.376 39.448C93.6213 39.4587 93.8293 39.464 94 39.464C94.16 39.464 94.4 39.464 94.72 39.464C95.04 39.464 95.408 39.464 95.824 39.464C96.24 39.464 96.672 39.464 97.12 39.464C97.5787 39.464 98.032 39.464 98.48 39.464C98.928 39.464 99.3493 39.464 99.744 39.464C100.139 39.464 100.48 39.464 100.768 39.464C101.067 39.464 101.275 39.464 101.392 39.464C101.552 39.464 101.749 39.4587 101.984 39.448C102.219 39.4267 102.437 39.3893 102.64 39.336L104.224 40.344ZM111.024 49.464C111.024 49.2613 111.024 48.9307 111.024 48.472C111.024 48.0027 111.024 47.464 111.024 46.856C111.024 46.2373 111.024 45.592 111.024 44.92C111.024 44.248 111.024 43.6027 111.024 42.984C111.024 42.3547 111.024 41.8 111.024 41.32C111.024 40.84 111.024 40.488 111.024 40.264C111.024 39.9867 111.008 39.6667 110.976 39.304C110.955 38.9413 110.917 38.6213 110.864 38.344H113.36C113.328 38.6213 113.296 38.9307 113.264 39.272C113.232 39.6027 113.216 39.9333 113.216 40.264C113.216 40.5627 113.216 40.968 113.216 41.48C113.216 41.992 113.216 42.5627 113.216 43.192C113.216 43.8107 113.216 44.4453 113.216 45.096C113.216 45.736 113.216 46.3547 113.216 46.952C113.216 47.5493 113.216 48.072 113.216 48.52C113.216 48.9573 113.216 49.272 113.216 49.464C113.216 49.6133 113.221 49.8267 113.232 50.104C113.243 50.3707 113.264 50.648 113.296 50.936C113.328 51.224 113.349 51.48 113.36 51.704H110.864C110.907 51.384 110.944 51.0107 110.976 50.584C111.008 50.1573 111.024 49.784 111.024 49.464ZM112.736 42.488C113.269 42.6267 113.867 42.808 114.528 43.032C115.189 43.2453 115.856 43.4747 116.528 43.72C117.2 43.9653 117.829 44.2107 118.416 44.456C119.013 44.6907 119.509 44.9093 119.904 45.112L118.992 47.32C118.544 47.0853 118.048 46.8507 117.504 46.616C116.96 46.3707 116.405 46.136 115.84 45.912C115.285 45.688 114.736 45.48 114.192 45.288C113.659 45.096 113.173 44.9253 112.736 44.776V42.488ZM129.776 38.168C129.723 38.456 129.637 38.8293 129.52 39.288C129.403 39.7467 129.232 40.264 129.008 40.84C128.837 41.2347 128.64 41.6453 128.416 42.072C128.203 42.488 127.984 42.8613 127.76 43.192C127.899 43.128 128.075 43.0747 128.288 43.032C128.501 42.9787 128.72 42.9413 128.944 42.92C129.179 42.888 129.387 42.872 129.568 42.872C130.24 42.872 130.795 43.064 131.232 43.448C131.68 43.832 131.904 44.4027 131.904 45.16C131.904 45.3733 131.904 45.6347 131.904 45.944C131.915 46.2533 131.925 46.5787 131.936 46.92C131.947 47.2507 131.957 47.576 131.968 47.896C131.979 48.216 131.984 48.504 131.984 48.76H130.064C130.085 48.5787 130.096 48.3653 130.096 48.12C130.107 47.864 130.112 47.5973 130.112 47.32C130.123 47.0427 130.128 46.776 130.128 46.52C130.139 46.2533 130.144 46.0133 130.144 45.8C130.144 45.288 130.005 44.936 129.728 44.744C129.461 44.5413 129.163 44.44 128.832 44.44C128.384 44.44 127.931 44.552 127.472 44.776C127.024 44.9893 126.645 45.2453 126.336 45.544C126.101 45.7787 125.861 46.04 125.616 46.328C125.381 46.616 125.125 46.9413 124.848 47.304L123.136 46.024C123.829 45.384 124.427 44.7653 124.928 44.168C125.44 43.5707 125.872 42.9787 126.224 42.392C126.576 41.8053 126.864 41.2187 127.088 40.632C127.248 40.2053 127.376 39.7627 127.472 39.304C127.579 38.8347 127.643 38.3973 127.664 37.992L129.776 38.168ZM123.76 39.64C124.165 39.704 124.635 39.752 125.168 39.784C125.701 39.816 126.171 39.832 126.576 39.832C127.28 39.832 128.048 39.816 128.88 39.784C129.723 39.752 130.576 39.6987 131.44 39.624C132.304 39.5387 133.125 39.432 133.904 39.304L133.888 41.16C133.323 41.2347 132.709 41.304 132.048 41.368C131.397 41.4213 130.731 41.4693 130.048 41.512C129.376 41.544 128.731 41.5707 128.112 41.592C127.493 41.6027 126.944 41.608 126.464 41.608C126.251 41.608 125.984 41.608 125.664 41.608C125.355 41.5973 125.035 41.5867 124.704 41.576C124.373 41.5547 124.059 41.5333 123.76 41.512V39.64ZM136.432 44.184C136.261 44.2373 136.059 44.3067 135.824 44.392C135.6 44.4667 135.371 44.5467 135.136 44.632C134.912 44.7067 134.709 44.7813 134.528 44.856C134.016 45.0587 133.408 45.304 132.704 45.592C132.011 45.88 131.285 46.216 130.528 46.6C130.048 46.856 129.643 47.1067 129.312 47.352C128.981 47.5973 128.731 47.848 128.56 48.104C128.389 48.3493 128.304 48.6213 128.304 48.92C128.304 49.144 128.352 49.3307 128.448 49.48C128.544 49.6187 128.688 49.7307 128.88 49.816C129.072 49.9013 129.312 49.96 129.6 49.992C129.888 50.024 130.229 50.04 130.624 50.04C131.307 50.04 132.059 50.0027 132.88 49.928C133.701 49.8427 134.464 49.7307 135.168 49.592L135.104 51.656C134.763 51.6987 134.331 51.7413 133.808 51.784C133.285 51.8373 132.741 51.8747 132.176 51.896C131.621 51.9173 131.088 51.928 130.576 51.928C129.744 51.928 128.997 51.848 128.336 51.688C127.675 51.528 127.152 51.256 126.768 50.872C126.395 50.4773 126.208 49.9387 126.208 49.256C126.208 48.7013 126.331 48.2 126.576 47.752C126.832 47.304 127.168 46.8987 127.584 46.536C128 46.1733 128.453 45.848 128.944 45.56C129.445 45.2613 129.936 44.9893 130.416 44.744C130.907 44.488 131.349 44.2693 131.744 44.088C132.139 43.9067 132.507 43.7467 132.848 43.608C133.2 43.4587 133.536 43.3093 133.856 43.16C134.165 43.0213 134.464 42.888 134.752 42.76C135.04 42.6213 135.333 42.4773 135.632 42.328L136.432 44.184Z" fill="white"/>
</svg>
