<svg width="891" height="97" viewBox="0 0 891 97" fill="none" xmlns="http://www.w3.org/2000/svg">
<mask id="path-1-inside-1_26_1521" fill="white">
<path fill-rule="evenodd" clip-rule="evenodd" d="M3.51953 30.7372L3.52455 30.7256C5.94183 25.1408 9.27982 20.1753 13.5321 15.8396C17.7907 11.4975 22.7222 8.11161 28.3142 5.68949C33.9405 3.17219 39.9767 1.92 46.4 1.92C52.7473 1.92 58.7431 3.17375 64.3661 5.6896C69.9543 8.11011 74.9203 11.4919 79.2542 15.8258C83.5911 20.1627 86.9746 25.1326 89.3954 30.7256C91.827 36.3433 93.04 42.2944 93.04 48.56C93.04 54.9781 91.8299 61.0101 89.3954 66.6345C86.9742 72.2283 83.589 77.1613 79.2472 81.4213C74.9834 85.6832 70.0106 89.0233 64.3446 91.4397L64.3379 91.4425L64.3312 91.4453C58.7156 93.7922 52.7322 94.96 46.4 94.96C39.9915 94.96 33.9676 93.7935 28.3488 91.4453C22.7586 89.1091 17.8242 85.8489 13.5599 81.6682L13.5528 81.6612L13.5458 81.6542C9.28537 77.3938 5.94341 72.4628 3.52456 66.8745L3.51745 66.858L3.51064 66.8415C1.16524 61.1455 0 55.0452 0 48.56C0 42.3041 1.1692 36.3612 3.51466 30.7488L3.51953 30.7372ZM63.56 7.52C58.2 5.12 52.48 3.92 46.4 3.92C40.24 3.92 34.48 5.12 29.12 7.52C23.76 9.84 19.04 13.08 14.96 17.24C10.88 21.4 7.68 26.16 5.36 31.52C3.12 36.88 2 42.56 2 48.56C2 54.8 3.12 60.64 5.36 66.08C7.68 71.44 10.88 76.16 14.96 80.24C19.04 84.24 23.76 87.36 29.12 89.6C34.48 91.84 40.24 92.96 46.4 92.96C52.48 92.96 58.2 91.84 63.56 89.6C69 87.28 73.76 84.08 77.84 80C82 75.92 85.24 71.2 87.56 65.84C89.88 60.48 91.04 54.72 91.04 48.56C91.04 42.56 89.88 36.88 87.56 31.52C85.24 26.16 82 21.4 77.84 17.24C73.68 13.08 68.92 9.84 63.56 7.52ZM67.2865 69.9653C69.9877 67.1892 72.0872 64.0042 73.5908 60.3981C75.0856 56.7335 75.84 52.7938 75.84 48.56C75.84 44.3366 75.0496 40.4518 73.4877 36.8816L73.4777 36.8588L73.4683 36.8358C71.9629 33.1475 69.8628 29.9259 67.1665 27.1547L67.1567 27.1446L67.1471 27.1344C64.5366 24.3748 61.44 22.208 57.8384 20.6323L57.8312 20.6292L57.8241 20.626C54.3334 19.0663 50.5729 18.28 46.52 18.28C42.2962 18.28 38.4573 19.0705 34.9759 20.626C31.4479 22.2024 28.3373 24.3758 25.6335 27.1547C22.9411 29.9218 20.8433 33.138 19.3384 36.8195C17.9161 40.4935 17.2 44.4018 17.2 48.56C17.2 52.7872 17.9521 56.7214 19.4423 60.3812C21.0247 63.9909 23.1642 67.1784 25.864 69.9555C28.5612 72.6504 31.6668 74.7849 35.1925 76.3635C38.7683 77.8498 42.6176 78.6 46.76 78.6C50.8202 78.6 54.5869 77.8507 58.0807 76.3666C61.6081 74.7881 64.6719 72.6546 67.2865 69.9653ZM58.88 78.2C55.12 79.8 51.08 80.6 46.76 80.6C42.36 80.6 38.24 79.8 34.4 78.2C30.64 76.52 27.32 74.24 24.44 71.36C21.56 68.4 19.28 65 17.6 61.16C16 57.24 15.2 53.04 15.2 48.56C15.2 44.16 15.96 40 17.48 36.08C19.08 32.16 21.32 28.72 24.2 25.76C27.08 22.8 30.4 20.48 34.16 18.8C37.92 17.12 42.04 16.28 46.52 16.28C50.84 16.28 54.88 17.12 58.64 18.8C62.48 20.48 65.8 22.8 68.6 25.76C71.48 28.72 73.72 32.16 75.32 36.08C77 39.92 77.84 44.08 77.84 48.56C77.84 53.04 77.04 57.24 75.44 61.16C73.84 65 71.6 68.4 68.72 71.36C65.92 74.24 62.64 76.52 58.88 78.2ZM218.909 97L158.416 36.9395L158.745 94H141.773V0.120007H145.206L205.587 60.938L205.366 2.88001H222.093V97H218.909ZM207.605 65.8099L144.373 2.12001H143.773V92H156.733L156.388 32.1078L219.733 95H220.093V4.88001H207.373L207.605 65.8099ZM274.391 30.7372L274.396 30.7256C276.814 25.1408 280.152 20.1753 284.404 15.8396C288.663 11.4975 293.594 8.11169 299.186 5.68957C304.812 3.17219 310.849 1.92 317.272 1.92C323.619 1.92 329.615 3.17376 335.238 5.68962C340.826 8.11013 345.792 11.4919 350.126 15.8258C354.463 20.1627 357.846 25.1326 360.267 30.7256C362.699 36.3433 363.912 42.2944 363.912 48.56C363.912 54.9781 362.702 61.0101 360.267 66.6345C357.846 72.2283 354.461 77.1614 350.119 81.4213C345.855 85.6833 340.883 89.0233 335.216 91.4397L335.21 91.4425L335.203 91.4453C329.587 93.7922 323.604 94.96 317.272 94.96C310.863 94.96 304.84 93.7935 299.221 91.4453C293.63 89.1091 288.696 85.8489 284.432 81.6682L284.425 81.6612L284.418 81.6542C280.157 77.3938 276.815 72.4628 274.396 66.8745L274.389 66.858L274.383 66.8415C272.037 61.1455 270.872 55.0452 270.872 48.56C270.872 42.3041 272.041 36.3612 274.387 30.7488L274.391 30.7372ZM348.712 80C352.872 75.92 356.112 71.2 358.432 65.84C360.752 60.48 361.912 54.72 361.912 48.56C361.912 42.56 360.752 36.88 358.432 31.52C356.112 26.16 352.872 21.4 348.712 17.24C344.552 13.08 339.792 9.84 334.432 7.52C329.072 5.12 323.352 3.92 317.272 3.92C311.112 3.92 305.352 5.12 299.992 7.52C294.632 9.84 289.912 13.08 285.832 17.24C281.752 21.4 278.552 26.16 276.232 31.52C273.992 36.88 272.872 42.56 272.872 48.56C272.872 54.8 273.992 60.64 276.232 66.08C278.552 71.44 281.752 76.16 285.832 80.24C289.912 84.24 294.632 87.36 299.992 89.6C305.352 91.84 311.112 92.96 317.272 92.96C323.352 92.96 329.072 91.84 334.432 89.6C339.872 87.28 344.632 84.08 348.712 80ZM338.158 69.9653C340.86 67.1885 342.96 64.0027 344.464 60.3956C345.958 56.7317 346.712 52.7928 346.712 48.56C346.712 44.3366 345.922 40.4518 344.36 36.8816L344.35 36.8588L344.34 36.8358C342.835 33.1475 340.735 29.9259 338.038 27.1547L338.029 27.1446L338.019 27.1344C335.409 24.3748 332.312 22.208 328.71 20.6323L328.703 20.6292L328.696 20.626C325.205 19.0663 321.445 18.28 317.392 18.28C313.168 18.28 309.329 19.0705 305.848 20.626C302.32 22.2024 299.209 24.3758 296.505 27.1547C293.813 29.9217 291.715 33.1379 290.21 36.8192C288.788 40.4933 288.072 44.4018 288.072 48.56C288.072 52.7872 288.824 56.7213 290.314 60.3811C291.896 63.9907 294.036 67.1781 296.735 69.9551C299.433 72.6501 302.538 74.7847 306.064 76.3634C309.64 77.8497 313.489 78.6 317.632 78.6C321.692 78.6 325.459 77.8507 328.952 76.3666C332.48 74.7882 335.544 72.6546 338.158 69.9653ZM329.752 78.2C325.992 79.8 321.952 80.6 317.632 80.6C313.232 80.6 309.112 79.8 305.272 78.2C301.512 76.52 298.192 74.24 295.312 71.36C292.432 68.4 290.152 65 288.472 61.16C286.872 57.24 286.072 53.04 286.072 48.56C286.072 44.16 286.832 40 288.352 36.08C289.952 32.16 292.192 28.72 295.072 25.76C297.952 22.8 301.272 20.48 305.032 18.8C308.792 17.12 312.912 16.28 317.392 16.28C321.712 16.28 325.752 17.12 329.512 18.8C333.352 20.48 336.672 22.8 339.472 25.76C342.352 28.72 344.592 32.16 346.192 36.08C347.872 39.92 348.712 44.08 348.712 48.56C348.712 53.04 347.912 57.24 346.312 61.16C344.712 65 342.472 68.4 339.592 71.36C336.792 74.24 333.512 76.52 329.752 78.2ZM412.645 94V0H415.802L457.928 59.6973L500.617 0H503.885V94H487.165V45.0003L458.881 85H456.581L429.005 46.7171V94H412.645ZM427.005 40.5187L457.605 83H457.845L489.165 38.7079V92H501.885V2H501.645L457.917 63.1508L414.765 2H414.645V92H427.005V40.5187ZM557.925 2.88001H574.765V94H557.925V2.88001ZM697.522 86.0871L696.124 87.0481C694.729 88.007 692.711 89.1358 690.125 90.4289L690.113 90.4347L690.102 90.4403C687.474 91.7118 684.384 92.7924 680.851 93.6963C677.289 94.6287 673.387 95.0421 669.159 94.9598C662.139 94.8763 655.758 93.6357 650.046 91.1997L650.036 91.1955C644.442 88.7741 639.652 85.4611 635.693 81.2498L635.687 81.2426L635.68 81.2354C631.753 76.9747 628.703 72.1266 626.534 66.7028L626.527 66.6857L626.52 66.6685C624.43 61.1512 623.391 55.3102 623.391 49.16C623.391 42.3901 624.464 36.1474 626.639 30.4548C628.807 24.701 631.904 19.6716 635.934 15.3893L635.941 15.3818L635.948 15.3744C640.053 11.1019 644.835 7.7886 650.279 5.44318L650.29 5.43881C655.838 3.08511 661.866 1.92 668.351 1.92C673.889 1.92 678.947 2.66384 683.503 4.18264C687.94 5.66156 691.743 7.40776 694.879 9.44208L696.282 10.3523L689.641 26.1639L687.615 24.7664C685.439 23.2655 682.689 21.8075 679.338 20.4049L679.312 20.3939L679.286 20.3822C676.217 18.9935 672.743 18.28 668.831 18.28C665.035 18.28 661.438 19.0595 658.021 20.6194L658.012 20.6236L658.003 20.6276C654.653 22.1164 651.669 24.239 649.045 27.0133C646.506 29.7017 644.476 32.8885 642.962 36.5958L642.96 36.6025L642.957 36.6092C641.468 40.183 640.711 44.1185 640.711 48.44C640.711 52.8707 641.398 56.9144 642.748 60.5904C644.102 64.2773 646.008 67.4445 648.454 70.1169C650.977 72.7854 653.984 74.866 657.494 76.3597C660.971 77.8392 664.938 78.6 669.431 78.6C673.712 78.6 677.368 77.9498 680.44 76.7061L680.448 76.7031L680.455 76.7001C683.763 75.3924 686.369 73.9254 688.327 72.3295L690.314 70.7108L697.522 86.0871ZM646.991 71.48C644.351 68.6 642.311 65.2 640.871 61.28C639.431 57.36 638.711 53.08 638.711 48.44C638.711 43.88 639.511 39.68 641.111 35.84C642.711 31.92 644.871 28.52 647.591 25.64C650.391 22.68 653.591 20.4 657.191 18.8C660.871 17.12 664.751 16.28 668.831 16.28C672.991 16.28 676.751 17.04 680.111 18.56C682.752 19.6657 685.063 20.8185 687.044 22.0184C687.643 22.3813 688.212 22.7485 688.751 23.12L693.791 11.12C690.831 9.2 687.191 7.52001 682.871 6.08001C678.551 4.64001 673.711 3.92 668.351 3.92C662.111 3.92 656.351 5.04 651.071 7.28C645.871 9.52 641.311 12.68 637.391 16.76C633.551 20.84 630.591 25.64 628.511 31.16C626.431 36.6 625.391 42.6 625.391 49.16C625.391 55.08 626.391 60.68 628.391 65.96C630.471 71.16 633.391 75.8 637.151 79.88C640.911 83.88 645.471 87.04 650.831 89.36C656.271 91.68 662.391 92.88 669.191 92.96C673.271 93.04 676.991 92.64 680.351 91.76C683.791 90.88 686.751 89.84 689.231 88.64C691.791 87.36 693.711 86.28 694.991 85.4L689.591 73.88C689.08 74.2961 688.533 74.7011 687.951 75.0948C686.071 76.3665 683.817 77.5216 681.191 78.56C677.831 79.92 673.911 80.6 669.431 80.6C664.711 80.6 660.471 79.8 656.711 78.2C652.951 76.6 649.711 74.36 646.991 71.48ZM819.668 2.88001V94H802.828V56.44H762.668V94H745.828V2.88001H762.668V40.2H802.828V2.88001H819.668ZM804.828 42.2H760.668V4.88001H747.828V92H760.668V54.44H804.828V92H817.668V4.88001H804.828V42.2ZM873.764 2.88001H890.604V94H873.764V2.88001ZM559.925 4.88001V92H572.765V4.88001H559.925ZM875.764 4.88001V92H888.604V4.88001H875.764Z"/>
</mask>
<path fill-rule="evenodd" clip-rule="evenodd" d="M3.51953 30.7372L3.52455 30.7256C5.94183 25.1408 9.27982 20.1753 13.5321 15.8396C17.7907 11.4975 22.7222 8.11161 28.3142 5.68949C33.9405 3.17219 39.9767 1.92 46.4 1.92C52.7473 1.92 58.7431 3.17375 64.3661 5.6896C69.9543 8.11011 74.9203 11.4919 79.2542 15.8258C83.5911 20.1627 86.9746 25.1326 89.3954 30.7256C91.827 36.3433 93.04 42.2944 93.04 48.56C93.04 54.9781 91.8299 61.0101 89.3954 66.6345C86.9742 72.2283 83.589 77.1613 79.2472 81.4213C74.9834 85.6832 70.0106 89.0233 64.3446 91.4397L64.3379 91.4425L64.3312 91.4453C58.7156 93.7922 52.7322 94.96 46.4 94.96C39.9915 94.96 33.9676 93.7935 28.3488 91.4453C22.7586 89.1091 17.8242 85.8489 13.5599 81.6682L13.5528 81.6612L13.5458 81.6542C9.28537 77.3938 5.94341 72.4628 3.52456 66.8745L3.51745 66.858L3.51064 66.8415C1.16524 61.1455 0 55.0452 0 48.56C0 42.3041 1.1692 36.3612 3.51466 30.7488L3.51953 30.7372ZM63.56 7.52C58.2 5.12 52.48 3.92 46.4 3.92C40.24 3.92 34.48 5.12 29.12 7.52C23.76 9.84 19.04 13.08 14.96 17.24C10.88 21.4 7.68 26.16 5.36 31.52C3.12 36.88 2 42.56 2 48.56C2 54.8 3.12 60.64 5.36 66.08C7.68 71.44 10.88 76.16 14.96 80.24C19.04 84.24 23.76 87.36 29.12 89.6C34.48 91.84 40.24 92.96 46.4 92.96C52.48 92.96 58.2 91.84 63.56 89.6C69 87.28 73.76 84.08 77.84 80C82 75.92 85.24 71.2 87.56 65.84C89.88 60.48 91.04 54.72 91.04 48.56C91.04 42.56 89.88 36.88 87.56 31.52C85.24 26.16 82 21.4 77.84 17.24C73.68 13.08 68.92 9.84 63.56 7.52ZM67.2865 69.9653C69.9877 67.1892 72.0872 64.0042 73.5908 60.3981C75.0856 56.7335 75.84 52.7938 75.84 48.56C75.84 44.3366 75.0496 40.4518 73.4877 36.8816L73.4777 36.8588L73.4683 36.8358C71.9629 33.1475 69.8628 29.9259 67.1665 27.1547L67.1567 27.1446L67.1471 27.1344C64.5366 24.3748 61.44 22.208 57.8384 20.6323L57.8312 20.6292L57.8241 20.626C54.3334 19.0663 50.5729 18.28 46.52 18.28C42.2962 18.28 38.4573 19.0705 34.9759 20.626C31.4479 22.2024 28.3373 24.3758 25.6335 27.1547C22.9411 29.9218 20.8433 33.138 19.3384 36.8195C17.9161 40.4935 17.2 44.4018 17.2 48.56C17.2 52.7872 17.9521 56.7214 19.4423 60.3812C21.0247 63.9909 23.1642 67.1784 25.864 69.9555C28.5612 72.6504 31.6668 74.7849 35.1925 76.3635C38.7683 77.8498 42.6176 78.6 46.76 78.6C50.8202 78.6 54.5869 77.8507 58.0807 76.3666C61.6081 74.7881 64.6719 72.6546 67.2865 69.9653ZM58.88 78.2C55.12 79.8 51.08 80.6 46.76 80.6C42.36 80.6 38.24 79.8 34.4 78.2C30.64 76.52 27.32 74.24 24.44 71.36C21.56 68.4 19.28 65 17.6 61.16C16 57.24 15.2 53.04 15.2 48.56C15.2 44.16 15.96 40 17.48 36.08C19.08 32.16 21.32 28.72 24.2 25.76C27.08 22.8 30.4 20.48 34.16 18.8C37.92 17.12 42.04 16.28 46.52 16.28C50.84 16.28 54.88 17.12 58.64 18.8C62.48 20.48 65.8 22.8 68.6 25.76C71.48 28.72 73.72 32.16 75.32 36.08C77 39.92 77.84 44.08 77.84 48.56C77.84 53.04 77.04 57.24 75.44 61.16C73.84 65 71.6 68.4 68.72 71.36C65.92 74.24 62.64 76.52 58.88 78.2ZM218.909 97L158.416 36.9395L158.745 94H141.773V0.120007H145.206L205.587 60.938L205.366 2.88001H222.093V97H218.909ZM207.605 65.8099L144.373 2.12001H143.773V92H156.733L156.388 32.1078L219.733 95H220.093V4.88001H207.373L207.605 65.8099ZM274.391 30.7372L274.396 30.7256C276.814 25.1408 280.152 20.1753 284.404 15.8396C288.663 11.4975 293.594 8.11169 299.186 5.68957C304.812 3.17219 310.849 1.92 317.272 1.92C323.619 1.92 329.615 3.17376 335.238 5.68962C340.826 8.11013 345.792 11.4919 350.126 15.8258C354.463 20.1627 357.846 25.1326 360.267 30.7256C362.699 36.3433 363.912 42.2944 363.912 48.56C363.912 54.9781 362.702 61.0101 360.267 66.6345C357.846 72.2283 354.461 77.1614 350.119 81.4213C345.855 85.6833 340.883 89.0233 335.216 91.4397L335.21 91.4425L335.203 91.4453C329.587 93.7922 323.604 94.96 317.272 94.96C310.863 94.96 304.84 93.7935 299.221 91.4453C293.63 89.1091 288.696 85.8489 284.432 81.6682L284.425 81.6612L284.418 81.6542C280.157 77.3938 276.815 72.4628 274.396 66.8745L274.389 66.858L274.383 66.8415C272.037 61.1455 270.872 55.0452 270.872 48.56C270.872 42.3041 272.041 36.3612 274.387 30.7488L274.391 30.7372ZM348.712 80C352.872 75.92 356.112 71.2 358.432 65.84C360.752 60.48 361.912 54.72 361.912 48.56C361.912 42.56 360.752 36.88 358.432 31.52C356.112 26.16 352.872 21.4 348.712 17.24C344.552 13.08 339.792 9.84 334.432 7.52C329.072 5.12 323.352 3.92 317.272 3.92C311.112 3.92 305.352 5.12 299.992 7.52C294.632 9.84 289.912 13.08 285.832 17.24C281.752 21.4 278.552 26.16 276.232 31.52C273.992 36.88 272.872 42.56 272.872 48.56C272.872 54.8 273.992 60.64 276.232 66.08C278.552 71.44 281.752 76.16 285.832 80.24C289.912 84.24 294.632 87.36 299.992 89.6C305.352 91.84 311.112 92.96 317.272 92.96C323.352 92.96 329.072 91.84 334.432 89.6C339.872 87.28 344.632 84.08 348.712 80ZM338.158 69.9653C340.86 67.1885 342.96 64.0027 344.464 60.3956C345.958 56.7317 346.712 52.7928 346.712 48.56C346.712 44.3366 345.922 40.4518 344.36 36.8816L344.35 36.8588L344.34 36.8358C342.835 33.1475 340.735 29.9259 338.038 27.1547L338.029 27.1446L338.019 27.1344C335.409 24.3748 332.312 22.208 328.71 20.6323L328.703 20.6292L328.696 20.626C325.205 19.0663 321.445 18.28 317.392 18.28C313.168 18.28 309.329 19.0705 305.848 20.626C302.32 22.2024 299.209 24.3758 296.505 27.1547C293.813 29.9217 291.715 33.1379 290.21 36.8192C288.788 40.4933 288.072 44.4018 288.072 48.56C288.072 52.7872 288.824 56.7213 290.314 60.3811C291.896 63.9907 294.036 67.1781 296.735 69.9551C299.433 72.6501 302.538 74.7847 306.064 76.3634C309.64 77.8497 313.489 78.6 317.632 78.6C321.692 78.6 325.459 77.8507 328.952 76.3666C332.48 74.7882 335.544 72.6546 338.158 69.9653ZM329.752 78.2C325.992 79.8 321.952 80.6 317.632 80.6C313.232 80.6 309.112 79.8 305.272 78.2C301.512 76.52 298.192 74.24 295.312 71.36C292.432 68.4 290.152 65 288.472 61.16C286.872 57.24 286.072 53.04 286.072 48.56C286.072 44.16 286.832 40 288.352 36.08C289.952 32.16 292.192 28.72 295.072 25.76C297.952 22.8 301.272 20.48 305.032 18.8C308.792 17.12 312.912 16.28 317.392 16.28C321.712 16.28 325.752 17.12 329.512 18.8C333.352 20.48 336.672 22.8 339.472 25.76C342.352 28.72 344.592 32.16 346.192 36.08C347.872 39.92 348.712 44.08 348.712 48.56C348.712 53.04 347.912 57.24 346.312 61.16C344.712 65 342.472 68.4 339.592 71.36C336.792 74.24 333.512 76.52 329.752 78.2ZM412.645 94V0H415.802L457.928 59.6973L500.617 0H503.885V94H487.165V45.0003L458.881 85H456.581L429.005 46.7171V94H412.645ZM427.005 40.5187L457.605 83H457.845L489.165 38.7079V92H501.885V2H501.645L457.917 63.1508L414.765 2H414.645V92H427.005V40.5187ZM557.925 2.88001H574.765V94H557.925V2.88001ZM697.522 86.0871L696.124 87.0481C694.729 88.007 692.711 89.1358 690.125 90.4289L690.113 90.4347L690.102 90.4403C687.474 91.7118 684.384 92.7924 680.851 93.6963C677.289 94.6287 673.387 95.0421 669.159 94.9598C662.139 94.8763 655.758 93.6357 650.046 91.1997L650.036 91.1955C644.442 88.7741 639.652 85.4611 635.693 81.2498L635.687 81.2426L635.68 81.2354C631.753 76.9747 628.703 72.1266 626.534 66.7028L626.527 66.6857L626.52 66.6685C624.43 61.1512 623.391 55.3102 623.391 49.16C623.391 42.3901 624.464 36.1474 626.639 30.4548C628.807 24.701 631.904 19.6716 635.934 15.3893L635.941 15.3818L635.948 15.3744C640.053 11.1019 644.835 7.7886 650.279 5.44318L650.29 5.43881C655.838 3.08511 661.866 1.92 668.351 1.92C673.889 1.92 678.947 2.66384 683.503 4.18264C687.94 5.66156 691.743 7.40776 694.879 9.44208L696.282 10.3523L689.641 26.1639L687.615 24.7664C685.439 23.2655 682.689 21.8075 679.338 20.4049L679.312 20.3939L679.286 20.3822C676.217 18.9935 672.743 18.28 668.831 18.28C665.035 18.28 661.438 19.0595 658.021 20.6194L658.012 20.6236L658.003 20.6276C654.653 22.1164 651.669 24.239 649.045 27.0133C646.506 29.7017 644.476 32.8885 642.962 36.5958L642.96 36.6025L642.957 36.6092C641.468 40.183 640.711 44.1185 640.711 48.44C640.711 52.8707 641.398 56.9144 642.748 60.5904C644.102 64.2773 646.008 67.4445 648.454 70.1169C650.977 72.7854 653.984 74.866 657.494 76.3597C660.971 77.8392 664.938 78.6 669.431 78.6C673.712 78.6 677.368 77.9498 680.44 76.7061L680.448 76.7031L680.455 76.7001C683.763 75.3924 686.369 73.9254 688.327 72.3295L690.314 70.7108L697.522 86.0871ZM646.991 71.48C644.351 68.6 642.311 65.2 640.871 61.28C639.431 57.36 638.711 53.08 638.711 48.44C638.711 43.88 639.511 39.68 641.111 35.84C642.711 31.92 644.871 28.52 647.591 25.64C650.391 22.68 653.591 20.4 657.191 18.8C660.871 17.12 664.751 16.28 668.831 16.28C672.991 16.28 676.751 17.04 680.111 18.56C682.752 19.6657 685.063 20.8185 687.044 22.0184C687.643 22.3813 688.212 22.7485 688.751 23.12L693.791 11.12C690.831 9.2 687.191 7.52001 682.871 6.08001C678.551 4.64001 673.711 3.92 668.351 3.92C662.111 3.92 656.351 5.04 651.071 7.28C645.871 9.52 641.311 12.68 637.391 16.76C633.551 20.84 630.591 25.64 628.511 31.16C626.431 36.6 625.391 42.6 625.391 49.16C625.391 55.08 626.391 60.68 628.391 65.96C630.471 71.16 633.391 75.8 637.151 79.88C640.911 83.88 645.471 87.04 650.831 89.36C656.271 91.68 662.391 92.88 669.191 92.96C673.271 93.04 676.991 92.64 680.351 91.76C683.791 90.88 686.751 89.84 689.231 88.64C691.791 87.36 693.711 86.28 694.991 85.4L689.591 73.88C689.08 74.2961 688.533 74.7011 687.951 75.0948C686.071 76.3665 683.817 77.5216 681.191 78.56C677.831 79.92 673.911 80.6 669.431 80.6C664.711 80.6 660.471 79.8 656.711 78.2C652.951 76.6 649.711 74.36 646.991 71.48ZM819.668 2.88001V94H802.828V56.44H762.668V94H745.828V2.88001H762.668V40.2H802.828V2.88001H819.668ZM804.828 42.2H760.668V4.88001H747.828V92H760.668V54.44H804.828V92H817.668V4.88001H804.828V42.2ZM873.764 2.88001H890.604V94H873.764V2.88001ZM559.925 4.88001V92H572.765V4.88001H559.925ZM875.764 4.88001V92H888.604V4.88001H875.764Z" stroke="#9ED0E0" stroke-width="2" mask="url(#path-1-inside-1_26_1521)"/>
</svg>
