<svg width="520" height="158" viewBox="0 0 520 158" fill="none" xmlns="http://www.w3.org/2000/svg">
<g clip-path="url(#clip0_1156_1897)">
<g clip-path="url(#clip1_1156_1897)">
<rect width="520" height="82" fill="white"/>
<path d="M20.7226 69.59V57.7409H13.3515V69.59H7.89098V57.7409H0.196167V51.6891H7.89098V37.6415H0.196167V31.5897H7.89098V19.7407H13.3515V31.5897H20.7226V19.7407H26.1831V31.5897H33.9719V37.6415H26.1831V51.6891H33.9719V57.7409H26.1831V69.59H20.7226ZM20.7226 51.6891V37.6415H13.3515V51.6891H20.7226Z" fill="#4A3636"/>
<path d="M71.6942 77.4237C65.9414 77.4237 61.2639 72.2398 61.2639 65.864V54.4662C60.7419 54.5241 60.2303 54.5819 59.7187 54.5819C59.1653 54.5819 58.6642 54.5357 58.1735 54.4778C58.1317 65.9334 49.7165 75.2483 39.3593 75.2483H38.7642V69.1965H39.3593C46.72 69.1965 52.713 62.5546 52.713 54.3968V52.4065C48.5889 49.722 46.0413 44.781 46.0413 39.4235V20.4581C46.0413 12.1036 52.1805 5.29967 59.7187 5.29967C67.2569 5.29967 73.3125 12.1036 73.3125 20.4581V39.4235C73.3125 44.7579 70.7963 49.6988 66.7244 52.4065V65.864C66.7244 68.8957 68.9483 71.3719 71.6942 71.3719C74.4401 71.3719 76.664 68.9072 76.664 65.864V65.2044H82.1245V65.864C82.1245 72.2398 77.447 77.4237 71.6942 77.4237ZM51.5018 39.4235C51.5018 44.4455 55.1874 48.5301 59.7187 48.5301C64.25 48.5301 67.852 44.4455 67.852 39.4235V37.711H51.5018V39.4235ZM67.852 31.6591V28.234H51.5018V31.6591H67.852ZM67.852 22.1822V20.4697C67.852 15.4477 64.2082 11.363 59.7187 11.363C55.2292 11.363 51.5018 15.4477 51.5018 20.4697V22.1822H67.852Z" fill="#4A3636"/>
<path d="M110.283 66.9054V60.8536H110.878C119.043 60.8536 125.683 53.5405 125.683 44.538C125.683 35.5355 119.043 28.1299 110.878 28.1299H86.6766V22.0781H110.878C122.05 22.0781 131.144 32.1567 131.144 44.538C131.144 56.9194 122.05 66.9054 110.878 66.9054H110.283Z" fill="#4A3636"/>
<path d="M159.292 66.9054V60.8536H159.887C169.137 60.8536 176.655 52.557 176.655 42.3626V29.8424H164.335V23.7906H176.655V12.416H182.115V23.7906H190.238V29.8424H182.115V42.3626C182.115 55.9011 172.144 66.9054 159.887 66.9054H159.292ZM143.641 57.7062V19.5208H149.102V50.6824C150.292 49.6988 151.002 48.183 151.002 46.5283V45.8687H156.462V46.5283C156.462 52.6958 151.942 57.7062 146.377 57.7062H143.641Z" fill="#4A3636"/>
<path d="M239.174 69.0808C226.394 69.0808 215.995 57.6021 215.995 43.4966C215.995 36.5654 218.397 30.1317 222.761 25.3991C223.241 24.8668 223.753 24.3576 224.275 23.8716H199.833V17.8198H245.751V23.8716H239.174C234.475 23.8716 230.038 25.9198 226.676 29.6573C223.314 33.2907 221.456 38.2085 221.456 43.5082C221.456 54.2811 229.401 63.0406 239.174 63.0406H239.769V69.0924H239.174V69.0808Z" fill="#4A3636"/>
<path d="M296.713 80.4554C290.25 80.4554 284.998 74.635 284.998 67.4724V63.11H273.106V57.0582H284.998V53.6331H277.387V47.5813H284.998V43.8437C282.639 43.2536 280.54 41.9576 278.922 40.0599L278.525 39.5971L282.346 35.362L282.764 35.8248C284.1 37.3059 285.865 38.1159 287.723 38.1159C289.582 38.1159 291.315 37.3059 292.609 35.8248L293.017 35.3504L296.953 39.5855L296.525 40.0599C294.854 41.9113 292.714 43.2305 290.459 43.8206V47.5581H297.391V53.6099H290.459V57.0351H301.578V63.0869H290.459V67.4492C290.459 71.2678 293.267 74.3805 296.713 74.3805C300.158 74.3805 302.967 71.2678 302.967 67.4492V66.7897H308.427V67.4492C308.427 74.6119 303.175 80.4323 296.713 80.4323V80.4554ZM251.818 62.4389V56.3871H252.413C254.553 56.3871 259.523 55.8201 259.523 50.6014V23.1195H301.004C303.322 23.1195 305.201 20.9904 305.201 18.3753C305.201 15.7601 303.322 13.7236 301.004 13.7236H259.784V7.67178H301.004C306.328 7.67178 310.661 12.4739 310.661 18.3753C310.661 24.2766 306.328 29.1713 301.004 29.1713H264.983V50.6014C264.983 57.683 259.93 62.4389 252.413 62.4389H251.818Z" fill="#4A3636"/>
<path d="M359.305 81.115C345.815 81.115 334.853 68.9998 334.853 54.1075C334.853 49.9187 331.783 46.5167 328.003 46.5167C324.224 46.5167 321.154 49.9187 321.154 54.1075V54.7671H315.694V54.1075C315.694 46.5862 321.217 40.4649 328.003 40.4649C330.979 40.4649 333.401 37.7804 333.401 34.4825C333.401 31.1847 330.927 28.6043 328.003 28.6043C325.08 28.6043 322.7 31.2426 322.7 34.4825V35.1421H317.239V34.4825C317.239 27.8985 322.073 22.5409 328.014 22.5409C333.955 22.5409 338.872 27.8985 338.872 34.4825C338.872 37.8382 337.64 40.9741 335.479 43.242C338.528 45.7646 340.334 49.7567 340.334 54.1075C340.334 65.6673 348.854 75.0632 359.326 75.0632H359.921V81.115H359.326H359.305ZM360.161 65.1003C353.938 65.1003 348.874 59.4882 348.874 52.5917V42.4436C348.874 35.5471 353.938 29.935 360.161 29.935C366.383 29.935 371.364 35.5471 371.364 42.4436V52.5917C371.364 59.4882 366.342 65.1003 360.161 65.1003ZM354.721 54.9522C355.577 57.3938 357.718 59.0485 360.161 59.0485C362.604 59.0485 364.661 57.3706 365.517 54.9522H354.721ZM365.903 48.9004V46.0423H354.345V48.9004H365.903ZM365.506 39.9905C364.64 37.63 362.51 35.9984 360.161 35.9984C357.812 35.9984 355.598 37.6415 354.732 39.9905H365.506ZM356.235 23.8716L360.171 19.6365L363.993 23.8716L360.171 28.1068L356.235 23.8716ZM345.377 17.033V10.9812H374.872V17.033H345.377ZM324.172 11.3515L327.993 7.11636L331.929 11.3515L327.993 15.5866L324.172 11.3515ZM363.439 4.23511L367.261 0L371.082 4.23511L367.261 8.59749L363.439 4.23511ZM348.634 4.23511L352.55 0L356.371 4.23511L352.55 8.58592L348.624 4.23511H348.634Z" fill="#4A3636"/>
<path d="M388.821 69.5552V14.7766H394.281V63.3414C408.052 61.8024 418.754 48.7616 418.754 33.3486V32.689H424.215V33.3486C424.215 53.3091 409.556 69.5552 391.546 69.5552H388.81H388.821Z" fill="#4A3636"/>
<path d="M439.291 71.6381V12.4045H444.752V71.6381H439.291ZM447.946 45.0935L447.842 39.0417H461.864V45.0935H447.946Z" fill="#4A3636"/>
<path d="M487.35 65.2854C480.887 65.2854 475.635 59.465 475.635 52.3024V31.7286C475.635 24.5775 480.887 18.7455 487.35 18.7455H508.482C514.944 18.7455 520.196 24.5659 520.196 31.7286V52.3024C520.196 59.4535 514.944 65.2854 508.482 65.2854H487.35ZM487.35 24.8089C483.904 24.8089 481.096 27.9216 481.096 31.7401V52.314C481.096 56.1325 483.904 59.2452 487.35 59.2452H508.482C511.927 59.2452 514.736 56.1325 514.736 52.314V31.7401C514.736 27.9216 511.927 24.8089 508.482 24.8089H487.35Z" fill="#4A3636"/>
</g>
<g clip-path="url(#clip2_1156_1897)">
<rect width="356" height="60" transform="translate(82 98)" fill="white"/>
<path d="M102.176 157.233V135.767H82.0359V129.808H102.176V117.559H82.0359V111.6H102.176V98.9077H108.13V111.6H128.178V117.559H108.13V129.808H128.178V135.767H108.13V157.233H102.176Z" fill="#4A3636"/>
<path d="M148.341 154.897V131.186H136.592V125.227H148.341V117.206H154.295V125.227H173.228V128.213C173.228 135.926 166.955 142.204 159.247 142.204H158.598V136.245H159.247C162.503 136.245 165.441 134.206 166.647 131.186H154.295V154.897H148.341Z" fill="#4A3636"/>
<path d="M186.491 154.999V149.041H187.14C208.441 149.041 225.757 131.665 225.757 110.302V109.652H231.711V110.302C231.711 134.946 211.72 155.011 187.14 155.011H186.491V154.999ZM183.508 115.326V109.367H197.386V115.326H183.508Z" fill="#4A3636"/>
<path d="M241.628 137.829L261.016 118.425C263.669 115.873 267.232 114.415 270.795 114.415C274.359 114.415 277.979 115.839 280.666 118.425L300.066 137.84L295.796 142.113L276.408 122.709C274.962 121.183 273.027 120.374 270.807 120.374C268.587 120.374 266.72 121.183 265.205 122.709L245.908 142.113L241.639 137.84L241.628 137.829ZM293.28 120.089C291.299 120.089 289.455 119.325 288.066 117.935C286.677 116.557 285.914 114.7 285.914 112.717C285.914 108.604 289.216 105.254 293.28 105.254C295.295 105.254 297.163 106.063 298.506 107.51C299.883 108.798 300.635 110.598 300.635 112.706C300.635 116.773 297.333 120.077 293.269 120.077L293.28 120.089ZM293.28 110.29C291.994 110.29 290.946 111.384 290.946 112.728C290.946 113.366 291.197 114.016 291.595 114.415C292.017 114.836 292.609 115.064 293.28 115.064C294.612 115.064 295.614 114.062 295.614 112.728C295.614 112.045 295.387 111.464 294.965 111.042C294.487 110.564 293.884 110.302 293.28 110.302V110.29Z" fill="#4A3636"/>
<path d="M354.451 127.472H312.965V133.431H354.451V127.472Z" fill="#4A3636"/>
<path d="M369.672 154.999V149.041H370.321C391.622 149.041 408.938 131.665 408.938 110.302V109.652H414.892V110.302C414.892 134.946 394.901 155.011 370.321 155.011H369.672V154.999ZM366.689 115.326V109.367H380.579V115.326H366.689Z" fill="#4A3636"/>
<path d="M431.89 157.233V151.274H437.844V157.233H431.89ZM431.89 143.23V98.9077H437.844V143.23H431.89Z" fill="#4A3636"/>
</g>
</g>
<defs>
<clipPath id="clip0_1156_1897">
<rect width="520" height="158" fill="white"/>
</clipPath>
<clipPath id="clip1_1156_1897">
<rect width="520" height="82" fill="white"/>
</clipPath>
<clipPath id="clip2_1156_1897">
<rect width="356" height="60" fill="white" transform="translate(82 98)"/>
</clipPath>
</defs>
</svg>
