<svg width="200" height="31" viewBox="0 0 200 31" fill="none" xmlns="http://www.w3.org/2000/svg">
<path d="M13.4598 6.59998C12.6798 6.19998 11.8498 5.85998 10.9698 5.57998C10.0898 5.27998 9.24977 5.12998 8.44977 5.12998C7.36977 5.12998 6.50977 5.36998 5.86977 5.84998C5.24977 6.32998 4.93977 6.98998 4.93977 7.82998C4.93977 8.42998 5.15977 8.95998 5.59977 9.41998C6.03977 9.85998 6.59977 10.25 7.27977 10.59C7.95977 10.91 8.67977 11.22 9.43977 11.52C10.0998 11.76 10.7498 12.05 11.3898 12.39C12.0498 12.71 12.6398 13.11 13.1598 13.59C13.6798 14.07 14.0898 14.67 14.3898 15.39C14.7098 16.09 14.8698 16.96 14.8698 18C14.8698 19.14 14.5798 20.19 13.9998 21.15C13.4198 22.09 12.5898 22.84 11.5098 23.4C10.4298 23.96 9.10977 24.24 7.54977 24.24C6.64977 24.24 5.75977 24.14 4.87977 23.94C4.01977 23.74 3.19977 23.47 2.41977 23.13C1.63977 22.77 0.919766 22.37 0.259766 21.93L1.81977 19.2C2.29977 19.56 2.84977 19.89 3.46977 20.19C4.08977 20.49 4.72977 20.73 5.38977 20.91C6.04977 21.07 6.66977 21.15 7.24977 21.15C7.86977 21.15 8.47977 21.05 9.07977 20.85C9.69977 20.65 10.2098 20.32 10.6098 19.86C11.0298 19.4 11.2398 18.79 11.2398 18.03C11.2398 17.41 11.0598 16.88 10.6998 16.44C10.3398 16 9.86977 15.62 9.28977 15.3C8.72977 14.96 8.10977 14.66 7.42977 14.4C6.74977 14.14 6.04977 13.85 5.32977 13.53C4.62977 13.21 3.97977 12.82 3.37977 12.36C2.77977 11.88 2.28977 11.3 1.90977 10.62C1.52977 9.93998 1.33977 9.09998 1.33977 8.09998C1.33977 6.89998 1.61977 5.85998 2.17977 4.97998C2.73977 4.09998 3.50977 3.39998 4.48977 2.87997C5.48977 2.35998 6.63977 2.07998 7.93977 2.03997C9.47977 2.03997 10.7898 2.22997 11.8698 2.60997C12.9698 2.96997 13.9398 3.40998 14.7798 3.92998L13.4598 6.59998Z" fill="#F1EEE4"/>
<path d="M27.752 11.31L31.082 19.02L30.452 19.08L33.482 11.31H36.782L30.992 24.75L26.912 16.17L23.192 24.75L17.342 11.31H20.642L24.212 19.47L23.042 19.26L25.712 13.2L24.842 11.31H27.752Z" fill="#F1EEE4"/>
<path d="M46.1424 24.33C44.6424 24.33 43.3624 24.04 42.3024 23.46C41.2424 22.88 40.4324 22.08 39.8724 21.06C39.3124 20.02 39.0324 18.85 39.0324 17.55C39.0324 16.27 39.3524 15.12 39.9924 14.1C40.6324 13.08 41.4924 12.27 42.5724 11.67C43.6724 11.05 44.8824 10.74 46.2024 10.74C47.9424 10.74 49.3724 11.25 50.4924 12.27C51.6324 13.27 52.3924 14.69 52.7724 16.53L42.5424 19.98L41.7624 18.09L49.7424 15.24L49.0524 15.63C48.8324 15.03 48.4724 14.51 47.9724 14.07C47.4924 13.63 46.8124 13.41 45.9324 13.41C45.2324 13.41 44.6124 13.58 44.0724 13.92C43.5324 14.24 43.1024 14.7 42.7824 15.3C42.4824 15.88 42.3324 16.57 42.3324 17.37C42.3324 18.19 42.5024 18.91 42.8424 19.53C43.1824 20.15 43.6424 20.63 44.2224 20.97C44.8024 21.29 45.4624 21.45 46.2024 21.45C46.7224 21.45 47.2224 21.36 47.7024 21.18C48.1824 21 48.6324 20.76 49.0524 20.46L50.5824 22.95C49.9224 23.37 49.1924 23.71 48.3924 23.97C47.6124 24.21 46.8624 24.33 46.1424 24.33Z" fill="#F1EEE4"/>
<path d="M63.0385 24.33C61.5385 24.33 60.2585 24.04 59.1985 23.46C58.1385 22.88 57.3285 22.08 56.7685 21.06C56.2085 20.02 55.9285 18.85 55.9285 17.55C55.9285 16.27 56.2485 15.12 56.8885 14.1C57.5285 13.08 58.3885 12.27 59.4685 11.67C60.5685 11.05 61.7785 10.74 63.0985 10.74C64.8385 10.74 66.2685 11.25 67.3885 12.27C68.5285 13.27 69.2885 14.69 69.6685 16.53L59.4385 19.98L58.6585 18.09L66.6385 15.24L65.9485 15.63C65.7285 15.03 65.3685 14.51 64.8685 14.07C64.3885 13.63 63.7085 13.41 62.8285 13.41C62.1285 13.41 61.5085 13.58 60.9685 13.92C60.4285 14.24 59.9985 14.7 59.6785 15.3C59.3785 15.88 59.2285 16.57 59.2285 17.37C59.2285 18.19 59.3985 18.91 59.7385 19.53C60.0785 20.15 60.5385 20.63 61.1185 20.97C61.6985 21.29 62.3585 21.45 63.0985 21.45C63.6185 21.45 64.1185 21.36 64.5985 21.18C65.0785 21 65.5285 20.76 65.9485 20.46L67.4785 22.95C66.8185 23.37 66.0885 23.71 65.2885 23.97C64.5085 24.21 63.7585 24.33 63.0385 24.33Z" fill="#F1EEE4"/>
<path d="M75.0746 5.72998H78.4646V11.31H81.7646V13.95H78.4646V24H75.0746V13.95H72.9146V11.31H75.0746V5.72998Z" fill="#F1EEE4"/>
<path d="M97.1654 24V2.15998H103.375C105.555 2.15998 107.405 2.48997 108.925 3.14997C110.445 3.78997 111.675 4.65998 112.615 5.75998C113.555 6.83998 114.235 8.04998 114.655 9.38998C115.095 10.71 115.315 12.04 115.315 13.38C115.315 15.02 115.025 16.49 114.445 17.79C113.865 19.09 113.075 20.21 112.075 21.15C111.075 22.07 109.915 22.78 108.595 23.28C107.295 23.76 105.905 24 104.425 24H97.1654ZM100.675 20.64H103.795C104.955 20.64 106.015 20.48 106.975 20.16C107.935 19.82 108.765 19.34 109.465 18.72C110.185 18.08 110.735 17.29 111.115 16.35C111.515 15.41 111.715 14.34 111.715 13.14C111.715 11.78 111.485 10.62 111.025 9.65998C110.585 8.67998 109.995 7.88998 109.255 7.28998C108.535 6.66998 107.745 6.21998 106.885 5.93997C106.025 5.65998 105.175 5.51998 104.335 5.51998H100.675V20.64Z" fill="#F1EEE4"/>
<path d="M126.258 24.33C124.758 24.33 123.478 24.04 122.418 23.46C121.358 22.88 120.548 22.08 119.988 21.06C119.428 20.02 119.148 18.85 119.148 17.55C119.148 16.27 119.468 15.12 120.108 14.1C120.748 13.08 121.608 12.27 122.688 11.67C123.788 11.05 124.998 10.74 126.318 10.74C128.058 10.74 129.488 11.25 130.608 12.27C131.748 13.27 132.508 14.69 132.888 16.53L122.658 19.98L121.878 18.09L129.858 15.24L129.168 15.63C128.948 15.03 128.588 14.51 128.088 14.07C127.608 13.63 126.928 13.41 126.048 13.41C125.348 13.41 124.728 13.58 124.188 13.92C123.648 14.24 123.218 14.7 122.898 15.3C122.598 15.88 122.448 16.57 122.448 17.37C122.448 18.19 122.618 18.91 122.958 19.53C123.298 20.15 123.758 20.63 124.338 20.97C124.918 21.29 125.578 21.45 126.318 21.45C126.838 21.45 127.338 21.36 127.818 21.18C128.298 21 128.748 20.76 129.168 20.46L130.698 22.95C130.038 23.37 129.308 23.71 128.508 23.97C127.728 24.21 126.978 24.33 126.258 24.33Z" fill="#F1EEE4"/>
<path d="M137.094 0.599976H140.454V24H137.094V0.599976Z" fill="#F1EEE4"/>
<path d="M145.963 11.31H149.323V24H145.963V11.31ZM145.813 6.77998C145.813 6.25998 146.013 5.82998 146.413 5.48998C146.833 5.14998 147.283 4.97998 147.763 4.97998C148.243 4.97998 148.673 5.14998 149.053 5.48998C149.452 5.82998 149.653 6.25998 149.653 6.77998C149.653 7.29998 149.452 7.72998 149.053 8.06998C148.673 8.38998 148.243 8.54998 147.763 8.54998C147.283 8.54998 146.833 8.37998 146.413 8.03998C146.013 7.69998 145.813 7.27998 145.813 6.77998Z" fill="#F1EEE4"/>
<path d="M161.161 30.33C160.121 30.33 159.231 30.21 158.491 29.97C157.751 29.73 157.091 29.41 156.511 29.01C155.951 28.63 155.421 28.23 154.921 27.81L156.901 25.5C157.481 26.04 158.091 26.49 158.731 26.85C159.391 27.21 160.181 27.39 161.101 27.39C161.921 27.39 162.631 27.25 163.231 26.97C163.851 26.69 164.331 26.3 164.671 25.8C165.011 25.3 165.191 24.7 165.211 24V20.85L165.421 21.48C165.081 22.26 164.461 22.93 163.561 23.49C162.661 24.05 161.541 24.33 160.201 24.33C159.041 24.33 157.971 24.04 156.991 23.46C156.011 22.86 155.231 22.05 154.651 21.03C154.071 20.01 153.781 18.86 153.781 17.58C153.781 16.26 154.081 15.09 154.681 14.07C155.301 13.03 156.111 12.22 157.111 11.64C158.131 11.04 159.211 10.74 160.351 10.74C161.471 10.74 162.461 10.94 163.321 11.34C164.201 11.74 164.861 12.24 165.301 12.84L165.121 13.32L165.481 11.31H168.571V24.06C168.571 25.24 168.251 26.3 167.611 27.24C166.991 28.2 166.121 28.95 165.001 29.49C163.901 30.05 162.621 30.33 161.161 30.33ZM157.171 17.49C157.171 18.25 157.341 18.94 157.681 19.56C158.041 20.18 158.521 20.67 159.121 21.03C159.741 21.39 160.431 21.57 161.191 21.57C161.851 21.57 162.441 21.46 162.961 21.24C163.501 21.02 163.961 20.71 164.341 20.31C164.741 19.91 165.031 19.44 165.211 18.9V16.14C165.031 15.6 164.741 15.14 164.341 14.76C163.961 14.36 163.501 14.05 162.961 13.83C162.441 13.61 161.851 13.5 161.191 13.5C160.431 13.5 159.741 13.67 159.121 14.01C158.521 14.35 158.041 14.82 157.681 15.42C157.341 16.02 157.171 16.71 157.171 17.49Z" fill="#F1EEE4"/>
<path d="M174.1 24V0.599976H177.4V14.1L177.34 13.59C177.78 12.77 178.43 12.1 179.29 11.58C180.15 11.04 181.18 10.77 182.38 10.77C183.58 10.77 184.57 11.12 185.35 11.82C186.13 12.52 186.53 13.44 186.55 14.58V24H183.19V15.78C183.17 15.14 182.99 14.63 182.65 14.25C182.31 13.85 181.77 13.64 181.03 13.62C180.35 13.62 179.74 13.83 179.2 14.25C178.66 14.67 178.23 15.24 177.91 15.96C177.61 16.66 177.46 17.46 177.46 18.36V24H174.1Z" fill="#F1EEE4"/>
<path d="M193.28 5.72998H196.67V11.31H199.97V13.95H196.67V24H193.28V13.95H191.12V11.31H193.28V5.72998Z" fill="#F1EEE4"/>
</svg>
