<svg width="54" height="120" viewBox="0 0 54 120" fill="none" xmlns="http://www.w3.org/2000/svg">
<path d="M39.1449 6.18335C40.3921 6.64989 41.8902 5.66914 42.4907 3.99363C43.0907 2.31812 42.5666 0.582016 41.3193 0.115877C40.0717 -0.349857 38.574 0.630084 37.9736 2.306C37.3735 3.98151 37.8976 5.71761 39.1453 6.18335H39.1449Z" fill="#CCE1E4"/>
<path d="M34.4049 8.85572C35.7099 8.7402 36.647 7.22626 36.4987 5.47279C36.3499 3.72013 35.1719 2.3928 33.8669 2.50752C32.5623 2.62345 31.6252 4.13779 31.7735 5.89086C31.9222 7.64352 33.1003 8.97085 34.4049 8.85572Z" fill="#CCE1E4"/>
<path d="M44.5673 8.79637C45.7125 9.48386 47.3581 8.79354 48.2434 7.25537C49.1283 5.71598 48.9175 3.91242 47.7719 3.22533C46.6267 2.53865 44.9807 3.22937 44.0958 4.76755C43.2109 6.30653 43.4221 8.11009 44.5673 8.79677V8.79637Z" fill="#CCE1E4"/>
<path d="M50.7012 10.6198C49.9587 9.51825 48.2063 9.43302 46.787 10.4303C45.3673 11.428 44.8186 13.1294 45.5607 14.2313C46.3032 15.3329 48.0556 15.4181 49.475 14.4208C50.8943 13.4235 51.4433 11.7221 50.7012 10.6202V10.6198Z" fill="#CCE1E4"/>
<path d="M43.0764 10.8278C42.9348 9.82724 42.3339 8.91435 41.3739 8.45185C40.4138 7.98934 39.3418 8.09598 38.4956 8.62029C37.5601 9.19993 36.962 9.9573 36.1562 10.2881C35.3508 10.6189 33.0944 9.63335 31.6897 12.2383C30.6976 14.0782 31.6082 16.4041 33.4683 17.3004C34.882 17.9814 36.0007 17.9055 36.8224 18.3009C37.6436 18.6964 38.2975 19.627 39.7113 20.3081C41.5713 21.2044 43.9083 20.4438 44.6686 18.492C45.745 15.7287 43.565 14.5771 43.3031 13.7316C43.0412 12.8866 43.2335 11.9333 43.0768 10.8278H43.0764Z" fill="#CCE1E4"/>
<path d="M42.0001 39.6101C43.2473 40.0766 44.7454 39.0959 45.3459 37.4204C45.946 35.7449 45.4218 34.0088 44.1746 33.5426C42.9269 33.0769 41.4293 34.0568 40.8288 35.7328C40.2287 37.4083 40.7528 39.1444 42.0005 39.6101H42.0001Z" fill="#CCE1E4"/>
<path d="M37.2601 42.2825C38.5651 42.167 39.5022 40.653 39.3539 38.8995C39.2052 37.1469 38.0271 35.8196 36.7221 35.9343C35.4175 36.0502 34.4804 37.5645 34.6287 39.3176C34.7775 41.0703 35.9555 42.3976 37.2601 42.2825Z" fill="#CCE1E4"/>
<path d="M47.4225 42.2231C48.5677 42.9106 50.2133 42.2203 51.0986 40.6821C51.9835 39.1427 51.7727 37.3392 50.6271 36.6521C49.4819 35.9654 47.8359 36.6561 46.951 38.1943C46.0661 39.7333 46.2773 41.5368 47.4225 42.2235V42.2231Z" fill="#CCE1E4"/>
<path d="M53.5565 44.0465C52.814 42.945 51.0616 42.8598 49.6422 43.8571C48.2225 44.8548 47.6738 46.5562 48.4159 47.6581C49.1584 48.7596 50.9109 48.8448 52.3302 47.8475C53.7495 46.8502 54.2986 45.1489 53.5565 44.0469V44.0465Z" fill="#CCE1E4"/>
<path d="M45.9317 44.2545C45.79 43.254 45.1892 42.3411 44.2291 41.8786C43.269 41.4161 42.197 41.5227 41.3509 42.047C40.4153 42.6267 39.8172 43.3841 39.0114 43.7149C38.206 44.0457 35.9497 43.0601 34.545 45.6651C33.5529 47.505 34.4635 49.8308 36.3235 50.7272C37.7373 51.4082 38.856 51.3322 39.6776 51.7277C40.4988 52.1231 41.1527 53.0538 42.5665 53.7348C44.4265 54.6312 46.7636 53.8706 47.5239 51.9188C48.6002 49.1554 46.4202 48.0038 46.1583 47.1584C45.8965 46.3134 46.0887 45.3601 45.9321 44.2545H45.9317Z" fill="#CCE1E4"/>
<path d="M7.97494 72.0751C9.22219 72.5416 10.7202 71.5609 11.3207 69.8854C11.9208 68.2098 11.3967 66.4737 10.1494 66.0076C8.90178 65.5419 7.40412 66.5218 6.80363 68.1977C6.20354 69.8732 6.72768 71.6093 7.97533 72.0751H7.97494Z" fill="#CCE1E4"/>
<path d="M3.23496 74.7475C4.53997 74.6319 5.47709 73.118 5.32875 71.3645C5.18001 69.6119 4.00198 68.2845 2.69697 68.3992C1.39236 68.5152 0.455235 70.0295 0.603576 71.7826C0.752314 73.5352 1.93034 74.8626 3.23496 74.7475Z" fill="#CCE1E4"/>
<path d="M13.3974 74.6881C14.5426 75.3756 16.1882 74.6853 17.0735 73.1471C17.9584 71.6077 17.7476 69.8041 16.602 69.1171C15.4568 68.4304 13.8108 69.1211 12.9259 70.6593C12.041 72.1983 12.2522 74.0018 13.3974 74.6885V74.6881Z" fill="#CCE1E4"/>
<path d="M19.5313 76.5115C18.7888 75.41 17.0364 75.3247 15.6171 76.3221C14.1974 77.3198 13.6487 79.0211 14.3908 80.1231C15.1333 81.2246 16.8857 81.3098 18.305 80.3125C19.7244 79.3152 20.2734 77.6138 19.5313 76.5119V76.5115Z" fill="#CCE1E4"/>
<path d="M11.9065 76.7195C11.7649 75.719 11.164 74.8061 10.2039 74.3436C9.24388 73.8811 8.17187 73.9877 7.32573 74.512C6.39018 75.0917 5.79207 75.849 4.98628 76.1798C4.18088 76.5107 1.92451 75.5251 0.519815 78.13C-0.472293 79.9699 0.438326 82.2958 2.29833 83.1921C3.71213 83.8731 4.83082 83.7972 5.65243 84.1927C6.47365 84.5881 7.12754 85.5188 8.54134 86.1998C10.4013 87.0961 12.7384 86.3355 13.4987 84.3837C14.5751 81.6204 12.3951 80.4688 12.1332 79.6234C11.8713 78.7783 12.0636 77.8251 11.9069 76.7195H11.9065Z" fill="#CCE1E4"/>
<path d="M10.8304 105.502C12.0777 105.968 13.5757 104.988 14.1762 103.312C14.7763 101.637 14.2522 99.9005 13.0049 99.4344C11.7572 98.9686 10.2596 99.9486 9.6591 101.624C9.05901 103.3 9.58315 105.036 10.8308 105.502H10.8304Z" fill="#CCE1E4"/>
<path d="M6.09043 108.174C7.39544 108.059 8.33256 106.545 8.18422 104.791C8.03548 103.039 6.85745 101.711 5.55244 101.826C4.24783 101.942 3.3107 103.456 3.45905 105.209C3.60778 106.962 4.78581 108.289 6.09043 108.174Z" fill="#CCE1E4"/>
<path d="M16.2529 108.115C17.3981 108.802 19.0437 108.112 19.929 106.574C20.8139 105.034 20.603 103.231 19.4574 102.544C18.3122 101.857 16.6662 102.548 15.7813 104.086C14.8964 105.625 15.1077 107.429 16.2529 108.115V108.115Z" fill="#CCE1E4"/>
<path d="M22.3868 109.938C21.6443 108.837 19.8919 108.751 18.4726 109.749C17.0528 110.747 16.5042 112.448 17.2463 113.55C17.9888 114.651 19.7412 114.737 21.1605 113.739C22.5798 112.742 23.1289 111.041 22.3868 109.939V109.938Z" fill="#CCE1E4"/>
<path d="M14.762 110.146C14.6204 109.146 14.0195 108.233 13.0594 107.77C12.0994 107.308 11.0273 107.414 10.1812 107.939C9.24565 108.518 8.64754 109.276 7.84175 109.607C7.03635 109.937 4.77998 108.952 3.37528 111.557C2.38318 113.397 3.29379 115.723 5.1538 116.619C6.56759 117.3 7.68629 117.224 8.5079 117.619C9.32912 118.015 9.98301 118.946 11.3968 119.627C13.2568 120.523 15.5939 119.762 16.3542 117.81C17.4305 115.047 15.2505 113.896 14.9886 113.05C14.7268 112.205 14.919 111.252 14.7624 110.146H14.762Z" fill="#CCE1E4"/>
</svg>
