<svg width="110" height="110" viewBox="0 0 110 110" fill="none" xmlns="http://www.w3.org/2000/svg">
<circle cx="55" cy="55" r="55" fill="#CE2073"/>
<path d="M26.7675 61.1111H22.1684V48.5321C22.1684 48.0244 22.1786 47.3442 22.1989 46.4914C22.2192 45.6183 22.2496 44.8568 22.2902 44.207C22.1887 44.3289 21.9654 44.5522 21.6202 44.8771C21.2953 45.1817 20.9907 45.4558 20.7064 45.6995L18.2089 47.7097L15.9855 44.938L22.9908 39.3643H26.7675V61.1111ZM47.9133 50.2377C47.9133 52.5728 47.6595 54.5728 47.1519 56.2379C46.6646 57.9029 45.8625 59.1821 44.7457 60.0755C43.6289 60.969 42.1467 61.4157 40.2989 61.4157C37.6795 61.4157 35.7607 60.4309 34.5424 58.4613C33.3241 56.4917 32.7149 53.7505 32.7149 50.2377C32.7149 47.9026 32.9586 45.9025 33.4459 44.2375C33.9332 42.5522 34.7353 41.2628 35.852 40.3694C36.9688 39.4759 38.4511 39.0292 40.2989 39.0292C42.8979 39.0292 44.8168 40.014 46.0554 41.9836C47.294 43.9532 47.9133 46.7046 47.9133 50.2377ZM37.2836 50.2377C37.2836 52.7149 37.4968 54.583 37.9232 55.8419C38.3496 57.0805 39.1415 57.6998 40.2989 57.6998C41.436 57.6998 42.2279 57.0805 42.6746 55.8419C43.1213 54.6033 43.3447 52.7352 43.3447 50.2377C43.3447 47.7605 43.1213 45.8924 42.6746 44.6335C42.2279 43.3745 41.436 42.7451 40.2989 42.7451C39.1415 42.7451 38.3496 43.3745 37.9232 44.6335C37.4968 45.8924 37.2836 47.7605 37.2836 50.2377ZM65.3433 50.2377C65.3433 52.5728 65.0895 54.5728 64.5818 56.2379C64.0945 57.9029 63.2924 59.1821 62.1757 60.0755C61.0589 60.969 59.5766 61.4157 57.7288 61.4157C55.1095 61.4157 53.1906 60.4309 51.9723 58.4613C50.754 56.4917 50.1448 53.7505 50.1448 50.2377C50.1448 47.9026 50.3885 45.9025 50.8758 44.2375C51.3632 42.5522 52.1652 41.2628 53.282 40.3694C54.3988 39.4759 55.8811 39.0292 57.7288 39.0292C60.3279 39.0292 62.2467 40.014 63.4853 41.9836C64.724 43.9532 65.3433 46.7046 65.3433 50.2377ZM54.7135 50.2377C54.7135 52.7149 54.9267 54.583 55.3531 55.8419C55.7795 57.0805 56.5714 57.6998 57.7288 57.6998C58.8659 57.6998 59.6578 57.0805 60.1045 55.8419C60.5512 54.6033 60.7746 52.7352 60.7746 50.2377C60.7746 47.7605 60.5512 45.8924 60.1045 44.6335C59.6578 43.3745 58.8659 42.7451 57.7288 42.7451C56.5714 42.7451 55.7795 43.3745 55.3531 44.6335C54.9267 45.8924 54.7135 47.7605 54.7135 50.2377ZM70.2134 60.5342H74.5841V61.6H70.2134V60.5342ZM69.7147 53.768H73.1859V54.8044H69.7147V53.768ZM69.9787 52.7511L71.2987 53.0053C71.0185 53.4812 70.6958 53.944 70.3307 54.3938C69.9722 54.837 69.5616 55.264 69.0987 55.6747C68.6425 56.0788 68.121 56.4536 67.5343 56.7991C67.4756 56.7013 67.3974 56.597 67.2996 56.4862C67.2019 56.3689 67.1008 56.2548 66.9965 56.144C66.8922 56.0332 66.7945 55.9452 66.7032 55.88C67.2442 55.5932 67.7233 55.277 68.1405 54.9316C68.5642 54.5861 68.9293 54.2276 69.2356 53.856C69.542 53.4779 69.7897 53.1096 69.9787 52.7511ZM72.8143 53.768H73.0294L73.225 53.7093L74.0365 54.1298C73.7497 54.8924 73.3782 55.5899 72.9219 56.2222C72.4721 56.848 71.9539 57.4119 71.3672 57.9138C70.787 58.4157 70.158 58.8524 69.4801 59.224C68.8022 59.5956 68.0982 59.9052 67.3681 60.1529C67.3225 60.0421 67.2605 59.9215 67.1823 59.7911C67.1041 59.6607 67.0226 59.5336 66.9379 59.4098C66.8531 59.2859 66.7684 59.1816 66.6836 59.0969C67.3616 58.9079 68.0167 58.6504 68.649 58.3244C69.2878 57.992 69.8777 57.6042 70.4187 57.1609C70.9663 56.7176 71.4454 56.2287 71.8561 55.6942C72.2667 55.1532 72.5862 54.5763 72.8143 53.9636V53.768ZM68.4339 55.9093L69.3139 55.1564C69.542 55.3129 69.7799 55.4889 70.0276 55.6844C70.2819 55.88 70.5198 56.0788 70.7414 56.2809C70.9696 56.4764 71.1553 56.6622 71.2987 56.8382L70.3503 57.6791C70.2265 57.5096 70.057 57.3206 69.8419 57.112C69.6267 56.8969 69.3953 56.685 69.1476 56.4764C68.8999 56.2679 68.662 56.0788 68.4339 55.9093ZM74.0463 57.5618H75.2587V61.9911H74.0463V57.5618ZM70.7121 57.5618H74.633V58.6178H70.7121V61.9813H69.529V58.4222L70.4285 57.5618H70.7121ZM80.1476 53.8951H85.5059V54.8142H80.1476V53.8951ZM80.4019 55.2053H85.3005V56.0853H80.4019V55.2053ZM79.9521 56.5058H85.6916V57.464H79.9521V56.5058ZM83.9023 52.7902L85.0756 53.064C84.9387 53.2856 84.8084 53.4975 84.6845 53.6996C84.5607 53.9016 84.4466 54.0744 84.3423 54.2178L83.433 53.9538C83.5177 53.7843 83.6025 53.5887 83.6872 53.3671C83.7785 53.1455 83.8502 52.9532 83.9023 52.7902ZM80.7636 53.1324L81.6925 52.8196C81.8033 52.989 81.9109 53.1748 82.0152 53.3769C82.126 53.579 82.2042 53.755 82.2499 53.9049L81.2721 54.2569C81.233 54.107 81.1645 53.9244 81.0667 53.7093C80.969 53.4942 80.8679 53.3019 80.7636 53.1324ZM84.753 57.64L85.6427 58.2658C85.4276 58.4939 85.1962 58.7188 84.9485 58.9404C84.7073 59.1621 84.4922 59.3511 84.3032 59.5076L83.5503 58.9404C83.6742 58.8296 83.811 58.6993 83.961 58.5493C84.1109 58.3994 84.2543 58.2462 84.3912 58.0898C84.5346 57.9268 84.6552 57.7769 84.753 57.64ZM80.1476 58.2071L80.9396 57.6791C81.1156 57.8551 81.2982 58.0572 81.4872 58.2853C81.6762 58.507 81.8196 58.7025 81.9174 58.872L81.0765 59.4587C80.9853 59.2827 80.8516 59.0773 80.6756 58.8427C80.4996 58.6015 80.3236 58.3896 80.1476 58.2071ZM79.5707 60.4071C79.8706 60.2767 80.2226 60.1105 80.6267 59.9084C81.0309 59.7064 81.4448 59.4945 81.8685 59.2729L82.1716 60.2213C81.8262 60.4234 81.4709 60.6287 81.1059 60.8373C80.7408 61.0394 80.4019 61.2252 80.089 61.3947L79.5707 60.4071ZM82.2596 54.5209H83.3939V60.8276C83.3939 61.0883 83.3645 61.2936 83.3059 61.4436C83.2537 61.6 83.1462 61.7206 82.9832 61.8053C82.8202 61.8966 82.6214 61.952 82.3867 61.9716C82.1586 61.9976 81.8913 62.0107 81.585 62.0107C81.5654 61.8542 81.5263 61.675 81.4676 61.4729C81.409 61.2708 81.3438 61.1013 81.2721 60.9644C81.4416 60.971 81.6078 60.9775 81.7707 60.984C81.9402 60.984 82.051 60.984 82.1032 60.984C82.1684 60.984 82.2107 60.971 82.2303 60.9449C82.2499 60.9188 82.2596 60.8764 82.2596 60.8178V54.5209ZM83.3254 57.64C83.4753 58.0767 83.6676 58.4874 83.9023 58.872C84.137 59.2566 84.4205 59.5956 84.753 59.8889C85.0854 60.1822 85.4602 60.4136 85.8774 60.5831C85.7992 60.6548 85.7112 60.7493 85.6134 60.8667C85.5222 60.9775 85.4309 61.0916 85.3396 61.2089C85.2549 61.3262 85.1865 61.4338 85.1343 61.5316C84.7106 61.3034 84.3325 61.0036 84.0001 60.632C83.6742 60.2539 83.3906 59.827 83.1494 59.3511C82.9147 58.8753 82.7192 58.3636 82.5627 57.816L83.3254 57.64ZM76.6961 54.8338H79.9325V55.9191H76.6961V54.8338ZM77.889 52.8H78.945V61.9813H77.889V52.8ZM77.8694 55.5769L78.5147 55.792C78.4496 56.1831 78.3648 56.5873 78.2605 57.0044C78.1562 57.4151 78.0389 57.8225 77.9085 58.2267C77.7782 58.6243 77.6347 58.9959 77.4783 59.3413C77.3284 59.6868 77.1654 59.9834 76.9894 60.2311C76.9373 60.0812 76.8558 59.9052 76.745 59.7031C76.6407 59.501 76.5462 59.3348 76.4614 59.2044C76.6179 58.9893 76.7678 58.7384 76.9112 58.4516C77.0546 58.1647 77.1882 57.8584 77.3121 57.5324C77.4359 57.2065 77.5435 56.8773 77.6347 56.5449C77.7325 56.2059 77.8107 55.8833 77.8694 55.5769ZM78.8961 56.2809C78.9482 56.3461 79.0297 56.4634 79.1405 56.6329C79.2579 56.7959 79.3817 56.9751 79.5121 57.1707C79.6425 57.3597 79.7598 57.539 79.8641 57.7084C79.9749 57.8714 80.0499 57.9855 80.089 58.0507L79.4827 58.8916C79.4241 58.7547 79.3491 58.5884 79.2579 58.3929C79.1666 58.1973 79.0656 57.9953 78.9547 57.7867C78.8505 57.5781 78.7494 57.3825 78.6516 57.2C78.5604 57.0175 78.4789 56.8676 78.4072 56.7502L78.8961 56.2809Z" fill="#FFEE56"/>
<path d="M90.4143 54.2764C90.7142 54.3156 91.0499 54.3449 91.4214 54.3644C91.7995 54.3775 92.1808 54.384 92.5654 54.384C92.9565 54.3775 93.3313 54.3644 93.6899 54.3449C94.0484 54.3188 94.358 54.2927 94.6187 54.2667V55.528C94.3189 55.5541 93.9897 55.5769 93.6312 55.5964C93.2727 55.6095 92.9044 55.616 92.5263 55.616C92.1482 55.616 91.7767 55.6095 91.4116 55.5964C91.0531 55.5769 90.7207 55.5541 90.4143 55.528V54.2764ZM91.1965 58.4516C91.1574 58.6145 91.1281 58.7612 91.1085 58.8916C91.089 59.0154 91.0792 59.1425 91.0792 59.2729C91.0792 59.3772 91.1053 59.475 91.1574 59.5662C91.2096 59.651 91.2878 59.7259 91.3921 59.7911C91.5029 59.8498 91.643 59.8954 91.8125 59.928C91.9885 59.9541 92.2004 59.9671 92.4481 59.9671C92.8848 59.9671 93.2955 59.9476 93.6801 59.9084C94.0647 59.8628 94.4721 59.7976 94.9023 59.7129L94.9219 61.0329C94.609 61.0916 94.2472 61.1372 93.8365 61.1698C93.4324 61.2024 92.9533 61.2187 92.3992 61.2187C91.5583 61.2187 90.9325 61.0785 90.5219 60.7982C90.1112 60.5114 89.9059 60.117 89.9059 59.6151C89.9059 59.4261 89.9189 59.2305 89.945 59.0284C89.9776 58.8199 90.0199 58.5917 90.0721 58.344L91.1965 58.4516ZM88.9085 53.6213C88.8825 53.6865 88.8531 53.7778 88.8205 53.8951C88.7879 54.0124 88.7553 54.1265 88.7227 54.2373C88.6967 54.3482 88.6771 54.4329 88.6641 54.4916C88.6445 54.6284 88.6119 54.8077 88.5663 55.0293C88.5272 55.2444 88.4848 55.4889 88.4392 55.7627C88.4001 56.0299 88.361 56.3037 88.3219 56.584C88.2827 56.8643 88.2502 57.1348 88.2241 57.3956C88.2045 57.6563 88.1947 57.8844 88.1947 58.08C88.1947 58.1713 88.1947 58.2756 88.1947 58.3929C88.2013 58.5102 88.2143 58.6178 88.2339 58.7156C88.2795 58.6047 88.3284 58.4939 88.3805 58.3831C88.4327 58.2723 88.4848 58.1615 88.537 58.0507C88.5891 57.9333 88.6347 57.8225 88.6739 57.7182L89.2801 58.1973C89.1888 58.4646 89.0943 58.7514 88.9965 59.0578C88.9053 59.3642 88.8205 59.6542 88.7423 59.928C88.6706 60.1953 88.6152 60.4169 88.5761 60.5929C88.563 60.6646 88.55 60.7461 88.537 60.8373C88.5305 60.9286 88.5272 61.0003 88.5272 61.0524C88.5272 61.1046 88.5272 61.1665 88.5272 61.2382C88.5337 61.3164 88.5402 61.3882 88.5467 61.4533L87.4125 61.5316C87.3147 61.1926 87.2267 60.7428 87.1485 60.1822C87.0703 59.6151 87.0312 58.9991 87.0312 58.3342C87.0312 57.9692 87.0475 57.5976 87.0801 57.2196C87.1127 56.8415 87.1518 56.4797 87.1974 56.1342C87.243 55.7822 87.2854 55.4628 87.3245 55.176C87.3702 54.8892 87.4093 54.6513 87.4419 54.4622C87.4549 54.3253 87.4712 54.1722 87.4907 54.0027C87.5168 53.8267 87.5331 53.6604 87.5396 53.504L88.9085 53.6213Z" fill="white"/>
<path d="M29.4586 71.416C29.4586 71.6507 29.5417 71.8511 29.7079 72.0174C29.8741 72.1738 30.0697 72.252 30.2946 72.252C30.5292 72.252 30.7297 72.1738 30.8959 72.0174C31.0621 71.8511 31.1452 71.6507 31.1452 71.416C31.1452 71.1814 31.0621 70.9809 30.8959 70.8147C30.7297 70.6485 30.5292 70.5654 30.2946 70.5654C30.0697 70.5654 29.8741 70.6485 29.7079 70.8147C29.5417 70.9809 29.4586 71.1814 29.4586 71.416ZM28.5492 71.416C28.5492 71.0934 28.6275 70.8 28.7839 70.536C28.9501 70.2622 29.1652 70.0471 29.4292 69.8907C29.6932 69.7342 29.9817 69.656 30.2946 69.656C30.6172 69.656 30.9106 69.7342 31.1746 69.8907C31.4484 70.0471 31.6635 70.2622 31.8199 70.536C31.9764 70.8 32.0546 71.0934 32.0546 71.416C32.0546 71.7289 31.9764 72.0174 31.8199 72.2814C31.6635 72.5454 31.4484 72.7605 31.1746 72.9267C30.9106 73.0831 30.6172 73.1614 30.2946 73.1614C29.9817 73.1614 29.6932 73.0831 29.4292 72.9267C29.1652 72.7605 28.9501 72.5454 28.7839 72.2814C28.6275 72.0174 28.5492 71.7289 28.5492 71.416ZM30.3239 72.5747C30.2555 72.7116 30.1968 72.8778 30.1479 73.0734C30.099 73.2591 30.0501 73.4302 30.0012 73.5867C29.923 73.9485 29.8204 74.3542 29.6932 74.804C29.5661 75.244 29.4146 75.7036 29.2386 76.1827C29.0626 76.6618 28.8524 77.136 28.6079 77.6054C28.3732 78.0747 28.1044 78.5147 27.8012 78.9254C27.3612 79.512 26.8479 80.0596 26.2612 80.568C25.6746 81.0765 25.0195 81.536 24.2959 81.9467C23.5724 82.3574 22.7755 82.7045 21.9052 82.988L20.3066 81.228C21.2844 80.9934 22.1252 80.7049 22.8292 80.3627C23.5332 80.0205 24.1444 79.6294 24.6626 79.1894C25.1906 78.7494 25.655 78.28 26.0559 77.7814C26.3786 77.3707 26.6524 76.9258 26.8772 76.4467C27.1119 75.9676 27.3026 75.4885 27.4492 75.0094C27.6057 74.5205 27.7132 74.0658 27.7719 73.6454C27.6252 73.6454 27.3808 73.6454 27.0386 73.6454C26.7061 73.6454 26.3101 73.6454 25.8506 73.6454C25.4008 73.6454 24.9266 73.6454 24.4279 73.6454C23.939 73.6454 23.4648 73.6454 23.0052 73.6454C22.5457 73.6454 22.1301 73.6454 21.7586 73.6454C21.3968 73.6454 21.1279 73.6454 20.9519 73.6454C20.6097 73.6454 20.2772 73.6502 19.9546 73.66C19.6417 73.6698 19.3924 73.6845 19.2066 73.704V71.636C19.3532 71.6556 19.5292 71.6751 19.7346 71.6947C19.9497 71.7142 20.1648 71.7289 20.3799 71.7387C20.6048 71.7485 20.7955 71.7534 20.9519 71.7534C21.1084 71.7534 21.3284 71.7534 21.6119 71.7534C21.9052 71.7534 22.2426 71.7534 22.6239 71.7534C23.0052 71.7534 23.4012 71.7534 23.8119 71.7534C24.2324 71.7534 24.6479 71.7534 25.0586 71.7534C25.479 71.7534 25.8701 71.7534 26.2319 71.7534C26.5937 71.7534 26.9066 71.7534 27.1706 71.7534C27.4346 71.7534 27.6252 71.7534 27.7426 71.7534C27.8892 71.7534 28.0652 71.7485 28.2706 71.7387C28.4857 71.7289 28.691 71.6947 28.8866 71.636L30.3239 72.5747ZM35.1932 81.58C35.2812 81.3942 35.335 81.2329 35.3546 81.096C35.3741 80.9591 35.3839 80.8027 35.3839 80.6267C35.3839 80.4409 35.3839 80.1574 35.3839 79.776C35.3839 79.3947 35.3839 78.9547 35.3839 78.456C35.3839 77.9476 35.3839 77.4147 35.3839 76.8574C35.3839 76.3 35.3839 75.7525 35.3839 75.2147C35.3839 74.6769 35.3839 74.188 35.3839 73.748C35.3839 73.308 35.3839 72.9511 35.3839 72.6774C35.3839 72.4916 35.3741 72.296 35.3546 72.0907C35.3448 71.8854 35.3252 71.6898 35.2959 71.504C35.2764 71.3085 35.2519 71.1422 35.2226 71.0054H37.5252C37.4861 71.2889 37.4519 71.5676 37.4226 71.8414C37.3932 72.1151 37.3786 72.3938 37.3786 72.6774C37.3786 72.912 37.3786 73.2054 37.3786 73.5574C37.3786 73.8996 37.3786 74.2809 37.3786 74.7014C37.3786 75.1218 37.3786 75.5569 37.3786 76.0067C37.3786 76.4565 37.3786 76.9014 37.3786 77.3414C37.3786 77.7814 37.3786 78.1969 37.3786 78.588C37.3786 78.9791 37.3786 79.3214 37.3786 79.6147C37.3786 79.908 37.3786 80.1378 37.3786 80.304C37.975 80.128 38.6106 79.8885 39.2852 79.5854C39.9697 79.2725 40.6541 78.9058 41.3386 78.4854C42.0328 78.0551 42.683 77.5858 43.2892 77.0774C43.9052 76.5689 44.4479 76.0262 44.9172 75.4494L45.9586 77.1067C44.9612 78.3094 43.7244 79.3507 42.2479 80.2307C40.7812 81.1009 39.1826 81.8196 37.4519 82.3867C37.3541 82.4258 37.227 82.4747 37.0706 82.5334C36.9141 82.592 36.7528 82.6751 36.5866 82.7827L35.1932 81.58ZM58.3519 70.1694C58.479 70.3454 58.611 70.5556 58.7479 70.8C58.8946 71.0445 59.0364 71.2889 59.1733 71.5334C59.3101 71.7778 59.4226 71.9929 59.5106 72.1787L58.3373 72.692C58.1808 72.3889 57.995 72.0467 57.7799 71.6654C57.5746 71.2742 57.3741 70.9369 57.1786 70.6534L58.3519 70.1694ZM60.0826 69.5094C60.2097 69.6951 60.3466 69.9151 60.4933 70.1694C60.6399 70.4138 60.7817 70.6582 60.9186 70.9027C61.0653 71.1374 61.1826 71.3378 61.2706 71.504L60.0973 72.0027C59.9506 71.6996 59.7648 71.3574 59.5399 70.976C59.3248 70.5947 59.1195 70.2671 58.9239 69.9934L60.0826 69.5094ZM50.9306 80.4947C50.9306 80.2894 50.9306 79.996 50.9306 79.6147C50.9306 79.2236 50.9306 78.7836 50.9306 78.2947C50.9306 77.8058 50.9306 77.2925 50.9306 76.7547C50.9306 76.2071 50.9306 75.6694 50.9306 75.1414C50.9306 74.6134 50.9306 74.1245 50.9306 73.6747C50.9306 73.2249 50.9306 72.8534 50.9306 72.56C50.9306 72.3938 50.9257 72.208 50.9159 72.0027C50.9061 71.7974 50.8915 71.592 50.8719 71.3867C50.8621 71.1814 50.8426 71.0102 50.8133 70.8734H52.9986C52.9595 71.0885 52.9253 71.3622 52.8959 71.6947C52.8764 72.0174 52.8666 72.3058 52.8666 72.56C52.8666 72.8436 52.8666 73.1907 52.8666 73.6014C52.8666 74.0022 52.8666 74.4374 52.8666 74.9067C52.8666 75.3662 52.8666 75.8405 52.8666 76.3294C52.8666 76.8085 52.8666 77.2778 52.8666 77.7374C52.8666 78.1871 52.8666 78.6027 52.8666 78.984C52.8666 79.3654 52.8666 79.6978 52.8666 79.9814C52.8666 80.2747 52.9106 80.5142 52.9986 80.7C53.0866 80.8858 53.2626 81.0178 53.5266 81.096C53.8004 81.1742 54.2013 81.2134 54.7293 81.2134C55.2475 81.2134 55.7657 81.1938 56.2839 81.1547C56.8119 81.1156 57.335 81.0569 57.8533 80.9787C58.3813 80.9005 58.8848 80.8174 59.3639 80.7294L59.3053 82.7094C58.9044 82.768 58.4497 82.8218 57.9413 82.8707C57.4328 82.9196 56.9048 82.9587 56.3573 82.988C55.8097 83.0174 55.2719 83.032 54.7439 83.032C53.9128 83.032 53.243 82.9782 52.7346 82.8707C52.2261 82.7729 51.8399 82.6214 51.5759 82.416C51.3217 82.2107 51.1506 81.9467 51.0626 81.624C50.9746 81.3014 50.9306 80.9249 50.9306 80.4947ZM60.1559 74.056C60.0973 74.1538 60.019 74.2809 59.9213 74.4374C59.8333 74.584 59.755 74.7209 59.6866 74.848C59.5204 75.1511 59.3199 75.4934 59.0853 75.8747C58.8506 76.256 58.5964 76.6471 58.3226 77.048C58.0488 77.4489 57.7653 77.8302 57.4719 78.192C57.1884 78.5538 56.9146 78.8618 56.6506 79.116L55.0373 78.1627C55.3599 77.8791 55.6728 77.5565 55.9759 77.1947C56.2888 76.8231 56.5675 76.4614 56.8119 76.1094C57.0564 75.7574 57.2421 75.4542 57.3693 75.2C57.2421 75.2196 57.0075 75.2685 56.6653 75.3467C56.323 75.4151 55.9075 75.4982 55.4186 75.596C54.9395 75.6938 54.4115 75.8014 53.8346 75.9187C53.2577 76.0262 52.6759 76.1387 52.0892 76.256C51.5026 76.3734 50.9355 76.4907 50.3879 76.608C49.8404 76.7156 49.3466 76.8182 48.9066 76.916C48.4666 77.004 48.1146 77.0774 47.8506 77.136L47.4839 75.2147C47.7772 75.1756 48.1488 75.1218 48.5986 75.0534C49.0581 74.9751 49.5715 74.8871 50.1386 74.7894C50.7155 74.6916 51.3119 74.584 51.9279 74.4667C52.5439 74.3396 53.1501 74.2222 53.7466 74.1147C54.3528 73.9974 54.9199 73.8849 55.4479 73.7774C55.9857 73.6698 56.4501 73.5769 56.8413 73.4987C57.2324 73.4107 57.5208 73.3471 57.7066 73.308C57.9217 73.2494 58.1173 73.1956 58.2933 73.1467C58.4693 73.0978 58.6208 73.0342 58.7479 72.956L60.1559 74.056ZM65.2013 71.02C65.4555 71.196 65.7537 71.4111 66.0959 71.6654C66.4381 71.9196 66.7901 72.1982 67.1519 72.5014C67.5235 72.7947 67.8706 73.0831 68.1933 73.3667C68.5159 73.6502 68.7799 73.9045 68.9853 74.1294L67.4893 75.6547C67.3035 75.4494 67.059 75.2049 66.7559 74.9214C66.4528 74.6378 66.1253 74.3445 65.7733 74.0414C65.4213 73.7382 65.0741 73.4498 64.7319 73.176C64.3897 72.9022 64.0866 72.6725 63.8226 72.4867L65.2013 71.02ZM63.3679 80.788C64.1306 80.6805 64.8493 80.5289 65.5239 80.3334C66.1986 80.1378 66.8244 79.9129 67.4013 79.6587C67.9781 79.4045 68.5061 79.1405 68.9853 78.8667C69.8164 78.368 70.579 77.8009 71.2733 77.1654C71.9675 76.5298 72.5737 75.8698 73.0919 75.1854C73.6101 74.4911 74.0208 73.8165 74.3239 73.1614L75.4679 75.2294C75.0964 75.8845 74.6368 76.5396 74.0893 77.1947C73.5515 77.8498 72.9404 78.4756 72.2559 79.072C71.5715 79.6587 70.8333 80.1867 70.0413 80.656C69.5426 80.9591 69.0048 81.2476 68.4279 81.5214C67.851 81.7854 67.2399 82.02 66.5946 82.2254C65.959 82.4405 65.2941 82.6067 64.5999 82.724L63.3679 80.788ZM80.9386 80.7587C80.9386 80.5729 80.9386 80.2698 80.9386 79.8494C80.9386 79.4191 80.9386 78.9254 80.9386 78.368C80.9386 77.8009 80.9386 77.2094 80.9386 76.5934C80.9386 75.9774 80.9386 75.3858 80.9386 74.8187C80.9386 74.2418 80.9386 73.7334 80.9386 73.2934C80.9386 72.8534 80.9386 72.5307 80.9386 72.3254C80.9386 72.0711 80.9239 71.7778 80.8946 71.4454C80.875 71.1129 80.8408 70.8196 80.7919 70.5654H83.0799C83.0506 70.8196 83.0213 71.1031 82.9919 71.416C82.9626 71.7191 82.9479 72.0222 82.9479 72.3254C82.9479 72.5991 82.9479 72.9707 82.9479 73.44C82.9479 73.9094 82.9479 74.4325 82.9479 75.0094C82.9479 75.5765 82.9479 76.1582 82.9479 76.7547C82.9479 77.3414 82.9479 77.9085 82.9479 78.456C82.9479 79.0036 82.9479 79.4827 82.9479 79.8934C82.9479 80.2942 82.9479 80.5827 82.9479 80.7587C82.9479 80.8956 82.9528 81.0911 82.9626 81.3454C82.9724 81.5898 82.9919 81.844 83.0213 82.108C83.0506 82.372 83.0701 82.6067 83.0799 82.812H80.7919C80.831 82.5187 80.8653 82.1765 80.8946 81.7854C80.9239 81.3942 80.9386 81.052 80.9386 80.7587ZM82.5079 74.364C82.9968 74.4911 83.5444 74.6574 84.1506 74.8627C84.7568 75.0582 85.3679 75.2685 85.9839 75.4934C86.5999 75.7182 87.1768 75.9431 87.7146 76.168C88.2621 76.3831 88.7168 76.5836 89.0786 76.7694L88.2426 78.7934C87.8319 78.5782 87.3773 78.3631 86.8786 78.148C86.3799 77.9231 85.8715 77.708 85.3533 77.5027C84.8448 77.2974 84.3413 77.1067 83.8426 76.9307C83.3537 76.7547 82.9088 76.5982 82.5079 76.4614V74.364Z" fill="white"/>
<path d="M26.3067 22.8745H27.5167V25.8245C27.5167 26.2578 27.5034 26.7345 27.4767 27.2545C27.4567 27.7678 27.4101 28.2978 27.3367 28.8445C27.2634 29.3845 27.1567 29.9111 27.0167 30.4245C26.8767 30.9311 26.6901 31.3945 26.4567 31.8145C26.3834 31.7478 26.2767 31.6745 26.1367 31.5945C26.0034 31.5145 25.8667 31.4378 25.7267 31.3645C25.5934 31.2978 25.4767 31.2478 25.3767 31.2145C25.5901 30.8278 25.7567 30.4078 25.8767 29.9545C26.0034 29.4945 26.0967 29.0245 26.1567 28.5445C26.2167 28.0578 26.2567 27.5845 26.2767 27.1245C26.2967 26.6578 26.3067 26.2278 26.3067 25.8345V22.8745ZM27.2067 22.8745H34.1667V25.5745H27.2067V24.5545H32.9567V23.8845H27.2067V22.8745ZM29.9467 26.2645H31.1267V30.1045C31.1267 30.3045 31.1601 30.4345 31.2267 30.4945C31.2934 30.5478 31.4501 30.5745 31.6967 30.5745C31.7367 30.5745 31.8034 30.5745 31.8967 30.5745C31.9901 30.5745 32.0967 30.5745 32.2167 30.5745C32.3367 30.5745 32.4567 30.5745 32.5767 30.5745C32.6967 30.5745 32.8067 30.5745 32.9067 30.5745C33.0067 30.5745 33.0834 30.5745 33.1367 30.5745C33.2701 30.5745 33.3701 30.5511 33.4367 30.5045C33.5101 30.4578 33.5601 30.3711 33.5867 30.2445C33.6201 30.1111 33.6467 29.9178 33.6667 29.6645C33.8001 29.7511 33.9667 29.8378 34.1667 29.9245C34.3734 30.0045 34.5601 30.0645 34.7267 30.1045C34.6867 30.4978 34.6134 30.8078 34.5067 31.0345C34.4001 31.2611 34.2467 31.4178 34.0467 31.5045C33.8467 31.5978 33.5801 31.6445 33.2467 31.6445C33.1934 31.6445 33.1067 31.6445 32.9867 31.6445C32.8734 31.6445 32.7434 31.6445 32.5967 31.6445C32.4567 31.6445 32.3167 31.6445 32.1767 31.6445C32.0367 31.6445 31.9101 31.6445 31.7967 31.6445C31.6901 31.6445 31.6067 31.6445 31.5467 31.6445C31.1267 31.6445 30.8001 31.5978 30.5667 31.5045C30.3334 31.4178 30.1701 31.2611 30.0767 31.0345C29.9901 30.8145 29.9467 30.5078 29.9467 30.1145V26.2645ZM32.2267 25.3945L33.1767 26.1645C32.7167 26.3245 32.2034 26.4678 31.6367 26.5945C31.0701 26.7211 30.4901 26.8311 29.8967 26.9245C29.3034 27.0111 28.7234 27.0845 28.1567 27.1445C28.1301 27.0311 28.0867 26.8878 28.0267 26.7145C27.9667 26.5411 27.9067 26.4011 27.8467 26.2945C28.2401 26.2545 28.6401 26.2011 29.0467 26.1345C29.4601 26.0678 29.8601 25.9978 30.2467 25.9245C30.6401 25.8445 31.0034 25.7611 31.3367 25.6745C31.6767 25.5811 31.9734 25.4878 32.2267 25.3945ZM27.7867 27.7345L33.7067 26.8745L33.8867 27.8345L27.9767 28.7145L27.7867 27.7345ZM27.5667 29.3345L34.3667 28.3445L34.5467 29.2945L27.7467 30.3245L27.5667 29.3345ZM38.2867 23.5445H44.6967V24.5045H38.2867V23.5445ZM40.7867 24.0145L42.1667 24.0945C42.0734 24.3611 41.9634 24.6211 41.8367 24.8745C41.7167 25.1278 41.6101 25.3478 41.5167 25.5345L40.5467 25.3645C40.6001 25.1578 40.6501 24.9311 40.6967 24.6845C40.7434 24.4311 40.7734 24.2078 40.7867 24.0145ZM42.4767 22.4445L43.6867 22.7045C43.5534 22.9178 43.4201 23.1245 43.2867 23.3245C43.1534 23.5245 43.0334 23.6978 42.9267 23.8445L41.9167 23.6045C41.9834 23.4911 42.0501 23.3678 42.1167 23.2345C42.1901 23.0945 42.2567 22.9578 42.3167 22.8245C42.3834 22.6845 42.4367 22.5578 42.4767 22.4445ZM39.2267 22.8045L40.1667 22.4545C40.3001 22.6078 40.4301 22.7811 40.5567 22.9745C40.6901 23.1678 40.7801 23.3411 40.8267 23.4945L39.8267 23.8845C39.7801 23.7378 39.7001 23.5611 39.5867 23.3545C39.4734 23.1478 39.3534 22.9645 39.2267 22.8045ZM37.9367 26.3445V30.0345H36.7667V27.4545H35.6067V26.3445H37.9367ZM37.9367 29.5145C38.1434 29.8411 38.4334 30.0811 38.8067 30.2345C39.1801 30.3878 39.6267 30.4745 40.1467 30.4945C40.4401 30.5078 40.7867 30.5178 41.1867 30.5245C41.5934 30.5245 42.0201 30.5211 42.4667 30.5145C42.9134 30.5078 43.3501 30.4945 43.7767 30.4745C44.2101 30.4545 44.5934 30.4311 44.9267 30.4045C44.8867 30.4978 44.8401 30.6178 44.7867 30.7645C44.7334 30.9111 44.6834 31.0611 44.6367 31.2145C44.5967 31.3678 44.5667 31.5045 44.5467 31.6245C44.2467 31.6445 43.9034 31.6578 43.5167 31.6645C43.1301 31.6778 42.7334 31.6845 42.3267 31.6845C41.9201 31.6911 41.5267 31.6911 41.1467 31.6845C40.7667 31.6778 40.4267 31.6678 40.1267 31.6545C39.5134 31.6278 38.9901 31.5311 38.5567 31.3645C38.1234 31.2045 37.7401 30.9311 37.4067 30.5445C37.1867 30.7311 36.9601 30.9245 36.7267 31.1245C36.5001 31.3245 36.2501 31.5311 35.9767 31.7445L35.3867 30.4945C35.6201 30.3545 35.8634 30.2011 36.1167 30.0345C36.3701 29.8678 36.6134 29.6945 36.8467 29.5145H37.9367ZM35.6167 23.4045L36.5067 22.6845C36.7134 22.8178 36.9234 22.9745 37.1367 23.1545C37.3501 23.3278 37.5501 23.5078 37.7367 23.6945C37.9234 23.8745 38.0734 24.0411 38.1867 24.1945L37.2367 24.9945C37.1367 24.8345 36.9967 24.6611 36.8167 24.4745C36.6434 24.2878 36.4501 24.1011 36.2367 23.9145C36.0234 23.7211 35.8167 23.5511 35.6167 23.4045ZM40.1067 27.2245V27.7545H42.8267V27.2245H40.1067ZM40.1067 28.5545V29.0745H42.8267V28.5545H40.1067ZM40.1067 25.9045V26.4245H42.8267V25.9045H40.1067ZM38.9767 25.0345H44.0167V29.9445H38.9767V25.0345ZM52.7767 22.7045C52.8634 22.8245 52.9567 22.9678 53.0567 23.1345C53.1567 23.3011 53.2501 23.4678 53.3367 23.6345C53.4301 23.8011 53.5101 23.9478 53.5767 24.0745L52.7667 24.4245C52.6667 24.2178 52.5434 23.9845 52.3967 23.7245C52.2567 23.4578 52.1201 23.2278 51.9867 23.0345L52.7767 22.7045ZM53.9567 22.2545C54.0501 22.3811 54.1467 22.5311 54.2467 22.7045C54.3467 22.8711 54.4434 23.0378 54.5367 23.2045C54.6367 23.3645 54.7134 23.5011 54.7667 23.6145L53.9767 23.9645C53.8701 23.7511 53.7434 23.5145 53.5967 23.2545C53.4501 22.9945 53.3067 22.7711 53.1667 22.5845L53.9567 22.2545ZM48.6567 23.9845C48.6301 23.8378 48.6001 23.7045 48.5667 23.5845C48.5334 23.4645 48.4967 23.3445 48.4567 23.2245L49.8667 22.9945C49.8801 23.0945 49.8934 23.2178 49.9067 23.3645C49.9267 23.5111 49.9501 23.6445 49.9767 23.7645C49.9901 23.8645 50.0201 24.0411 50.0667 24.2945C50.1134 24.5478 50.1701 24.8545 50.2367 25.2145C50.3034 25.5745 50.3767 25.9611 50.4567 26.3745C50.5434 26.7878 50.6267 27.2078 50.7067 27.6345C50.7867 28.0611 50.8634 28.4645 50.9367 28.8445C51.0167 29.2245 51.0834 29.5611 51.1367 29.8545C51.1967 30.1478 51.2401 30.3645 51.2667 30.5045C51.3001 30.6511 51.3401 30.8111 51.3867 30.9845C51.4334 31.1578 51.4801 31.3245 51.5267 31.4845L50.0867 31.7445C50.0601 31.5578 50.0367 31.3778 50.0167 31.2045C50.0034 31.0378 49.9801 30.8811 49.9467 30.7345C49.9267 30.6011 49.8901 30.3945 49.8367 30.1145C49.7901 29.8345 49.7301 29.5078 49.6567 29.1345C49.5834 28.7611 49.5067 28.3678 49.4267 27.9545C49.3467 27.5345 49.2667 27.1145 49.1867 26.6945C49.1067 26.2745 49.0301 25.8811 48.9567 25.5145C48.8901 25.1478 48.8301 24.8311 48.7767 24.5645C48.7234 24.2911 48.6834 24.0978 48.6567 23.9845ZM45.9267 25.2545C46.0867 25.2411 46.2434 25.2311 46.3967 25.2245C46.5501 25.2111 46.7034 25.1978 46.8567 25.1845C47.0034 25.1645 47.2101 25.1378 47.4767 25.1045C47.7434 25.0645 48.0501 25.0178 48.3967 24.9645C48.7434 24.9111 49.1001 24.8578 49.4667 24.8045C49.8401 24.7445 50.2001 24.6878 50.5467 24.6345C50.8934 24.5745 51.2001 24.5211 51.4667 24.4745C51.7401 24.4278 51.9534 24.3911 52.1067 24.3645C52.2667 24.3311 52.4334 24.2978 52.6067 24.2645C52.7801 24.2245 52.9267 24.1845 53.0467 24.1445L53.2867 25.4645C53.1801 25.4711 53.0367 25.4878 52.8567 25.5145C52.6767 25.5411 52.5134 25.5645 52.3667 25.5845C52.1867 25.6111 51.9501 25.6478 51.6567 25.6945C51.3701 25.7345 51.0501 25.7845 50.6967 25.8445C50.3434 25.8978 49.9834 25.9545 49.6167 26.0145C49.2501 26.0745 48.9001 26.1311 48.5667 26.1845C48.2334 26.2378 47.9401 26.2878 47.6867 26.3345C47.4334 26.3745 47.2434 26.4045 47.1167 26.4245C46.9567 26.4578 46.8067 26.4911 46.6667 26.5245C46.5267 26.5511 46.3701 26.5878 46.1967 26.6345L45.9267 25.2545ZM45.9367 28.1945C46.0701 28.1878 46.2367 28.1745 46.4367 28.1545C46.6434 28.1278 46.8234 28.1045 46.9767 28.0845C47.1567 28.0578 47.3967 28.0211 47.6967 27.9745C47.9967 27.9278 48.3334 27.8745 48.7067 27.8145C49.0867 27.7545 49.4767 27.6911 49.8767 27.6245C50.2767 27.5578 50.6667 27.4945 51.0467 27.4345C51.4267 27.3678 51.7734 27.3078 52.0867 27.2545C52.4001 27.2011 52.6534 27.1578 52.8467 27.1245C53.0401 27.0845 53.2234 27.0445 53.3967 27.0045C53.5767 26.9645 53.7334 26.9245 53.8667 26.8845L54.1367 28.2045C54.0034 28.2111 53.8401 28.2311 53.6467 28.2645C53.4601 28.2911 53.2701 28.3211 53.0767 28.3545C52.8634 28.3878 52.5967 28.4311 52.2767 28.4845C51.9567 28.5311 51.6034 28.5878 51.2167 28.6545C50.8367 28.7145 50.4467 28.7778 50.0467 28.8445C49.6467 28.9045 49.2634 28.9678 48.8967 29.0345C48.5301 29.0945 48.2001 29.1511 47.9067 29.2045C47.6134 29.2511 47.3834 29.2911 47.2167 29.3245C47.0034 29.3645 46.8101 29.4011 46.6367 29.4345C46.4701 29.4611 46.3301 29.4911 46.2167 29.5245L45.9367 28.1945ZM64.0567 24.2845C64.0101 24.3778 63.9667 24.4911 63.9267 24.6245C63.8934 24.7511 63.8634 24.8711 63.8367 24.9845C63.7834 25.2245 63.7134 25.4978 63.6267 25.8045C63.5401 26.1111 63.4367 26.4278 63.3167 26.7545C63.1967 27.0811 63.0534 27.4045 62.8867 27.7245C62.7267 28.0445 62.5434 28.3445 62.3367 28.6245C62.0367 29.0178 61.6867 29.3911 61.2867 29.7445C60.8867 30.0911 60.4401 30.4045 59.9467 30.6845C59.4534 30.9578 58.9101 31.1911 58.3167 31.3845L57.2267 30.1945C57.8867 30.0345 58.4567 29.8378 58.9367 29.6045C59.4234 29.3645 59.8467 29.0978 60.2067 28.8045C60.5667 28.5045 60.8801 28.1845 61.1467 27.8445C61.3667 27.5645 61.5534 27.2611 61.7067 26.9345C61.8667 26.6078 61.9967 26.2778 62.0967 25.9445C62.2034 25.6111 62.2767 25.3045 62.3167 25.0245C62.2167 25.0245 62.0501 25.0245 61.8167 25.0245C61.5901 25.0245 61.3201 25.0245 61.0067 25.0245C60.7001 25.0245 60.3767 25.0245 60.0367 25.0245C59.7034 25.0245 59.3801 25.0245 59.0667 25.0245C58.7534 25.0245 58.4701 25.0245 58.2167 25.0245C57.9701 25.0245 57.7834 25.0245 57.6567 25.0245C57.4301 25.0245 57.2067 25.0278 56.9867 25.0345C56.7734 25.0411 56.6001 25.0511 56.4667 25.0645V23.6545C56.5734 23.6611 56.6967 23.6711 56.8367 23.6845C56.9767 23.6978 57.1234 23.7111 57.2767 23.7245C57.4301 23.7311 57.5601 23.7345 57.6667 23.7345C57.7667 23.7345 57.9167 23.7345 58.1167 23.7345C58.3167 23.7345 58.5467 23.7345 58.8067 23.7345C59.0667 23.7345 59.3367 23.7345 59.6167 23.7345C59.9034 23.7345 60.1867 23.7345 60.4667 23.7345C60.7467 23.7345 61.0101 23.7345 61.2567 23.7345C61.5034 23.7345 61.7167 23.7345 61.8967 23.7345C62.0834 23.7345 62.2134 23.7345 62.2867 23.7345C62.3867 23.7345 62.5101 23.7311 62.6567 23.7245C62.8034 23.7111 62.9401 23.6878 63.0667 23.6545L64.0567 24.2845ZM68.3067 29.9845C68.3067 29.8578 68.3067 29.6511 68.3067 29.3645C68.3067 29.0711 68.3067 28.7345 68.3067 28.3545C68.3067 27.9678 68.3067 27.5645 68.3067 27.1445C68.3067 26.7245 68.3067 26.3211 68.3067 25.9345C68.3067 25.5411 68.3067 25.1945 68.3067 24.8945C68.3067 24.5945 68.3067 24.3745 68.3067 24.2345C68.3067 24.0611 68.2967 23.8611 68.2767 23.6345C68.2634 23.4078 68.2401 23.2078 68.2067 23.0345H69.7667C69.7467 23.2078 69.7267 23.4011 69.7067 23.6145C69.6867 23.8211 69.6767 24.0278 69.6767 24.2345C69.6767 24.4211 69.6767 24.6745 69.6767 24.9945C69.6767 25.3145 69.6767 25.6711 69.6767 26.0645C69.6767 26.4511 69.6767 26.8478 69.6767 27.2545C69.6767 27.6545 69.6767 28.0411 69.6767 28.4145C69.6767 28.7878 69.6767 29.1145 69.6767 29.3945C69.6767 29.6678 69.6767 29.8645 69.6767 29.9845C69.6767 30.0778 69.6801 30.2111 69.6867 30.3845C69.6934 30.5511 69.7067 30.7245 69.7267 30.9045C69.7467 31.0845 69.7601 31.2445 69.7667 31.3845H68.2067C68.2334 31.1845 68.2567 30.9511 68.2767 30.6845C68.2967 30.4178 68.3067 30.1845 68.3067 29.9845ZM69.3767 25.6245C69.7101 25.7111 70.0834 25.8245 70.4967 25.9645C70.9101 26.0978 71.3267 26.2411 71.7467 26.3945C72.1667 26.5478 72.5601 26.7011 72.9267 26.8545C73.3001 27.0011 73.6101 27.1378 73.8567 27.2645L73.2867 28.6445C73.0067 28.4978 72.6967 28.3511 72.3567 28.2045C72.0167 28.0511 71.6701 27.9045 71.3167 27.7645C70.9701 27.6245 70.6267 27.4945 70.2867 27.3745C69.9534 27.2545 69.6501 27.1478 69.3767 27.0545V25.6245ZM80.0267 22.9245C79.9934 23.1045 79.9401 23.3378 79.8667 23.6245C79.7934 23.9111 79.6867 24.2345 79.5467 24.5945C79.4401 24.8411 79.3167 25.0978 79.1767 25.3645C79.0434 25.6245 78.9067 25.8578 78.7667 26.0645C78.8534 26.0245 78.9634 25.9911 79.0967 25.9645C79.2301 25.9311 79.3667 25.9078 79.5067 25.8945C79.6534 25.8745 79.7834 25.8645 79.8967 25.8645C80.3167 25.8645 80.6634 25.9845 80.9367 26.2245C81.2167 26.4645 81.3567 26.8211 81.3567 27.2945C81.3567 27.4278 81.3567 27.5911 81.3567 27.7845C81.3634 27.9778 81.3701 28.1811 81.3767 28.3945C81.3834 28.6011 81.3901 28.8045 81.3967 29.0045C81.4034 29.2045 81.4067 29.3845 81.4067 29.5445H80.2067C80.2201 29.4311 80.2267 29.2978 80.2267 29.1445C80.2334 28.9845 80.2367 28.8178 80.2367 28.6445C80.2434 28.4711 80.2467 28.3045 80.2467 28.1445C80.2534 27.9778 80.2567 27.8278 80.2567 27.6945C80.2567 27.3745 80.1701 27.1545 79.9967 27.0345C79.8301 26.9078 79.6434 26.8445 79.4367 26.8445C79.1567 26.8445 78.8734 26.9145 78.5867 27.0545C78.3067 27.1878 78.0701 27.3478 77.8767 27.5345C77.7301 27.6811 77.5801 27.8445 77.4267 28.0245C77.2801 28.2045 77.1201 28.4078 76.9467 28.6345L75.8767 27.8345C76.3101 27.4345 76.6834 27.0478 76.9967 26.6745C77.3167 26.3011 77.5867 25.9311 77.8067 25.5645C78.0267 25.1978 78.2067 24.8311 78.3467 24.4645C78.4467 24.1978 78.5267 23.9211 78.5867 23.6345C78.6534 23.3411 78.6934 23.0678 78.7067 22.8145L80.0267 22.9245ZM76.2667 23.8445C76.5201 23.8845 76.8134 23.9145 77.1467 23.9345C77.4801 23.9545 77.7734 23.9645 78.0267 23.9645C78.4667 23.9645 78.9467 23.9545 79.4667 23.9345C79.9934 23.9145 80.5267 23.8811 81.0667 23.8345C81.6067 23.7811 82.1201 23.7145 82.6067 23.6345L82.5967 24.7945C82.2434 24.8411 81.8601 24.8845 81.4467 24.9245C81.0401 24.9578 80.6234 24.9878 80.1967 25.0145C79.7767 25.0345 79.3734 25.0511 78.9867 25.0645C78.6001 25.0711 78.2567 25.0745 77.9567 25.0745C77.8234 25.0745 77.6567 25.0745 77.4567 25.0745C77.2634 25.0678 77.0634 25.0611 76.8567 25.0545C76.6501 25.0411 76.4534 25.0278 76.2667 25.0145V23.8445ZM84.1867 26.6845C84.0801 26.7178 83.9534 26.7611 83.8067 26.8145C83.6667 26.8611 83.5234 26.9111 83.3767 26.9645C83.2367 27.0111 83.1101 27.0578 82.9967 27.1045C82.6767 27.2311 82.2967 27.3845 81.8567 27.5645C81.4234 27.7445 80.9701 27.9545 80.4967 28.1945C80.1967 28.3545 79.9434 28.5111 79.7367 28.6645C79.5301 28.8178 79.3734 28.9745 79.2667 29.1345C79.1601 29.2878 79.1067 29.4578 79.1067 29.6445C79.1067 29.7845 79.1367 29.9011 79.1967 29.9945C79.2567 30.0811 79.3467 30.1511 79.4667 30.2045C79.5867 30.2578 79.7367 30.2945 79.9167 30.3145C80.0967 30.3345 80.3101 30.3445 80.5567 30.3445C80.9834 30.3445 81.4534 30.3211 81.9667 30.2745C82.4801 30.2211 82.9567 30.1511 83.3967 30.0645L83.3567 31.3545C83.1434 31.3811 82.8734 31.4078 82.5467 31.4345C82.2201 31.4678 81.8801 31.4911 81.5267 31.5045C81.1801 31.5178 80.8467 31.5245 80.5267 31.5245C80.0067 31.5245 79.5401 31.4745 79.1267 31.3745C78.7134 31.2745 78.3867 31.1045 78.1467 30.8645C77.9134 30.6178 77.7967 30.2811 77.7967 29.8545C77.7967 29.5078 77.8734 29.1945 78.0267 28.9145C78.1867 28.6345 78.3967 28.3811 78.6567 28.1545C78.9167 27.9278 79.2001 27.7245 79.5067 27.5445C79.8201 27.3578 80.1267 27.1878 80.4267 27.0345C80.7334 26.8745 81.0101 26.7378 81.2567 26.6245C81.5034 26.5111 81.7334 26.4111 81.9467 26.3245C82.1667 26.2311 82.3767 26.1378 82.5767 26.0445C82.7701 25.9578 82.9567 25.8745 83.1367 25.7945C83.3167 25.7078 83.5001 25.6178 83.6867 25.5245L84.1867 26.6845Z" fill="white"/>
</svg>
