<svg width="358" height="40" viewBox="0 0 358 40" fill="none" xmlns="http://www.w3.org/2000/svg">
<mask id="path-1-outside-1_26_1523" maskUnits="userSpaceOnUse" x="0.679199" y="0" width="357" height="40" fill="black">
<rect fill="white" x="0.679199" width="357" height="40"/>
<path d="M1.6792 19.624C1.6792 17.224 2.1272 14.952 3.0232 12.808C3.9512 10.664 5.2312 8.76 6.8632 7.096C8.4952 5.432 10.3832 4.136 12.5272 3.208C14.6712 2.248 16.9752 1.768 19.4392 1.768C21.8712 1.768 24.1592 2.248 26.3032 3.208C28.4472 4.136 30.3512 5.432 32.0152 7.096C33.6792 8.76 34.9752 10.664 35.9032 12.808C36.8312 14.952 37.2952 17.224 37.2952 19.624C37.2952 22.088 36.8312 24.392 35.9032 26.536C34.9752 28.68 33.6792 30.568 32.0152 32.2C30.3832 33.832 28.4792 35.112 26.3032 36.04C24.1592 36.936 21.8712 37.384 19.4392 37.384C16.9752 37.384 14.6712 36.936 12.5272 36.04C10.3832 35.144 8.4952 33.896 6.8632 32.296C5.2312 30.664 3.9512 28.776 3.0232 26.632C2.1272 24.456 1.6792 22.12 1.6792 19.624ZM6.9592 19.624C6.9592 21.416 7.2792 23.096 7.9192 24.664C8.5912 26.2 9.5032 27.56 10.6552 28.744C11.8072 29.896 13.1352 30.808 14.6392 31.48C16.1752 32.12 17.8232 32.44 19.5832 32.44C21.3112 32.44 22.9272 32.12 24.4312 31.48C25.9352 30.808 27.2472 29.896 28.3672 28.744C29.5192 27.56 30.4152 26.2 31.0552 24.664C31.6952 23.096 32.0152 21.416 32.0152 19.624C32.0152 17.832 31.6792 16.168 31.0072 14.632C30.3672 13.064 29.4712 11.688 28.3192 10.504C27.1992 9.32 25.8712 8.392 24.3352 7.72C22.8312 7.048 21.2152 6.712 19.4872 6.712C17.6952 6.712 16.0472 7.048 14.5432 7.72C13.0392 8.392 11.7112 9.32 10.5592 10.504C9.4072 11.688 8.5112 13.064 7.8712 14.632C7.2632 16.2 6.9592 17.864 6.9592 19.624Z"/>
<path d="M88.7726 38.2L61.9406 11.56L63.4286 12.04L63.5726 37H58.3886V1.048H58.6286L85.1246 27.736L83.9246 27.4L83.8286 2.152H88.9166V38.2H88.7726Z"/>
<path d="M110.028 19.624C110.028 17.224 110.476 14.952 111.372 12.808C112.3 10.664 113.58 8.76 115.212 7.096C116.844 5.432 118.732 4.136 120.876 3.208C123.02 2.248 125.324 1.768 127.788 1.768C130.22 1.768 132.508 2.248 134.652 3.208C136.796 4.136 138.7 5.432 140.364 7.096C142.028 8.76 143.324 10.664 144.252 12.808C145.18 14.952 145.644 17.224 145.644 19.624C145.644 22.088 145.18 24.392 144.252 26.536C143.324 28.68 142.028 30.568 140.364 32.2C138.732 33.832 136.828 35.112 134.652 36.04C132.508 36.936 130.22 37.384 127.788 37.384C125.324 37.384 123.02 36.936 120.876 36.04C118.732 35.144 116.844 33.896 115.212 32.296C113.58 30.664 112.3 28.776 111.372 26.632C110.476 24.456 110.028 22.12 110.028 19.624ZM115.308 19.624C115.308 21.416 115.628 23.096 116.268 24.664C116.94 26.2 117.852 27.56 119.004 28.744C120.156 29.896 121.484 30.808 122.988 31.48C124.524 32.12 126.172 32.44 127.932 32.44C129.66 32.44 131.276 32.12 132.78 31.48C134.284 30.808 135.596 29.896 136.716 28.744C137.868 27.56 138.764 26.2 139.404 24.664C140.044 23.096 140.364 21.416 140.364 19.624C140.364 17.832 140.028 16.168 139.356 14.632C138.716 13.064 137.82 11.688 136.668 10.504C135.548 9.32 134.22 8.392 132.684 7.72C131.18 7.048 129.564 6.712 127.836 6.712C126.044 6.712 124.396 7.048 122.892 7.72C121.388 8.392 120.06 9.32 118.908 10.504C117.756 11.688 116.86 13.064 116.22 14.632C115.612 16.2 115.308 17.864 115.308 19.624Z"/>
<path d="M166.737 37V1H166.785L185.313 27.256L183.105 26.776L201.537 1H201.633V37H196.545V12.568L196.881 15.208L184.017 33.4H183.921L170.817 15.208L171.681 12.808V37H166.737Z"/>
<path d="M224.849 2.152H229.985V37H224.849V2.152Z"/>
<path d="M278.875 34.36C278.363 34.712 277.595 35.144 276.571 35.656C275.579 36.136 274.395 36.552 273.019 36.904C271.675 37.256 270.187 37.416 268.555 37.384C265.835 37.352 263.387 36.872 261.211 35.944C259.067 35.016 257.243 33.752 255.739 32.152C254.235 30.52 253.067 28.664 252.235 26.584C251.435 24.472 251.035 22.232 251.035 19.864C251.035 17.24 251.451 14.84 252.283 12.664C253.115 10.456 254.299 8.536 255.835 6.904C257.403 5.272 259.227 4.008 261.307 3.112C263.419 2.216 265.723 1.768 268.219 1.768C270.363 1.768 272.299 2.056 274.027 2.632C275.755 3.208 277.211 3.88 278.395 4.648L276.379 9.448C275.451 8.808 274.299 8.2 272.923 7.624C271.579 7.016 270.075 6.712 268.411 6.712C266.779 6.712 265.227 7.048 263.755 7.72C262.315 8.36 261.035 9.272 259.915 10.456C258.827 11.608 257.963 12.968 257.323 14.536C256.683 16.072 256.363 17.752 256.363 19.576C256.363 21.432 256.651 23.144 257.227 24.712C257.803 26.28 258.619 27.64 259.675 28.792C260.763 29.944 262.059 30.84 263.563 31.48C265.067 32.12 266.763 32.44 268.651 32.44C270.443 32.44 272.011 32.168 273.355 31.624C274.731 31.08 275.851 30.456 276.715 29.752L278.875 34.36Z"/>
<path d="M327.946 2.152V37H322.81V21.976H305.146V37H300.01V2.152H305.146V17.08H322.81V2.152H327.946Z"/>
<path d="M351.185 2.152H356.321V37H351.185V2.152Z"/>
</mask>
<path d="M1.6792 19.624C1.6792 17.224 2.1272 14.952 3.0232 12.808C3.9512 10.664 5.2312 8.76 6.8632 7.096C8.4952 5.432 10.3832 4.136 12.5272 3.208C14.6712 2.248 16.9752 1.768 19.4392 1.768C21.8712 1.768 24.1592 2.248 26.3032 3.208C28.4472 4.136 30.3512 5.432 32.0152 7.096C33.6792 8.76 34.9752 10.664 35.9032 12.808C36.8312 14.952 37.2952 17.224 37.2952 19.624C37.2952 22.088 36.8312 24.392 35.9032 26.536C34.9752 28.68 33.6792 30.568 32.0152 32.2C30.3832 33.832 28.4792 35.112 26.3032 36.04C24.1592 36.936 21.8712 37.384 19.4392 37.384C16.9752 37.384 14.6712 36.936 12.5272 36.04C10.3832 35.144 8.4952 33.896 6.8632 32.296C5.2312 30.664 3.9512 28.776 3.0232 26.632C2.1272 24.456 1.6792 22.12 1.6792 19.624ZM6.9592 19.624C6.9592 21.416 7.2792 23.096 7.9192 24.664C8.5912 26.2 9.5032 27.56 10.6552 28.744C11.8072 29.896 13.1352 30.808 14.6392 31.48C16.1752 32.12 17.8232 32.44 19.5832 32.44C21.3112 32.44 22.9272 32.12 24.4312 31.48C25.9352 30.808 27.2472 29.896 28.3672 28.744C29.5192 27.56 30.4152 26.2 31.0552 24.664C31.6952 23.096 32.0152 21.416 32.0152 19.624C32.0152 17.832 31.6792 16.168 31.0072 14.632C30.3672 13.064 29.4712 11.688 28.3192 10.504C27.1992 9.32 25.8712 8.392 24.3352 7.72C22.8312 7.048 21.2152 6.712 19.4872 6.712C17.6952 6.712 16.0472 7.048 14.5432 7.72C13.0392 8.392 11.7112 9.32 10.5592 10.504C9.4072 11.688 8.5112 13.064 7.8712 14.632C7.2632 16.2 6.9592 17.864 6.9592 19.624Z" stroke="#9ED0E0" stroke-width="2" mask="url(#path-1-outside-1_26_1523)"/>
<path d="M88.7726 38.2L61.9406 11.56L63.4286 12.04L63.5726 37H58.3886V1.048H58.6286L85.1246 27.736L83.9246 27.4L83.8286 2.152H88.9166V38.2H88.7726Z" stroke="#9ED0E0" stroke-width="2" mask="url(#path-1-outside-1_26_1523)"/>
<path d="M110.028 19.624C110.028 17.224 110.476 14.952 111.372 12.808C112.3 10.664 113.58 8.76 115.212 7.096C116.844 5.432 118.732 4.136 120.876 3.208C123.02 2.248 125.324 1.768 127.788 1.768C130.22 1.768 132.508 2.248 134.652 3.208C136.796 4.136 138.7 5.432 140.364 7.096C142.028 8.76 143.324 10.664 144.252 12.808C145.18 14.952 145.644 17.224 145.644 19.624C145.644 22.088 145.18 24.392 144.252 26.536C143.324 28.68 142.028 30.568 140.364 32.2C138.732 33.832 136.828 35.112 134.652 36.04C132.508 36.936 130.22 37.384 127.788 37.384C125.324 37.384 123.02 36.936 120.876 36.04C118.732 35.144 116.844 33.896 115.212 32.296C113.58 30.664 112.3 28.776 111.372 26.632C110.476 24.456 110.028 22.12 110.028 19.624ZM115.308 19.624C115.308 21.416 115.628 23.096 116.268 24.664C116.94 26.2 117.852 27.56 119.004 28.744C120.156 29.896 121.484 30.808 122.988 31.48C124.524 32.12 126.172 32.44 127.932 32.44C129.66 32.44 131.276 32.12 132.78 31.48C134.284 30.808 135.596 29.896 136.716 28.744C137.868 27.56 138.764 26.2 139.404 24.664C140.044 23.096 140.364 21.416 140.364 19.624C140.364 17.832 140.028 16.168 139.356 14.632C138.716 13.064 137.82 11.688 136.668 10.504C135.548 9.32 134.22 8.392 132.684 7.72C131.18 7.048 129.564 6.712 127.836 6.712C126.044 6.712 124.396 7.048 122.892 7.72C121.388 8.392 120.06 9.32 118.908 10.504C117.756 11.688 116.86 13.064 116.22 14.632C115.612 16.2 115.308 17.864 115.308 19.624Z" stroke="#9ED0E0" stroke-width="2" mask="url(#path-1-outside-1_26_1523)"/>
<path d="M166.737 37V1H166.785L185.313 27.256L183.105 26.776L201.537 1H201.633V37H196.545V12.568L196.881 15.208L184.017 33.4H183.921L170.817 15.208L171.681 12.808V37H166.737Z" stroke="#9ED0E0" stroke-width="2" mask="url(#path-1-outside-1_26_1523)"/>
<path d="M224.849 2.152H229.985V37H224.849V2.152Z" stroke="#9ED0E0" stroke-width="2" mask="url(#path-1-outside-1_26_1523)"/>
<path d="M278.875 34.36C278.363 34.712 277.595 35.144 276.571 35.656C275.579 36.136 274.395 36.552 273.019 36.904C271.675 37.256 270.187 37.416 268.555 37.384C265.835 37.352 263.387 36.872 261.211 35.944C259.067 35.016 257.243 33.752 255.739 32.152C254.235 30.52 253.067 28.664 252.235 26.584C251.435 24.472 251.035 22.232 251.035 19.864C251.035 17.24 251.451 14.84 252.283 12.664C253.115 10.456 254.299 8.536 255.835 6.904C257.403 5.272 259.227 4.008 261.307 3.112C263.419 2.216 265.723 1.768 268.219 1.768C270.363 1.768 272.299 2.056 274.027 2.632C275.755 3.208 277.211 3.88 278.395 4.648L276.379 9.448C275.451 8.808 274.299 8.2 272.923 7.624C271.579 7.016 270.075 6.712 268.411 6.712C266.779 6.712 265.227 7.048 263.755 7.72C262.315 8.36 261.035 9.272 259.915 10.456C258.827 11.608 257.963 12.968 257.323 14.536C256.683 16.072 256.363 17.752 256.363 19.576C256.363 21.432 256.651 23.144 257.227 24.712C257.803 26.28 258.619 27.64 259.675 28.792C260.763 29.944 262.059 30.84 263.563 31.48C265.067 32.12 266.763 32.44 268.651 32.44C270.443 32.44 272.011 32.168 273.355 31.624C274.731 31.08 275.851 30.456 276.715 29.752L278.875 34.36Z" stroke="#9ED0E0" stroke-width="2" mask="url(#path-1-outside-1_26_1523)"/>
<path d="M327.946 2.152V37H322.81V21.976H305.146V37H300.01V2.152H305.146V17.08H322.81V2.152H327.946Z" stroke="#9ED0E0" stroke-width="2" mask="url(#path-1-outside-1_26_1523)"/>
<path d="M351.185 2.152H356.321V37H351.185V2.152Z" stroke="#9ED0E0" stroke-width="2" mask="url(#path-1-outside-1_26_1523)"/>
</svg>
