<svg width="335" height="105" viewBox="0 0 335 105" fill="none" xmlns="http://www.w3.org/2000/svg">
<g clip-path="url(#clip0_730_4374)">
<g clip-path="url(#clip1_730_4374)">
<rect width="335" height="53" fill="white"/>
<path d="M13.3251 44.8933V37.2493H8.58538V44.8933H5.07426V37.2493H0.126465V33.3452H5.07426V24.283H0.126465V20.3789H5.07426V12.7349H8.58538V20.3789H13.3251V12.7349H16.8362V20.3789H21.8444V24.283H16.8362V33.3452H21.8444V37.2493H16.8362V44.8933H13.3251ZM13.3251 33.3452V24.283H8.58538V33.3452H13.3251Z" fill="#4A3636"/>
<path d="M46.0999 49.9469C42.4008 49.9469 39.3932 46.6027 39.3932 42.4896V35.1368C39.0575 35.1741 38.7286 35.2114 38.3996 35.2114C38.0438 35.2114 37.7216 35.1815 37.406 35.1442C37.3792 42.5344 31.9682 48.5435 25.3084 48.5435H24.9258V44.6394H25.3084C30.0414 44.6394 33.8949 40.3546 33.8949 35.092V33.808C31.2431 32.0762 29.605 28.8887 29.605 25.4325V13.1977C29.605 7.80817 33.5525 3.41887 38.3996 3.41887C43.2467 3.41887 47.1405 7.80817 47.1405 13.1977V25.4325C47.1405 28.8738 45.5226 32.0613 42.9043 33.808V42.4896C42.9043 44.4454 44.3343 46.0428 46.0999 46.0428C47.8656 46.0428 49.2955 44.4528 49.2955 42.4896V42.0641H52.8066V42.4896C52.8066 46.6027 49.799 49.9469 46.0999 49.9469ZM33.1162 25.4325C33.1162 28.6723 35.486 31.3073 38.3996 31.3073C41.3133 31.3073 43.6294 28.6723 43.6294 25.4325V24.3277H33.1162V25.4325ZM43.6294 20.4237V18.2141H33.1162V20.4237H43.6294ZM43.6294 14.31V13.2052C43.6294 9.96549 41.2864 7.33042 38.3996 7.33042C35.5129 7.33042 33.1162 9.96549 33.1162 13.2052V14.31H43.6294Z" fill="#4A3636"/>
<path d="M70.9127 43.1614V39.2573H71.2954C76.5453 39.2573 80.815 34.5396 80.815 28.732C80.815 22.9244 76.5453 18.1469 71.2954 18.1469H55.7336V14.2428H71.2954C78.4787 14.2428 84.3261 20.7447 84.3261 28.732C84.3261 36.7193 78.4787 43.1614 71.2954 43.1614H70.9127Z" fill="#4A3636"/>
<path d="M102.426 43.1614V39.2573H102.808C108.756 39.2573 113.59 33.9051 113.59 27.3286V19.2517H105.668V15.3476H113.59V8.00972H117.101V15.3476H122.324V19.2517H117.101V27.3286C117.101 36.0624 110.69 43.1614 102.808 43.1614H102.426ZM92.3623 37.2269V12.5931H95.8734V32.6958C96.6388 32.0613 97.0953 31.0834 97.0953 30.0159V29.5904H100.606V30.0159C100.606 33.9946 97.6995 37.2269 94.1212 37.2269H92.3623Z" fill="#4A3636"/>
<path d="M153.79 44.5648C145.573 44.5648 138.886 37.1597 138.886 28.0601C138.886 23.5887 140.43 19.4383 143.236 16.3852C143.545 16.0418 143.874 15.7134 144.21 15.3998H128.494V11.4958H158.019V15.3998H153.79C150.769 15.3998 147.916 16.7211 145.754 19.1322C143.592 21.4762 142.397 24.6487 142.397 28.0676C142.397 35.0173 147.506 40.6682 153.79 40.6682H154.173V44.5722H153.79V44.5648Z" fill="#4A3636"/>
<path d="M190.788 51.9027C186.632 51.9027 183.255 48.1479 183.255 43.5272V40.713H175.609V36.8089H183.255V34.5993H178.361V30.6952H183.255V28.2841C181.738 27.9034 180.389 27.0673 179.348 25.8431L179.093 25.5445L181.55 22.8124L181.819 23.111C182.678 24.0665 183.812 24.589 185.007 24.589C186.202 24.589 187.317 24.0665 188.149 23.111L188.411 22.8049L190.942 25.537L190.667 25.8431C189.593 27.0375 188.216 27.8885 186.766 28.2692V30.6803H191.224V34.5844H186.766V36.7939H193.916V40.698H186.766V43.5123C186.766 45.9756 188.572 47.9837 190.788 47.9837C193.003 47.9837 194.809 45.9756 194.809 43.5123V43.0868H198.32V43.5123C198.32 48.133 194.943 51.8877 190.788 51.8877V51.9027ZM161.92 40.28V36.3759H162.303C163.679 36.3759 166.874 36.0101 166.874 32.6435V14.9146H193.547C195.037 14.9146 196.246 13.5411 196.246 11.8541C196.246 10.167 195.037 8.85324 193.547 8.85324H167.042V4.94916H193.547C196.971 4.94916 199.757 8.04704 199.757 11.8541C199.757 15.6611 196.971 18.8187 193.547 18.8187H170.386V32.6435C170.386 37.212 167.136 40.28 162.303 40.28H161.92Z" fill="#4A3636"/>
<path d="M231.035 52.3282C222.361 52.3282 215.312 44.5125 215.312 34.9054C215.312 32.2031 213.338 30.0085 210.908 30.0085C208.478 30.0085 206.504 32.2031 206.504 34.9054V35.3309H202.993V34.9054C202.993 30.0532 206.544 26.1044 210.908 26.1044C212.821 26.1044 214.379 24.3725 214.379 22.2451C214.379 20.1176 212.788 18.453 210.908 18.453C209.028 18.453 207.497 20.1549 207.497 22.2451V22.6706H203.986V22.2451C203.986 17.9976 207.095 14.5414 210.915 14.5414C214.734 14.5414 217.896 17.9976 217.896 22.2451C217.896 24.4099 217.104 26.4328 215.715 27.8959C217.675 29.5232 218.836 32.0986 218.836 34.9054C218.836 42.3627 224.315 48.4241 231.048 48.4241H231.431V52.3282H231.048H231.035ZM231.585 41.9969C227.584 41.9969 224.328 38.3765 224.328 33.9275V27.3808C224.328 22.9318 227.584 19.3114 231.585 19.3114C235.586 19.3114 238.789 22.9318 238.789 27.3808V33.9275C238.789 38.3765 235.56 41.9969 231.585 41.9969ZM228.087 35.4503C228.638 37.0254 230.014 38.0928 231.585 38.0928C233.156 38.0928 234.479 37.0104 235.029 35.4503H228.087ZM235.278 31.5462V29.7024H227.846V31.5462H235.278ZM235.022 25.7983C234.465 24.2755 233.096 23.223 231.585 23.223C230.075 23.223 228.651 24.283 228.094 25.7983H235.022ZM229.061 15.3999L231.592 12.6677L234.049 15.3999L231.592 18.132L229.061 15.3999ZM222.079 10.9882V7.08409H241.044V10.9882H222.079ZM208.444 7.32296L210.901 4.59085L213.432 7.32296L210.901 10.0551L208.444 7.32296ZM233.693 2.73211L236.15 0L238.607 2.73211L236.15 5.54634L233.693 2.73211ZM224.174 2.73211L226.691 0L229.148 2.73211L226.691 5.53887L224.167 2.73211H224.174Z" fill="#4A3636"/>
<path d="M250.014 44.8709V9.53255H253.525V40.8623C262.38 39.8695 269.261 31.4566 269.261 21.5135V21.088H272.772V21.5135C272.772 34.3903 263.346 44.8709 251.766 44.8709H250.007H250.014Z" fill="#4A3636"/>
<path d="M282.466 46.2145V8.00226H285.977V46.2145H282.466ZM288.032 29.0903L287.965 25.1862H296.981V29.0903H288.032Z" fill="#4A3636"/>
<path d="M313.368 42.1164C309.213 42.1164 305.836 38.3616 305.836 33.7409V20.4685C305.836 15.8552 309.213 12.093 313.368 12.093H326.956C331.112 12.093 334.489 15.8478 334.489 20.4685V33.7409C334.489 38.3541 331.112 42.1164 326.956 42.1164H313.368ZM313.368 16.0045C311.153 16.0045 309.347 18.0125 309.347 20.4759V33.7483C309.347 36.2117 311.153 38.2197 313.368 38.2197H326.956C329.172 38.2197 330.977 36.2117 330.977 33.7483V20.4759C330.977 18.0125 329.172 16.0045 326.956 16.0045H313.368Z" fill="#4A3636"/>
</g>
<g clip-path="url(#clip2_730_4374)">
<rect width="240" height="40" transform="translate(47.5 65)" fill="white"/>
<path d="M61.1012 104.488V90.1778H47.5239V86.2052H61.1012V78.0396H47.5239V74.067H61.1012V65.6051H65.1153V74.067H78.6312V78.0396H65.1153V86.2052H78.6312V90.1778H65.1153V104.488H61.1012Z" fill="#4A3636"/>
<path d="M92.224 102.931V87.1242H84.3032V83.1516H92.224V77.8041H96.238V83.1516H109.002V85.1417C109.002 90.2841 104.773 94.4695 99.5767 94.4695H99.1392V90.4968H99.5767C101.772 90.4968 103.752 89.1372 104.566 87.1242H96.238V102.931H92.224Z" fill="#4A3636"/>
<path d="M117.943 103V99.027H118.38C132.741 99.027 144.415 87.4433 144.415 73.201V72.7681H148.429V73.201C148.429 89.6309 134.951 103.007 118.38 103.007H117.943V103ZM115.932 76.5508V72.5782H125.288V76.5508H115.932Z" fill="#4A3636"/>
<path d="M155.114 91.5527L168.185 78.6169C169.973 76.9154 172.375 75.9431 174.778 75.9431C177.18 75.9431 179.621 76.8926 181.432 78.6169L194.51 91.5602L191.632 94.4087L178.562 81.4729C177.587 80.4551 176.282 79.9158 174.785 79.9158C173.289 79.9158 172.03 80.4551 171.009 81.4729L158 94.4087L155.122 91.5602L155.114 91.5527ZM189.936 79.7259C188.601 79.7259 187.357 79.217 186.421 78.2903C185.484 77.3712 184.97 76.133 184.97 74.8113C184.97 72.0692 187.196 69.836 189.936 69.836C191.295 69.836 192.553 70.3754 193.459 71.34C194.388 72.1984 194.894 73.3985 194.894 74.8037C194.894 77.5155 192.668 79.7183 189.928 79.7183L189.936 79.7259ZM189.936 73.1934C189.069 73.1934 188.363 73.9226 188.363 74.8189C188.363 75.2443 188.531 75.6773 188.8 75.9431C189.084 76.2242 189.483 76.3761 189.936 76.3761C190.834 76.3761 191.509 75.7077 191.509 74.8189C191.509 74.3632 191.356 73.9758 191.072 73.6948C190.75 73.3757 190.343 73.201 189.936 73.201V73.1934Z" fill="#4A3636"/>
<path d="M231.174 84.648H203.206V88.6207H231.174V84.648Z" fill="#4A3636"/>
<path d="M241.436 103V99.027H241.874C256.234 99.027 267.908 87.4433 267.908 73.201V72.7681H271.922V73.201C271.922 89.6309 258.444 103.007 241.874 103.007H241.436V103ZM239.425 76.5508V72.5782H248.789V76.5508H239.425Z" fill="#4A3636"/>
<path d="M283.381 104.488V100.516H287.394V104.488H283.381ZM283.381 95.1531V65.6051H287.394V95.1531H283.381Z" fill="#4A3636"/>
</g>
</g>
<defs>
<clipPath id="clip0_730_4374">
<rect width="335" height="105" fill="white"/>
</clipPath>
<clipPath id="clip1_730_4374">
<rect width="335" height="53" fill="white"/>
</clipPath>
<clipPath id="clip2_730_4374">
<rect width="240" height="40" fill="white" transform="translate(47.5 65)"/>
</clipPath>
</defs>
</svg>
