<svg width="19" height="15" viewBox="0 0 19 15" fill="none" xmlns="http://www.w3.org/2000/svg">
<path fill-rule="evenodd" clip-rule="evenodd" d="M16.7714 1.58586C17.5524 2.36691 17.5524 3.63324 16.7714 4.41428L8.2714 12.9142C7.49034 13.6952 6.22402 13.6952 5.44297 12.9142C4.66193 12.1331 4.66193 10.8668 5.44299 10.0857L13.943 1.58584C14.724 0.804795 15.9904 0.804802 16.7714 1.58586Z" fill="#F8B819"/>
<path fill-rule="evenodd" clip-rule="evenodd" d="M1.58579 6.22861C2.36684 5.44756 3.63317 5.44756 4.41421 6.22861L8.08578 9.90018C8.86683 10.6812 8.86683 11.9476 8.08578 12.7286C7.30473 13.5097 6.0384 13.5097 5.25736 12.7286L1.58579 9.05703C0.804737 8.27598 0.804738 7.00965 1.58579 6.22861Z" fill="#F8B819"/>
</svg>
