<svg width="19" height="19" viewBox="0 0 19 19" fill="none" xmlns="http://www.w3.org/2000/svg">
<path d="M14.9328 7.47924C14.9328 11.6099 11.5899 14.9585 7.46638 14.9585C3.34281 14.9585 0 11.6099 0 7.47924C0 3.34857 3.34281 0 7.46638 0C11.5899 0 14.9328 3.34857 14.9328 7.47924Z" fill="white"/>
<path fill-rule="evenodd" clip-rule="evenodd" d="M7.46638 11.9585C9.92822 11.9585 11.9328 9.95793 11.9328 7.47924C11.9328 5.00055 9.92822 3 7.46638 3C5.00453 3 3 5.00055 3 7.47924C3 9.95793 5.00453 11.9585 7.46638 11.9585ZM7.46638 14.9585C11.5899 14.9585 14.9328 11.6099 14.9328 7.47924C14.9328 3.34857 11.5899 0 7.46638 0C3.34281 0 0 3.34857 0 7.47924C0 11.6099 3.34281 14.9585 7.46638 14.9585Z" fill="#F8B819"/>
<path d="M11.2301 13.9251C10.6244 13.3644 10.6456 12.4795 11.2774 11.9484C11.9091 11.4174 12.9123 11.4414 13.5179 12.0021L17.9034 16.0618C18.5091 16.6225 18.4879 17.5074 17.8561 18.0385C17.2243 18.5695 16.2212 18.5455 15.6156 17.9848L11.2301 13.9251Z" fill="#F8B819"/>
</svg>
